<?xml version="1.0" encoding="UTF-8"?>
<svg xmlns="http://www.w3.org/2000/svg" xmlns:xlink="http://www.w3.org/1999/xlink" width="2090pt" height="601pt" viewBox="0 0 2090 601" version="1.1">
<defs>
<clipPath id="clip1">
  <path d="M 3.601562 418 L 519.601562 418 L 519.601562 421 L 3.601562 421 Z M 3.601562 418 "/>
</clipPath>
<clipPath id="clip2">
  <path d="M 3.601562 295 L 519.601562 295 L 519.601562 545 L 3.601562 545 Z M 3.601562 295 "/>
</clipPath>
<clipPath id="clip3">
  <path d="M 193 461.039062 L 330 461.039062 L 330 562 L 193 562 Z M 193 461.039062 "/>
</clipPath>
<clipPath id="clip4">
  <path d="M 525.601562 419 L 1041.601562 419 L 1041.601562 421 L 525.601562 421 Z M 525.601562 419 "/>
</clipPath>
<clipPath id="clip5">
  <path d="M 525.601562 295 L 1041.601562 295 L 1041.601562 545 L 525.601562 545 Z M 525.601562 295 "/>
</clipPath>
<clipPath id="clip6">
  <path d="M 1047.839844 419 L 1563.839844 419 L 1563.839844 421 L 1047.839844 421 Z M 1047.839844 419 "/>
</clipPath>
<clipPath id="clip7">
  <path d="M 1047.839844 295 L 1563.839844 295 L 1563.839844 545 L 1047.839844 545 Z M 1047.839844 295 "/>
</clipPath>
<clipPath id="clip8">
  <path d="M 1570.078125 419 L 2086.078125 419 L 2086.078125 421 L 1570.078125 421 Z M 1570.078125 419 "/>
</clipPath>
<clipPath id="clip9">
  <path d="M 1570.078125 295 L 2086.078125 295 L 2086.078125 545 L 1570.078125 545 Z M 1570.078125 295 "/>
</clipPath>
</defs>
<g id="surface11">
<path style=" stroke:none;fill-rule:evenodd;fill:rgb(0%,0%,0%);fill-opacity:1;" d="M 186.972656 52.273438 C 186.972656 51.914062 186.738281 51.734375 186.378906 51.734375 C 186.378906 51.734375 186.019531 51.734375 185.902344 51.976562 C 185.902344 51.976562 185.785156 52.09375 185.363281 53.046875 C 184.113281 56.03125 181.375 60.203125 177.921875 60.203125 C 176.132812 60.203125 176.007812 58.710938 176.007812 57.398438 C 176.007812 57.398438 176.007812 56.210938 176.1875 55.492188 L 180.835938 36.835938 L 186.316406 36.835938 C 187.449219 36.835938 188.050781 36.835938 188.050781 35.765625 C 188.050781 35.109375 187.691406 35.109375 186.496094 35.109375 L 181.257812 35.109375 L 183.460938 26.40625 C 183.703125 25.574219 183.703125 25.453125 183.703125 25.039062 C 183.703125 24.078125 182.921875 23.550781 182.148438 23.550781 C 181.671875 23.550781 180.304688 23.726562 179.828125 25.636719 L 177.5 35.109375 L 171.898438 35.109375 C 170.710938 35.109375 170.171875 35.109375 170.171875 36.242188 C 170.171875 36.835938 170.585938 36.835938 171.71875 36.835938 L 177.023438 36.835938 L 173.09375 52.570312 C 172.617188 54.65625 172.4375 55.25 172.4375 56.03125 C 172.4375 58.828125 174.40625 61.390625 177.742188 61.390625 C 183.757812 61.390625 186.972656 52.6875 186.972656 52.273438 Z M 186.972656 52.273438 "/>
<path style=" stroke:none;fill-rule:evenodd;fill:rgb(0%,0%,0%);fill-opacity:1;" d="M 248.492188 40.414062 C 248.492188 39.28125 247.476562 39.28125 246.585938 39.28125 L 211.480469 39.28125 C 210.644531 39.28125 209.574219 39.28125 209.574219 40.351562 C 209.574219 41.484375 210.589844 41.484375 211.480469 41.484375 L 246.585938 41.484375 C 247.414062 41.484375 248.492188 41.484375 248.492188 40.414062 Z M 248.492188 51.5 C 248.492188 50.367188 247.476562 50.367188 246.585938 50.367188 L 211.480469 50.367188 C 210.644531 50.367188 209.574219 50.367188 209.574219 51.4375 C 209.574219 52.570312 210.589844 52.570312 211.480469 52.570312 L 246.585938 52.570312 C 247.414062 52.570312 248.492188 52.570312 248.492188 51.5 Z M 248.492188 51.5 "/>
<path style=" stroke:none;fill-rule:evenodd;fill:rgb(0%,0%,0%);fill-opacity:1;" d="M 295.550781 41.726562 C 295.550781 36.773438 295.253906 31.953125 293.105469 27.421875 C 290.660156 22.472656 286.371094 21.167969 283.449219 21.167969 C 279.996094 21.167969 275.761719 22.890625 273.558594 27.835938 C 271.886719 31.59375 271.292969 35.289062 271.292969 41.726562 C 271.292969 47.507812 271.707031 51.859375 273.855469 56.085938 C 276.175781 60.617188 280.292969 62.046875 283.386719 62.046875 C 288.574219 62.046875 291.558594 58.945312 293.285156 55.492188 C 295.433594 51.023438 295.550781 45.179688 295.550781 41.726562 Z M 291.019531 41.007812 C 291.019531 45 291.019531 49.53125 290.363281 53.164062 C 289.230469 59.726562 285.480469 60.859375 283.386719 60.859375 C 281.480469 60.859375 277.605469 59.78125 276.480469 53.289062 C 275.824219 49.710938 275.824219 45.179688 275.824219 41.007812 C 275.824219 36.125 275.824219 31.710938 276.777344 28.195312 C 277.785156 24.203125 280.824219 22.355469 283.386719 22.355469 C 285.652344 22.355469 289.113281 23.726562 290.246094 28.851562 C 291.019531 32.25 291.019531 36.953125 291.019531 41.007812 Z M 291.019531 41.007812 "/>
<path style=" stroke:none;fill-rule:evenodd;fill:rgb(0%,0%,0%);fill-opacity:1;" d="M 327.273438 53.40625 L 327.273438 50.007812 L 325.960938 50.007812 L 325.960938 53.289062 C 325.960938 57.578125 324.234375 60.078125 321.90625 60.078125 C 317.859375 60.078125 317.859375 54.539062 317.859375 53.523438 L 317.859375 36.835938 L 326.257812 36.835938 L 326.257812 35.109375 L 317.859375 35.109375 L 317.859375 24.140625 L 316.546875 24.140625 C 316.484375 29.742188 314.34375 35.46875 308.914062 35.648438 L 308.914062 36.835938 L 313.984375 36.835938 L 313.984375 53.40625 C 313.984375 60.023438 318.390625 61.390625 321.554688 61.390625 C 325.304688 61.390625 327.273438 57.695312 327.273438 53.40625 Z M 327.273438 53.40625 "/>
<path style=" stroke:none;fill-rule:evenodd;fill:rgb(0%,0%,0%);fill-opacity:1;" d="M 350.269531 57.125 C 350.269531 52.867188 349.832031 50.289062 348.519531 47.742188 C 346.78125 44.25 343.5625 43.375 341.375 43.375 C 336.367188 43.375 334.539062 47.109375 333.984375 48.21875 C 332.554688 51.125 332.476562 55.054688 332.476562 57.125 C 332.476562 59.742188 332.59375 63.757812 334.5 66.933594 C 336.328125 69.871094 339.265625 70.628906 341.375 70.628906 C 343.28125 70.628906 346.691406 70.035156 348.6875 66.097656 C 350.152344 63.242188 350.269531 59.703125 350.269531 57.125 Z M 346.730469 56.648438 C 346.730469 58.992188 346.730469 62.5625 346.257812 64.789062 C 345.429688 68.957031 342.6875 69.511719 341.375 69.511719 C 340.023438 69.511719 337.28125 68.878906 336.445312 64.710938 C 336.007812 62.445312 336.007812 58.710938 336.007812 56.648438 C 336.007812 53.90625 336.007812 51.125 336.445312 48.9375 C 337.28125 44.882812 340.382812 44.484375 341.375 44.484375 C 342.726562 44.484375 345.46875 45.164062 346.257812 48.773438 C 346.730469 50.960938 346.730469 53.945312 346.730469 56.648438 Z M 346.730469 56.648438 "/>
<path style=" stroke:none;fill-rule:evenodd;fill:rgb(0%,0%,0%);fill-opacity:1;" d="M 715.683594 41.726562 C 715.683594 36.773438 715.386719 31.953125 713.238281 27.421875 C 710.792969 22.46875 706.503906 21.164062 703.582031 21.164062 C 700.128906 21.164062 695.894531 22.890625 693.691406 27.835938 C 692.019531 31.59375 691.425781 35.289062 691.425781 41.726562 C 691.425781 47.507812 691.839844 51.859375 693.988281 56.085938 C 696.308594 60.617188 700.425781 62.046875 703.519531 62.046875 C 708.707031 62.046875 711.691406 58.945312 713.417969 55.492188 C 715.566406 51.023438 715.683594 45.179688 715.683594 41.726562 Z M 711.152344 41.007812 C 711.152344 45 711.152344 49.53125 710.496094 53.164062 C 709.363281 59.726562 705.613281 60.859375 703.519531 60.859375 C 701.613281 60.859375 697.738281 59.78125 696.613281 53.289062 C 695.957031 49.710938 695.957031 45.179688 695.957031 41.007812 C 695.957031 36.125 695.957031 31.710938 696.910156 28.195312 C 697.917969 24.203125 700.957031 22.351562 703.519531 22.351562 C 705.785156 22.351562 709.246094 23.726562 710.378906 28.851562 C 711.152344 32.25 711.152344 36.953125 711.152344 41.007812 Z M 711.152344 41.007812 "/>
<path style=" stroke:none;fill-rule:evenodd;fill:rgb(0%,0%,0%);fill-opacity:1;" d="M 728.949219 57.9375 C 728.949219 56.210938 727.519531 55.015625 726.089844 55.015625 C 724.355469 55.015625 723.167969 56.445312 723.167969 57.875 C 723.167969 59.601562 724.597656 60.796875 726.027344 60.796875 C 727.753906 60.796875 728.949219 59.367188 728.949219 57.9375 Z M 728.949219 57.9375 "/>
<path style=" stroke:none;fill-rule:evenodd;fill:rgb(0%,0%,0%);fill-opacity:1;" d="M 762.015625 50.84375 L 762.015625 49.117188 L 755.992188 49.117188 L 755.992188 21.996094 C 755.992188 20.871094 755.992188 20.5625 755.15625 20.5625 C 754.679688 20.5625 754.5 20.5625 754.023438 21.285156 L 736.089844 49.117188 L 736.089844 50.84375 L 751.757812 50.84375 L 751.757812 56.265625 C 751.757812 58.46875 751.640625 59.070312 747.289062 59.070312 L 746.101562 59.070312 L 746.101562 60.796875 C 747.46875 60.679688 752.179688 60.679688 753.84375 60.679688 C 755.515625 60.679688 760.28125 60.679688 761.65625 60.796875 L 761.65625 59.070312 L 760.460938 59.070312 C 756.171875 59.070312 755.992188 58.46875 755.992188 56.265625 L 755.992188 50.84375 Z M 752.0625 49.117188 L 737.582031 49.117188 L 752.0625 26.648438 Z M 752.0625 49.117188 "/>
<path style=" stroke:none;fill-rule:evenodd;fill:rgb(0%,0%,0%);fill-opacity:1;" d="M 790.199219 50.78125 L 788.886719 50.78125 C 788.710938 51.796875 788.234375 55.078125 787.640625 56.03125 C 787.214844 56.5625 783.820312 56.5625 782.039062 56.5625 L 771.007812 56.5625 C 772.617188 55.195312 776.257812 51.382812 777.804688 49.953125 C 786.867188 41.601562 790.199219 38.507812 790.199219 32.601562 C 790.199219 25.75 784.78125 21.164062 777.867188 21.164062 C 770.953125 21.164062 766.898438 27.0625 766.898438 32.1875 C 766.898438 35.226562 769.523438 35.226562 769.695312 35.226562 C 770.953125 35.226562 772.5 34.335938 772.5 32.429688 C 772.5 30.757812 771.367188 29.625 769.695312 29.625 C 769.164062 29.625 769.039062 29.625 768.867188 29.6875 C 770 25.632812 773.21875 22.890625 777.085938 22.890625 C 782.15625 22.890625 785.257812 27.125 785.257812 32.601562 C 785.257812 37.671875 782.335938 42.078125 778.9375 45.898438 L 766.898438 59.367188 L 766.898438 60.796875 L 788.648438 60.796875 Z M 790.199219 50.78125 "/>
<path style=" stroke:none;fill-rule:evenodd;fill:rgb(0%,0%,0%);fill-opacity:1;" d="M 819.675781 50.90625 C 819.675781 44.820312 815.386719 42.140625 810.730469 39.28125 C 813.714844 37.671875 818.066406 34.929688 818.066406 29.921875 C 818.066406 24.734375 813.058594 21.164062 807.574219 21.164062 C 801.675781 21.164062 797.027344 25.515625 797.027344 30.9375 C 797.027344 32.960938 797.621094 34.992188 799.292969 37.015625 C 799.949219 37.789062 800.003906 37.851562 804.175781 40.773438 C 798.394531 43.453125 795.417969 47.445312 795.417969 51.796875 C 795.417969 58.117188 801.433594 62.046875 807.511719 62.046875 C 814.128906 62.046875 819.675781 57.164062 819.675781 50.90625 Z M 815.621094 29.984375 C 815.621094 33.617188 812.996094 36.539062 809.542969 38.445312 L 802.628906 33.914062 C 801.855469 33.382812 799.472656 31.828125 799.472656 28.90625 C 799.472656 25.039062 803.519531 22.59375 807.511719 22.59375 C 811.808594 22.59375 815.621094 25.6875 815.621094 29.984375 Z M 816.933594 52.8125 C 816.933594 57.34375 812.339844 60.4375 807.574219 60.4375 C 802.511719 60.4375 798.160156 56.742188 798.160156 51.796875 C 798.160156 47.148438 801.558594 43.390625 805.425781 41.601562 L 812.644531 46.3125 C 814.191406 47.328125 816.933594 49.171875 816.933594 52.8125 Z M 816.933594 52.8125 "/>
<path style=" stroke:none;fill-rule:evenodd;fill:rgb(0%,0%,0%);fill-opacity:1;" d="M 851.898438 53.40625 L 851.898438 50.007812 L 850.585938 50.007812 L 850.585938 53.289062 C 850.585938 57.578125 848.859375 60.078125 846.53125 60.078125 C 842.484375 60.078125 842.484375 54.539062 842.484375 53.523438 L 842.484375 36.835938 L 850.882812 36.835938 L 850.882812 35.109375 L 842.484375 35.109375 L 842.484375 24.140625 L 841.171875 24.140625 C 841.109375 29.742188 838.96875 35.46875 833.542969 35.648438 L 833.542969 36.835938 L 838.609375 36.835938 L 838.609375 53.40625 C 838.609375 60.023438 843.015625 61.390625 846.179688 61.390625 C 849.929688 61.390625 851.898438 57.695312 851.898438 53.40625 Z M 851.898438 53.40625 "/>
<path style=" stroke:none;fill-rule:evenodd;fill:rgb(0%,0%,0%);fill-opacity:1;" d="M 874.398438 57.125 C 874.398438 52.867188 873.960938 50.289062 872.648438 47.742188 C 870.90625 44.25 867.6875 43.375 865.5 43.375 C 860.492188 43.375 858.664062 47.109375 858.109375 48.21875 C 856.679688 51.125 856.601562 55.054688 856.601562 57.125 C 856.601562 59.742188 856.71875 63.757812 858.625 66.9375 C 860.453125 69.871094 863.390625 70.628906 865.5 70.628906 C 867.40625 70.628906 870.820312 70.039062 872.8125 66.101562 C 874.28125 63.242188 874.398438 59.703125 874.398438 57.125 Z M 870.859375 56.648438 C 870.859375 58.992188 870.859375 62.5625 870.382812 64.789062 C 869.554688 68.960938 866.8125 69.515625 865.5 69.515625 C 864.148438 69.515625 861.40625 68.882812 860.570312 64.710938 C 860.132812 62.445312 860.132812 58.710938 860.132812 56.648438 C 860.132812 53.90625 860.132812 51.125 860.570312 48.9375 C 861.40625 44.882812 864.507812 44.484375 865.5 44.484375 C 866.851562 44.484375 869.59375 45.164062 870.382812 48.773438 C 870.859375 50.960938 870.859375 53.945312 870.859375 56.648438 Z M 870.859375 56.648438 "/>
<path style=" stroke:none;fill-rule:evenodd;fill:rgb(0%,0%,0%);fill-opacity:1;" d="M 1237.882812 41.726562 C 1237.882812 36.773438 1237.585938 31.953125 1235.4375 27.421875 C 1232.992188 22.46875 1228.703125 21.164062 1225.78125 21.164062 C 1222.328125 21.164062 1218.097656 22.890625 1215.894531 27.835938 C 1214.222656 31.59375 1213.628906 35.289062 1213.628906 41.726562 C 1213.628906 47.507812 1214.042969 51.859375 1216.191406 56.085938 C 1218.511719 60.617188 1222.625 62.046875 1225.71875 62.046875 C 1230.90625 62.046875 1233.890625 58.945312 1235.617188 55.492188 C 1237.765625 51.023438 1237.882812 45.179688 1237.882812 41.726562 Z M 1233.351562 41.007812 C 1233.351562 45 1233.351562 49.53125 1232.695312 53.164062 C 1231.5625 59.726562 1227.8125 60.859375 1225.71875 60.859375 C 1223.8125 60.859375 1219.941406 59.78125 1218.816406 53.289062 C 1218.160156 49.710938 1218.160156 45.179688 1218.160156 41.007812 C 1218.160156 36.125 1218.160156 31.710938 1219.113281 28.195312 C 1220.121094 24.203125 1223.15625 22.351562 1225.71875 22.351562 C 1227.984375 22.351562 1231.445312 23.726562 1232.578125 28.851562 C 1233.351562 32.25 1233.351562 36.953125 1233.351562 41.007812 Z M 1233.351562 41.007812 "/>
<path style=" stroke:none;fill-rule:evenodd;fill:rgb(0%,0%,0%);fill-opacity:1;" d="M 1251.148438 57.9375 C 1251.148438 56.210938 1249.71875 55.015625 1248.289062 55.015625 C 1246.554688 55.015625 1245.367188 56.445312 1245.367188 57.875 C 1245.367188 59.601562 1246.796875 60.796875 1248.226562 60.796875 C 1249.953125 60.796875 1251.148438 59.367188 1251.148438 57.9375 Z M 1251.148438 57.9375 "/>
<path style=" stroke:none;fill-rule:evenodd;fill:rgb(0%,0%,0%);fill-opacity:1;" d="M 1283.378906 50.90625 C 1283.378906 44.820312 1279.089844 42.140625 1274.433594 39.28125 C 1277.417969 37.671875 1281.769531 34.929688 1281.769531 29.921875 C 1281.769531 24.734375 1276.761719 21.164062 1271.277344 21.164062 C 1265.382812 21.164062 1260.734375 25.515625 1260.734375 30.9375 C 1260.734375 32.960938 1261.328125 34.992188 1263 37.015625 C 1263.65625 37.789062 1263.710938 37.851562 1267.882812 40.773438 C 1262.101562 43.453125 1259.125 47.445312 1259.125 51.796875 C 1259.125 58.117188 1265.140625 62.046875 1271.214844 62.046875 C 1277.832031 62.046875 1283.378906 57.164062 1283.378906 50.90625 Z M 1279.324219 29.984375 C 1279.324219 33.617188 1276.699219 36.539062 1273.25 38.445312 L 1266.335938 33.914062 C 1265.5625 33.382812 1263.179688 31.828125 1263.179688 28.90625 C 1263.179688 25.039062 1267.226562 22.59375 1271.214844 22.59375 C 1275.511719 22.59375 1279.324219 25.6875 1279.324219 29.984375 Z M 1280.636719 52.8125 C 1280.636719 57.34375 1276.042969 60.4375 1271.277344 60.4375 C 1266.21875 60.4375 1261.867188 56.742188 1261.867188 51.796875 C 1261.867188 47.148438 1265.265625 43.390625 1269.132812 41.601562 L 1276.347656 46.3125 C 1277.894531 47.328125 1280.636719 49.171875 1280.636719 52.8125 Z M 1280.636719 52.8125 "/>
<path style=" stroke:none;fill-rule:evenodd;fill:rgb(0%,0%,0%);fill-opacity:1;" d="M 1312.402344 48.820312 C 1312.402344 41.726562 1307.628906 35.820312 1301.371094 35.820312 C 1297.980469 35.820312 1295.355469 37.3125 1293.808594 38.984375 L 1293.808594 26.648438 C 1296.371094 27.476562 1298.457031 27.539062 1299.113281 27.539062 C 1305.847656 27.539062 1310.136719 22.59375 1310.136719 21.757812 C 1310.136719 21.515625 1310.019531 21.222656 1309.660156 21.222656 C 1309.660156 21.222656 1309.417969 21.222656 1308.886719 21.460938 C 1305.542969 22.890625 1302.683594 23.070312 1301.136719 23.070312 C 1297.199219 23.070312 1294.402344 21.875 1293.269531 21.398438 C 1292.847656 21.222656 1292.675781 21.222656 1292.675781 21.222656 C 1292.199219 21.222656 1292.199219 21.578125 1292.199219 22.53125 L 1292.199219 40.234375 C 1292.199219 41.304688 1292.199219 41.664062 1292.910156 41.664062 C 1293.207031 41.664062 1293.269531 41.601562 1293.863281 40.890625 C 1295.535156 38.445312 1298.332031 37.015625 1301.316406 37.015625 C 1304.472656 37.015625 1306.019531 39.9375 1306.503906 40.953125 C 1307.511719 43.273438 1307.574219 46.195312 1307.574219 48.460938 C 1307.574219 50.726562 1307.574219 54.125 1305.902344 56.804688 C 1304.589844 58.945312 1302.269531 60.4375 1299.644531 60.4375 C 1295.714844 60.4375 1291.839844 57.757812 1290.761719 53.40625 C 1291.066406 53.523438 1291.417969 53.585938 1291.722656 53.585938 C 1292.730469 53.585938 1294.339844 52.992188 1294.339844 50.960938 C 1294.339844 49.296875 1293.207031 48.34375 1291.722656 48.34375 C 1290.644531 48.34375 1289.097656 48.875 1289.097656 51.203125 C 1289.097656 56.265625 1293.152344 62.046875 1299.761719 62.046875 C 1306.503906 62.046875 1312.402344 56.382812 1312.402344 48.820312 Z M 1312.402344 48.820312 "/>
<path style=" stroke:none;fill-rule:evenodd;fill:rgb(0%,0%,0%);fill-opacity:1;" d="M 1341.875 48.640625 C 1341.875 40.710938 1336.328125 35.40625 1330.367188 35.40625 C 1325.0625 35.40625 1323.101562 39.992188 1322.5 41.664062 L 1322.5 40.054688 C 1322.5 24.976562 1329.835938 22.59375 1333.054688 22.59375 C 1335.195312 22.59375 1337.34375 23.25 1338.476562 25.039062 C 1337.757812 25.039062 1335.5 25.039062 1335.5 27.476562 C 1335.5 28.789062 1336.390625 29.921875 1337.9375 29.921875 C 1339.429688 29.921875 1340.445312 29.03125 1340.445312 27.296875 C 1340.445312 24.203125 1338.179688 21.164062 1332.992188 21.164062 C 1325.484375 21.164062 1317.621094 28.851562 1317.621094 41.960938 C 1317.621094 58.351562 1324.765625 62.046875 1329.835938 62.046875 C 1336.328125 62.046875 1341.875 56.382812 1341.875 48.640625 Z M 1336.984375 48.578125 C 1336.984375 51.617188 1336.984375 54.296875 1335.851562 56.5625 C 1334.367188 59.429688 1332.21875 60.4375 1329.835938 60.4375 C 1326.078125 60.4375 1324.289062 57.101562 1323.757812 55.851562 C 1323.21875 54.296875 1322.625 51.382812 1322.625 47.210938 C 1322.625 42.5 1324.765625 36.601562 1330.132812 36.601562 C 1333.414062 36.601562 1335.140625 38.804688 1336.03125 40.828125 C 1336.984375 43.039062 1336.984375 46.015625 1336.984375 48.578125 Z M 1336.984375 48.578125 "/>
<path style=" stroke:none;fill-rule:evenodd;fill:rgb(0%,0%,0%);fill-opacity:1;" d="M 1374.097656 53.40625 L 1374.097656 50.007812 L 1372.785156 50.007812 L 1372.785156 53.289062 C 1372.785156 57.578125 1371.058594 60.078125 1368.734375 60.078125 C 1364.6875 60.078125 1364.6875 54.539062 1364.6875 53.523438 L 1364.6875 36.835938 L 1373.082031 36.835938 L 1373.082031 35.109375 L 1364.6875 35.109375 L 1364.6875 24.140625 L 1363.375 24.140625 C 1363.3125 29.742188 1361.171875 35.46875 1355.742188 35.648438 L 1355.742188 36.835938 L 1360.8125 36.835938 L 1360.8125 53.40625 C 1360.8125 60.023438 1365.21875 61.390625 1368.382812 61.390625 C 1372.128906 61.390625 1374.097656 57.695312 1374.097656 53.40625 Z M 1374.097656 53.40625 "/>
<path style=" stroke:none;fill-rule:evenodd;fill:rgb(0%,0%,0%);fill-opacity:1;" d="M 1396.597656 57.125 C 1396.597656 52.867188 1396.160156 50.289062 1394.847656 47.742188 C 1393.105469 44.25 1389.886719 43.375 1387.699219 43.375 C 1382.691406 43.375 1380.863281 47.109375 1380.308594 48.21875 C 1378.878906 51.125 1378.800781 55.054688 1378.800781 57.125 C 1378.800781 59.742188 1378.917969 63.757812 1380.824219 66.9375 C 1382.652344 69.871094 1385.589844 70.628906 1387.699219 70.628906 C 1389.605469 70.628906 1393.019531 70.039062 1395.011719 66.101562 C 1396.480469 63.242188 1396.597656 59.703125 1396.597656 57.125 Z M 1393.058594 56.648438 C 1393.058594 58.992188 1393.058594 62.5625 1392.582031 64.789062 C 1391.753906 68.960938 1389.011719 69.515625 1387.699219 69.515625 C 1386.347656 69.515625 1383.605469 68.882812 1382.769531 64.710938 C 1382.332031 62.445312 1382.332031 58.710938 1382.332031 56.648438 C 1382.332031 53.90625 1382.332031 51.125 1382.769531 48.9375 C 1383.605469 44.882812 1386.707031 44.484375 1387.699219 44.484375 C 1389.050781 44.484375 1391.792969 45.164062 1392.582031 48.773438 C 1393.058594 50.960938 1393.058594 53.945312 1393.058594 56.648438 Z M 1393.058594 56.648438 "/>
<path style=" stroke:none;fill-rule:evenodd;fill:rgb(0%,0%,0%);fill-opacity:1;" d="M 1757.816406 60.796875 L 1757.816406 59.070312 L 1755.964844 59.070312 C 1750.726562 59.070312 1750.546875 58.351562 1750.546875 56.210938 L 1750.546875 22.59375 C 1750.546875 21.222656 1750.546875 21.164062 1749.359375 21.164062 C 1747.921875 22.773438 1744.945312 24.976562 1738.804688 24.976562 L 1738.804688 26.703125 C 1740.179688 26.703125 1743.15625 26.703125 1746.4375 25.15625 L 1746.4375 56.210938 C 1746.4375 58.351562 1746.257812 59.070312 1741.015625 59.070312 L 1739.164062 59.070312 L 1739.164062 60.796875 C 1740.773438 60.679688 1746.554688 60.679688 1748.523438 60.679688 C 1750.492188 60.679688 1756.207031 60.679688 1757.816406 60.796875 Z M 1757.816406 60.796875 "/>
<path style=" stroke:none;fill-rule:evenodd;fill:rgb(0%,0%,0%);fill-opacity:1;" d="M 1773.347656 57.9375 C 1773.347656 56.210938 1771.917969 55.015625 1770.488281 55.015625 C 1768.753906 55.015625 1767.566406 56.445312 1767.566406 57.875 C 1767.566406 59.601562 1768.996094 60.796875 1770.425781 60.796875 C 1772.152344 60.796875 1773.347656 59.367188 1773.347656 57.9375 Z M 1773.347656 57.9375 "/>
<path style=" stroke:none;fill-rule:evenodd;fill:rgb(0%,0%,0%);fill-opacity:1;" d="M 1805.101562 50.78125 L 1803.789062 50.78125 C 1803.613281 51.796875 1803.136719 55.078125 1802.542969 56.03125 C 1802.117188 56.5625 1798.722656 56.5625 1796.941406 56.5625 L 1785.910156 56.5625 C 1787.519531 55.195312 1791.160156 51.382812 1792.707031 49.953125 C 1801.769531 41.601562 1805.101562 38.507812 1805.101562 32.601562 C 1805.101562 25.75 1799.683594 21.164062 1792.769531 21.164062 C 1785.855469 21.164062 1781.800781 27.0625 1781.800781 32.1875 C 1781.800781 35.226562 1784.425781 35.226562 1784.597656 35.226562 C 1785.855469 35.226562 1787.402344 34.335938 1787.402344 32.429688 C 1787.402344 30.757812 1786.269531 29.625 1784.597656 29.625 C 1784.066406 29.625 1783.941406 29.625 1783.769531 29.6875 C 1784.902344 25.632812 1788.121094 22.890625 1791.988281 22.890625 C 1797.058594 22.890625 1800.160156 27.125 1800.160156 32.601562 C 1800.160156 37.671875 1797.238281 42.078125 1793.839844 45.898438 L 1781.800781 59.367188 L 1781.800781 60.796875 L 1803.550781 60.796875 Z M 1805.101562 50.78125 "/>
<path style=" stroke:none;fill-rule:evenodd;fill:rgb(0%,0%,0%);fill-opacity:1;" d="M 1835.078125 50.90625 C 1835.078125 44.820312 1830.789062 42.140625 1826.132812 39.28125 C 1829.117188 37.671875 1833.46875 34.929688 1833.46875 29.921875 C 1833.46875 24.734375 1828.460938 21.164062 1822.976562 21.164062 C 1817.078125 21.164062 1812.429688 25.515625 1812.429688 30.9375 C 1812.429688 32.960938 1813.023438 34.992188 1814.695312 37.015625 C 1815.351562 37.789062 1815.40625 37.851562 1819.578125 40.773438 C 1813.796875 43.453125 1810.820312 47.445312 1810.820312 51.796875 C 1810.820312 58.117188 1816.835938 62.046875 1822.914062 62.046875 C 1829.53125 62.046875 1835.078125 57.164062 1835.078125 50.90625 Z M 1831.023438 29.984375 C 1831.023438 33.617188 1828.398438 36.539062 1824.945312 38.445312 L 1818.03125 33.914062 C 1817.257812 33.382812 1814.875 31.828125 1814.875 28.90625 C 1814.875 25.039062 1818.921875 22.59375 1822.914062 22.59375 C 1827.210938 22.59375 1831.023438 25.6875 1831.023438 29.984375 Z M 1832.335938 52.8125 C 1832.335938 57.34375 1827.742188 60.4375 1822.976562 60.4375 C 1817.914062 60.4375 1813.5625 56.742188 1813.5625 51.796875 C 1813.5625 47.148438 1816.960938 43.390625 1820.828125 41.601562 L 1828.046875 46.3125 C 1829.59375 47.328125 1832.335938 49.171875 1832.335938 52.8125 Z M 1832.335938 52.8125 "/>
<path style=" stroke:none;fill-rule:evenodd;fill:rgb(0%,0%,0%);fill-opacity:1;" d="M 1864.074219 41.726562 C 1864.074219 36.773438 1863.777344 31.953125 1861.628906 27.421875 C 1859.183594 22.46875 1854.894531 21.164062 1851.976562 21.164062 C 1848.523438 21.164062 1844.289062 22.890625 1842.085938 27.835938 C 1840.414062 31.59375 1839.820312 35.289062 1839.820312 41.726562 C 1839.820312 47.507812 1840.234375 51.859375 1842.382812 56.085938 C 1844.703125 60.617188 1848.820312 62.046875 1851.914062 62.046875 C 1857.097656 62.046875 1860.082031 58.945312 1861.808594 55.492188 C 1863.957031 51.023438 1864.074219 45.179688 1864.074219 41.726562 Z M 1859.542969 41.007812 C 1859.542969 45 1859.542969 49.53125 1858.886719 53.164062 C 1857.753906 59.726562 1854.007812 60.859375 1851.914062 60.859375 C 1850.007812 60.859375 1846.132812 59.78125 1845.007812 53.289062 C 1844.351562 49.710938 1844.351562 45.179688 1844.351562 41.007812 C 1844.351562 36.125 1844.351562 31.710938 1845.304688 28.195312 C 1846.3125 24.203125 1849.351562 22.351562 1851.914062 22.351562 C 1854.175781 22.351562 1857.636719 23.726562 1858.769531 28.851562 C 1859.542969 32.25 1859.542969 36.953125 1859.542969 41.007812 Z M 1859.542969 41.007812 "/>
<path style=" stroke:none;fill-rule:evenodd;fill:rgb(0%,0%,0%);fill-opacity:1;" d="M 1896.300781 53.40625 L 1896.300781 50.007812 L 1894.988281 50.007812 L 1894.988281 53.289062 C 1894.988281 57.578125 1893.261719 60.078125 1890.933594 60.078125 C 1886.886719 60.078125 1886.886719 54.539062 1886.886719 53.523438 L 1886.886719 36.835938 L 1895.285156 36.835938 L 1895.285156 35.109375 L 1886.886719 35.109375 L 1886.886719 24.140625 L 1885.574219 24.140625 C 1885.511719 29.742188 1883.371094 35.46875 1877.941406 35.648438 L 1877.941406 36.835938 L 1883.011719 36.835938 L 1883.011719 53.40625 C 1883.011719 60.023438 1887.417969 61.390625 1890.582031 61.390625 C 1894.332031 61.390625 1896.300781 57.695312 1896.300781 53.40625 Z M 1896.300781 53.40625 "/>
<path style=" stroke:none;fill-rule:evenodd;fill:rgb(0%,0%,0%);fill-opacity:1;" d="M 1918.796875 57.125 C 1918.796875 52.867188 1918.359375 50.289062 1917.046875 47.742188 C 1915.304688 44.25 1912.085938 43.375 1909.898438 43.375 C 1904.890625 43.375 1903.066406 47.109375 1902.507812 48.21875 C 1901.082031 51.125 1901.003906 55.054688 1901.003906 57.125 C 1901.003906 59.742188 1901.121094 63.757812 1903.027344 66.9375 C 1904.851562 69.871094 1907.789062 70.628906 1909.898438 70.628906 C 1911.804688 70.628906 1915.21875 70.039062 1917.210938 66.101562 C 1918.679688 63.242188 1918.796875 59.703125 1918.796875 57.125 Z M 1915.257812 56.648438 C 1915.257812 58.992188 1915.257812 62.5625 1914.78125 64.789062 C 1913.953125 68.960938 1911.210938 69.515625 1909.898438 69.515625 C 1908.546875 69.515625 1905.804688 68.882812 1904.96875 64.710938 C 1904.53125 62.445312 1904.53125 58.710938 1904.53125 56.648438 C 1904.53125 53.90625 1904.53125 51.125 1904.96875 48.9375 C 1905.804688 44.882812 1908.90625 44.484375 1909.898438 44.484375 C 1911.25 44.484375 1913.992188 45.164062 1914.78125 48.773438 C 1915.257812 50.960938 1915.257812 53.945312 1915.257812 56.648438 Z M 1915.257812 56.648438 "/>
<g clip-path="url(#clip1)" clip-rule="nonzero">
<path style="fill:none;stroke-width:1;stroke-linecap:square;stroke-linejoin:miter;stroke:rgb(0%,0%,0%);stroke-opacity:1;stroke-miterlimit:3.25;" d="M 3.601562 419.664062 L 519.601562 419.664062 "/>
</g>
<g clip-path="url(#clip2)" clip-rule="nonzero">
<path style="fill:none;stroke-width:1;stroke-linecap:square;stroke-linejoin:miter;stroke:rgb(0%,0%,0%);stroke-opacity:1;stroke-miterlimit:3.25;" d="M 3.601562 299.726562 L 519.601562 539.597656 "/>
</g>
<path style="fill-rule:nonzero;fill:rgb(50%,50%,50%);fill-opacity:1;stroke-width:1;stroke-linecap:square;stroke-linejoin:miter;stroke:rgb(50%,50%,50%);stroke-opacity:1;stroke-miterlimit:3.25;" d="M 268.671875 174.824219 L 239.347656 175.734375 L 246.9375 420.117188 L 276.261719 419.207031 Z M 268.671875 174.824219 "/>
<path style="fill:none;stroke-width:2;stroke-linecap:square;stroke-linejoin:miter;stroke:rgb(0%,0%,0%);stroke-opacity:1;stroke-miterlimit:3.25;" d="M 268.671875 174.824219 L 239.347656 175.734375 L 246.9375 420.117188 L 276.261719 419.207031 Z M 268.671875 174.824219 "/>
<path style="fill-rule:nonzero;fill:rgb(84.999084%,84.999084%,84.999084%);fill-opacity:1;stroke-width:2;stroke-linecap:square;stroke-linejoin:miter;stroke:rgb(84.999084%,84.999084%,84.999084%);stroke-opacity:1;stroke-miterlimit:3.25;" d="M 263.113281 186.785156 L 244.90625 163.777344 L 53.175781 315.503906 L 71.382812 338.507812 Z M 263.113281 186.785156 "/>
<path style="fill:none;stroke-width:2;stroke-linecap:square;stroke-linejoin:miter;stroke:rgb(0%,0%,0%);stroke-opacity:1;stroke-miterlimit:3.25;" d="M 263.113281 186.785156 L 244.90625 163.777344 L 53.175781 315.503906 L 71.382812 338.507812 Z M 263.113281 186.785156 "/>
<path style="fill-rule:evenodd;fill:rgb(99.998474%,99.998474%,99.998474%);fill-opacity:1;stroke-width:2;stroke-linecap:square;stroke-linejoin:miter;stroke:rgb(0%,0%,0%);stroke-opacity:1;stroke-miterlimit:3.25;" d="M 276.015625 175.28125 C 276.015625 169.445312 273.695312 163.847656 269.570312 159.71875 C 265.441406 155.59375 259.84375 153.273438 254.007812 153.273438 C 248.171875 153.273438 242.574219 155.59375 238.449219 159.71875 C 234.320312 163.847656 232.003906 169.445312 232.003906 175.28125 C 232.003906 181.117188 234.320312 186.714844 238.449219 190.839844 C 242.574219 194.964844 248.171875 197.285156 254.007812 197.285156 C 259.84375 197.285156 265.441406 194.964844 269.570312 190.839844 C 273.695312 186.714844 276.015625 181.117188 276.015625 175.28125 Z M 276.015625 175.28125 "/>
<path style="fill-rule:evenodd;fill:rgb(99.998474%,99.998474%,99.998474%);fill-opacity:1;stroke-width:2;stroke-linecap:square;stroke-linejoin:miter;stroke:rgb(0%,0%,0%);stroke-opacity:1;stroke-miterlimit:3.25;" d="M 276.015625 175.28125 C 276.015625 169.445312 273.695312 163.847656 269.570312 159.71875 C 265.441406 155.59375 259.84375 153.273438 254.007812 153.273438 C 248.171875 153.273438 242.574219 155.59375 238.449219 159.71875 C 234.320312 163.847656 232.003906 169.445312 232.003906 175.28125 C 232.003906 181.117188 234.320312 186.714844 238.449219 190.839844 C 242.574219 194.964844 248.171875 197.285156 254.007812 197.285156 C 259.84375 197.285156 265.441406 194.964844 269.570312 190.839844 C 273.695312 186.714844 276.015625 181.117188 276.015625 175.28125 Z M 276.015625 175.28125 "/>
<path style=" stroke:none;fill-rule:evenodd;fill:rgb(99.998474%,99.998474%,99.998474%);fill-opacity:1;" d="M 288.652344 493.476562 C 288.652344 478.449219 276.472656 466.269531 261.449219 466.269531 C 246.421875 466.269531 234.246094 478.449219 234.246094 493.476562 C 234.246094 508.5 246.421875 520.679688 261.449219 520.679688 C 276.472656 520.679688 288.652344 508.5 288.652344 493.476562 Z M 288.652344 493.476562 "/>
<g clip-path="url(#clip3)" clip-rule="nonzero">
<path style="fill:none;stroke-width:2.868833;stroke-linecap:square;stroke-linejoin:miter;stroke:rgb(0%,0%,0%);stroke-opacity:1;stroke-miterlimit:10;" d="M 288.652344 493.476562 C 288.652344 478.449219 276.472656 466.269531 261.449219 466.269531 C 246.421875 466.269531 234.246094 478.449219 234.246094 493.476562 C 234.246094 508.5 246.421875 520.679688 261.449219 520.679688 C 276.472656 520.679688 288.652344 508.5 288.652344 493.476562 Z M 288.652344 493.476562 "/>
</g>
<path style=" stroke:none;fill-rule:evenodd;fill:rgb(0%,0%,0%);fill-opacity:1;" d="M 268.550781 507.050781 L 268.550781 505.808594 L 267.21875 505.808594 C 263.445312 505.808594 263.316406 505.292969 263.316406 503.75 L 263.316406 479.550781 C 263.316406 478.558594 263.316406 478.519531 262.460938 478.519531 C 261.425781 479.679688 259.28125 481.265625 254.863281 481.265625 L 254.863281 482.507812 C 255.851562 482.507812 257.996094 482.507812 260.355469 481.394531 L 260.355469 503.75 C 260.355469 505.292969 260.226562 505.808594 256.453125 505.808594 L 255.121094 505.808594 L 255.121094 507.050781 C 256.28125 506.96875 260.441406 506.96875 261.859375 506.96875 C 263.277344 506.96875 267.394531 506.96875 268.550781 507.050781 Z M 268.550781 507.050781 "/>
<path style=" stroke:none;fill-rule:evenodd;fill:rgb(0%,0%,0%);fill-opacity:1;" d="M 200.21875 541.546875 C 200.21875 537.972656 197.328125 535.109375 193.867188 535.109375 C 192.75 535.109375 191.089844 535.398438 189.632812 536.882812 L 189.632812 535.109375 L 185.371094 535.425781 L 185.371094 536.371094 C 187.398438 536.371094 187.546875 536.539062 187.546875 537.742188 L 187.546875 551.042969 C 187.546875 552.332031 187.203125 552.332031 185.371094 552.332031 L 185.371094 553.277344 C 186.601562 553.1875 187.855469 553.1875 188.632812 553.1875 C 189.457031 553.1875 190.660156 553.1875 191.894531 553.277344 L 191.894531 552.332031 C 190.058594 552.332031 189.71875 552.332031 189.71875 551.042969 L 189.71875 546.324219 C 191.0625 547.78125 192.523438 548.011719 193.433594 548.011719 C 197.066406 548.011719 200.21875 545.207031 200.21875 541.546875 Z M 197.667969 541.546875 C 197.667969 544.835938 195.609375 547.207031 193.292969 547.207031 C 192.292969 547.207031 190.976562 546.78125 190.058594 545.351562 C 189.71875 544.863281 189.71875 544.835938 189.71875 544.296875 L 189.71875 538.199219 C 190.375 537.058594 191.804688 536 193.609375 536 C 195.808594 536 197.667969 538.429688 197.667969 541.546875 Z M 197.667969 541.546875 "/>
<path style=" stroke:none;fill-rule:evenodd;fill:rgb(0%,0%,0%);fill-opacity:1;" d="M 215.988281 545.152344 L 215.988281 543.582031 L 215.105469 543.582031 L 215.105469 545.152344 C 215.105469 546.324219 214.671875 546.78125 214.070312 546.78125 C 213.011719 546.78125 213.011719 545.464844 213.011719 545.152344 L 213.011719 539.199219 C 213.011719 536.398438 210.296875 534.96875 207.691406 534.96875 C 205.320312 534.96875 203.203125 535.882812 203.203125 537.773438 C 203.203125 538.632812 203.804688 539.144531 204.546875 539.144531 C 205.347656 539.144531 205.890625 538.570312 205.890625 537.800781 C 205.890625 537.113281 205.464844 536.628906 204.835938 536.484375 C 205.890625 535.769531 207.4375 535.769531 207.636719 535.769531 C 209.238281 535.769531 210.839844 536.882812 210.839844 539.226562 L 210.839844 540.117188 C 209.183594 540.203125 207.265625 540.292969 205.261719 541.117188 C 202.742188 542.203125 202.257812 543.863281 202.257812 544.808594 C 202.257812 547.269531 205.148438 548.011719 207.125 548.011719 C 209.210938 548.011719 210.5 546.835938 211.128906 545.695312 C 211.269531 546.78125 212.011719 547.867188 213.269531 547.867188 C 213.558594 547.867188 215.988281 547.753906 215.988281 545.152344 Z M 210.839844 543.695312 C 210.839844 546.464844 208.496094 547.207031 207.347656 547.207031 C 205.863281 547.207031 204.605469 546.207031 204.605469 544.835938 C 204.605469 542.953125 206.375 541.003906 210.839844 540.859375 Z M 210.839844 543.695312 "/>
<path style=" stroke:none;fill-rule:evenodd;fill:rgb(0%,0%,0%);fill-opacity:1;" d="M 227.359375 544.035156 C 227.359375 542.664062 226.527344 540.664062 223.125 540.03125 C 222.898438 539.976562 221.296875 539.691406 221.179688 539.691406 C 220.296875 539.488281 218.953125 538.886719 218.953125 537.742188 C 218.953125 536.882812 219.582031 535.683594 222.296875 535.683594 C 225.5 535.683594 225.644531 538.03125 225.699219 538.828125 C 225.730469 539.058594 225.929688 539.144531 226.128906 539.144531 C 226.589844 539.144531 226.589844 538.945312 226.589844 538.402344 L 226.589844 535.714844 C 226.589844 535.253906 226.589844 534.96875 226.21875 534.96875 C 226.070312 534.96875 225.988281 534.96875 225.527344 535.425781 C 225.46875 535.453125 225.21875 535.714844 225.128906 535.714844 C 225.128906 535.714844 225.042969 535.714844 224.867188 535.601562 C 224.414062 535.285156 223.585938 534.96875 222.296875 534.96875 C 218.292969 534.96875 217.40625 537.140625 217.40625 538.515625 C 217.40625 539.949219 218.460938 540.773438 218.546875 540.859375 C 219.695312 541.71875 220.351562 541.832031 222.269531 542.175781 C 223.613281 542.433594 225.8125 542.832031 225.8125 544.777344 C 225.8125 545.894531 225.070312 547.207031 222.4375 547.207031 C 219.546875 547.207031 218.722656 544.980469 218.351562 543.464844 C 218.238281 543.09375 218.203125 542.953125 217.859375 542.953125 C 217.40625 542.953125 217.40625 543.175781 217.40625 543.722656 L 217.40625 547.269531 C 217.40625 547.726562 217.40625 548.011719 217.777344 548.011719 C 217.949219 548.011719 217.980469 547.984375 218.492188 547.441406 C 218.636719 547.300781 218.953125 546.929688 219.09375 546.78125 C 220.378906 547.957031 221.722656 548.011719 222.46875 548.011719 C 226.101562 548.011719 227.359375 545.925781 227.359375 544.035156 Z M 227.359375 544.035156 "/>
<path style=" stroke:none;fill-rule:evenodd;fill:rgb(0%,0%,0%);fill-opacity:1;" d="M 239.238281 544.035156 C 239.238281 542.664062 238.40625 540.664062 235.003906 540.03125 C 234.777344 539.976562 233.175781 539.691406 233.058594 539.691406 C 232.175781 539.488281 230.828125 538.886719 230.828125 537.742188 C 230.828125 536.882812 231.460938 535.683594 234.175781 535.683594 C 237.375 535.683594 237.523438 538.03125 237.578125 538.828125 C 237.605469 539.058594 237.808594 539.144531 238.007812 539.144531 C 238.46875 539.144531 238.46875 538.945312 238.46875 538.402344 L 238.46875 535.714844 C 238.46875 535.253906 238.46875 534.96875 238.097656 534.96875 C 237.949219 534.96875 237.867188 534.96875 237.40625 535.425781 C 237.347656 535.453125 237.09375 535.714844 237.003906 535.714844 C 237.003906 535.714844 236.921875 535.714844 236.746094 535.601562 C 236.292969 535.285156 235.464844 534.96875 234.175781 534.96875 C 230.171875 534.96875 229.285156 537.140625 229.285156 538.515625 C 229.285156 539.949219 230.339844 540.773438 230.425781 540.859375 C 231.574219 541.71875 232.230469 541.832031 234.148438 542.175781 C 235.492188 542.433594 237.691406 542.832031 237.691406 544.777344 C 237.691406 545.894531 236.949219 547.207031 234.316406 547.207031 C 231.425781 547.207031 230.601562 544.980469 230.226562 543.464844 C 230.117188 543.09375 230.082031 542.953125 229.738281 542.953125 C 229.285156 542.953125 229.285156 543.175781 229.285156 543.722656 L 229.285156 547.269531 C 229.285156 547.726562 229.285156 548.011719 229.65625 548.011719 C 229.828125 548.011719 229.855469 547.984375 230.367188 547.441406 C 230.515625 547.300781 230.828125 546.929688 230.972656 546.78125 C 232.257812 547.957031 233.601562 548.011719 234.34375 548.011719 C 237.980469 548.011719 239.238281 545.925781 239.238281 544.035156 Z M 239.238281 544.035156 "/>
<path style=" stroke:none;fill-rule:evenodd;fill:rgb(0%,0%,0%);fill-opacity:1;" d="M 247.957031 547.726562 L 247.957031 546.78125 C 246.101562 546.78125 245.980469 546.640625 245.980469 545.523438 L 245.980469 535.109375 L 241.808594 535.425781 L 241.808594 536.371094 C 243.636719 536.371094 243.894531 536.539062 243.894531 537.945312 L 243.894531 545.492188 C 243.894531 546.78125 243.550781 546.78125 241.722656 546.78125 L 241.722656 547.726562 C 242.839844 547.640625 244.441406 547.640625 244.867188 547.640625 C 245.238281 547.640625 246.953125 547.640625 247.957031 547.726562 Z M 246.324219 530.503906 C 246.324219 529.558594 245.582031 528.902344 244.753906 528.902344 C 243.921875 528.902344 243.179688 529.558594 243.179688 530.503906 C 243.179688 531.335938 243.839844 532.078125 244.753906 532.078125 C 245.640625 532.078125 246.324219 531.335938 246.324219 530.503906 Z M 246.324219 530.503906 "/>
<path style=" stroke:none;fill-rule:evenodd;fill:rgb(0%,0%,0%);fill-opacity:1;" d="M 264.1875 536.34375 L 264.1875 535.398438 C 263.1875 535.484375 263.128906 535.484375 261.960938 535.484375 C 261.703125 535.484375 260.355469 535.484375 259.46875 535.398438 L 259.46875 536.34375 C 260.46875 536.398438 260.726562 537.027344 260.726562 537.511719 C 260.726562 537.800781 260.671875 537.945312 260.554688 538.199219 L 257.464844 545.410156 L 254.089844 537.660156 C 253.917969 537.289062 253.917969 537.058594 253.917969 537.058594 C 253.917969 536.34375 254.953125 536.34375 255.4375 536.34375 L 255.4375 535.398438 C 254.203125 535.484375 252.859375 535.484375 252.320312 535.484375 C 251.71875 535.484375 250.347656 535.484375 249.429688 535.398438 L 249.429688 536.34375 C 251.171875 536.34375 251.320312 536.511719 251.746094 537.484375 L 256.039062 547.382812 C 256.234375 547.8125 256.410156 548.011719 256.808594 548.011719 C 257.207031 548.011719 257.410156 547.78125 257.550781 547.441406 L 261.472656 538.34375 C 262.15625 536.742188 263.128906 536.371094 264.1875 536.34375 Z M 264.1875 536.34375 "/>
<path style=" stroke:none;fill-rule:evenodd;fill:rgb(0%,0%,0%);fill-opacity:1;" d="M 276.890625 544.296875 C 276.890625 544.175781 276.808594 543.890625 276.4375 543.890625 C 276.121094 543.890625 276.058594 544.09375 276.003906 544.269531 C 274.972656 547.039062 272.515625 547.125 272 547.125 C 270.710938 547.125 269.394531 546.523438 268.539062 545.207031 C 267.679688 543.890625 267.679688 542.0625 267.679688 541.203125 L 276.09375 541.203125 C 276.71875 541.203125 276.890625 541.203125 276.890625 540.542969 C 276.890625 538.003906 275.492188 534.96875 271.460938 534.96875 C 267.910156 534.96875 265.136719 537.910156 265.136719 541.460938 C 265.136719 545.152344 268.226562 548.011719 271.832031 548.011719 C 275.464844 548.011719 276.890625 544.953125 276.890625 544.296875 Z M 274.945312 540.460938 L 267.707031 540.460938 C 267.964844 536.457031 270.394531 535.769531 271.460938 535.769531 C 274.804688 535.769531 274.917969 539.800781 274.945312 540.460938 Z M 274.945312 540.460938 "/>
<path style=" stroke:none;fill-rule:evenodd;fill:rgb(0%,0%,0%);fill-opacity:1;" d="M 302.765625 536.253906 C 302.765625 535.769531 302.394531 534.796875 301.132812 534.796875 C 300.648438 534.796875 299.277344 534.910156 297.960938 536.113281 C 297.246094 535.601562 296.128906 535.109375 294.78125 535.109375 C 291.953125 535.109375 289.867188 537.085938 289.867188 539.320312 C 289.867188 540.664062 290.609375 541.664062 291.210938 542.230469 C 290.582031 542.953125 290.351562 543.863281 290.351562 544.550781 C 290.351562 545.722656 290.925781 546.613281 291.554688 547.097656 C 290.0625 547.496094 288.894531 548.613281 288.894531 549.929688 C 288.894531 551.988281 291.835938 553.59375 295.617188 553.59375 C 299.191406 553.59375 302.335938 552.128906 302.335938 549.871094 C 302.335938 548.328125 301.417969 547.125 300.476562 546.640625 C 298.789062 545.753906 297.386719 545.753906 294.585938 545.753906 L 292.984375 545.753906 C 292.09375 545.667969 291.378906 544.890625 291.378906 543.863281 C 291.378906 543.175781 291.554688 542.921875 291.75 542.664062 C 292.957031 543.378906 294.070312 543.519531 294.753906 543.519531 C 297.589844 543.519531 299.675781 541.546875 299.675781 539.320312 C 299.675781 538.226562 299.191406 537.316406 298.5 536.566406 C 298.90625 536.226562 299.851562 535.628906 301.25 535.601562 C 301.132812 535.683594 300.992188 535.824219 300.992188 536.285156 C 300.992188 536.796875 301.363281 537.167969 301.878906 537.167969 C 302.28125 537.167969 302.765625 536.910156 302.765625 536.253906 Z M 297.414062 539.320312 C 297.414062 540.375 297.273438 541.117188 296.847656 541.691406 C 296.21875 542.492188 295.300781 542.691406 294.78125 542.691406 C 292.121094 542.691406 292.121094 539.949219 292.121094 539.320312 C 292.121094 538.261719 292.269531 537.511719 292.695312 536.945312 C 293.179688 536.285156 293.984375 535.945312 294.753906 535.945312 C 297.414062 535.945312 297.414062 538.6875 297.414062 539.320312 Z M 300.648438 549.902344 C 300.648438 551.445312 298.445312 552.761719 295.617188 552.761719 C 292.753906 552.761719 290.582031 551.445312 290.582031 549.902344 C 290.582031 549.300781 291.039062 547.613281 293.382812 547.613281 L 296.128906 547.613281 C 296.902344 547.613281 300.648438 547.613281 300.648438 549.902344 Z M 300.648438 549.902344 "/>
<path style=" stroke:none;fill-rule:evenodd;fill:rgb(0%,0%,0%);fill-opacity:1;" d="M 317.855469 545.152344 L 317.855469 543.582031 L 316.96875 543.582031 L 316.96875 545.152344 C 316.96875 546.324219 316.539062 546.78125 315.9375 546.78125 C 314.878906 546.78125 314.878906 545.464844 314.878906 545.152344 L 314.878906 539.199219 C 314.878906 536.398438 312.160156 534.96875 309.558594 534.96875 C 307.183594 534.96875 305.070312 535.882812 305.070312 537.773438 C 305.070312 538.632812 305.671875 539.144531 306.414062 539.144531 C 307.210938 539.144531 307.757812 538.570312 307.757812 537.800781 C 307.757812 537.113281 307.332031 536.628906 306.699219 536.484375 C 307.757812 535.769531 309.304688 535.769531 309.5 535.769531 C 311.105469 535.769531 312.707031 536.882812 312.707031 539.226562 L 312.707031 540.117188 C 311.046875 540.203125 309.128906 540.292969 307.128906 541.117188 C 304.609375 542.203125 304.125 543.863281 304.125 544.808594 C 304.125 547.269531 307.015625 548.011719 308.988281 548.011719 C 311.078125 548.011719 312.363281 546.835938 312.996094 545.695312 C 313.132812 546.78125 313.878906 547.867188 315.136719 547.867188 C 315.425781 547.867188 317.855469 547.753906 317.855469 545.152344 Z M 312.707031 543.695312 C 312.707031 546.464844 310.363281 547.207031 309.214844 547.207031 C 307.730469 547.207031 306.46875 546.207031 306.46875 544.835938 C 306.46875 542.953125 308.242188 541.003906 312.707031 540.859375 Z M 312.707031 543.695312 "/>
<path style=" stroke:none;fill-rule:evenodd;fill:rgb(0%,0%,0%);fill-opacity:1;" d="M 325.703125 547.726562 L 325.703125 546.78125 C 323.847656 546.78125 323.730469 546.640625 323.730469 545.523438 L 323.730469 535.109375 L 319.558594 535.425781 L 319.558594 536.371094 C 321.386719 536.371094 321.644531 536.539062 321.644531 537.945312 L 321.644531 545.492188 C 321.644531 546.78125 321.300781 546.78125 319.472656 546.78125 L 319.472656 547.726562 C 320.585938 547.640625 322.191406 547.640625 322.617188 547.640625 C 322.988281 547.640625 324.703125 547.640625 325.703125 547.726562 Z M 324.074219 530.503906 C 324.074219 529.558594 323.332031 528.902344 322.503906 528.902344 C 321.671875 528.902344 320.929688 529.558594 320.929688 530.503906 C 320.929688 531.335938 321.589844 532.078125 322.503906 532.078125 C 323.386719 532.078125 324.074219 531.335938 324.074219 530.503906 Z M 324.074219 530.503906 "/>
<path style=" stroke:none;fill-rule:evenodd;fill:rgb(0%,0%,0%);fill-opacity:1;" d="M 337.003906 544.148438 L 337.003906 542.546875 L 336.121094 542.546875 L 336.121094 544.09375 C 336.121094 546.066406 335.230469 547.125 334.148438 547.125 C 332.230469 547.125 332.230469 544.667969 332.230469 544.207031 L 332.230469 536.34375 L 336.492188 536.34375 L 336.492188 535.398438 L 332.230469 535.398438 L 332.230469 530.132812 L 331.339844 530.132812 C 331.3125 532.738281 330.140625 535.453125 327.480469 535.539062 L 327.480469 536.34375 L 330.050781 536.34375 L 330.050781 544.148438 C 330.050781 547.496094 332.628906 548.011719 333.945312 548.011719 C 335.863281 548.011719 337.003906 546.296875 337.003906 544.148438 Z M 337.003906 544.148438 "/>
<path style=" stroke:none;fill-rule:evenodd;fill:rgb(0%,0%,0%);fill-opacity:1;" d="M 192.304688 585.488281 C 192.304688 585.375 192.277344 585.347656 191.90625 584.976562 C 187.984375 581.285156 187.011719 575.964844 187.011719 571.527344 C 187.011719 563.292969 190.421875 559.429688 191.875 558.113281 C 192.277344 557.742188 192.304688 557.714844 192.304688 557.570312 C 192.304688 557.429688 192.191406 557.226562 191.90625 557.226562 C 191.449219 557.226562 190.015625 558.6875 189.789062 558.945312 C 185.953125 562.953125 185.15625 568.097656 185.15625 571.527344 C 185.15625 577.941406 187.84375 583.085938 191.734375 585.835938 C 191.960938 585.835938 192.304688 585.835938 192.304688 585.488281 Z M 192.304688 585.488281 "/>
<path style=" stroke:none;fill-rule:evenodd;fill:rgb(0%,0%,0%);fill-opacity:1;" d="M 205.042969 574.992188 C 205.042969 573.621094 204.210938 571.617188 200.808594 570.988281 C 200.582031 570.933594 198.980469 570.644531 198.863281 570.644531 C 197.980469 570.441406 196.636719 569.839844 196.636719 568.699219 C 196.636719 567.839844 197.265625 566.640625 199.980469 566.640625 C 203.179688 566.640625 203.328125 568.984375 203.382812 569.785156 C 203.410156 570.015625 203.613281 570.097656 203.8125 570.097656 C 204.273438 570.097656 204.273438 569.902344 204.273438 569.355469 L 204.273438 566.667969 C 204.273438 566.207031 204.273438 565.925781 203.902344 565.925781 C 203.753906 565.925781 203.671875 565.925781 203.210938 566.382812 C 203.152344 566.410156 202.898438 566.667969 202.808594 566.667969 C 202.808594 566.667969 202.726562 566.667969 202.550781 566.554688 C 202.097656 566.242188 201.269531 565.925781 199.980469 565.925781 C 195.976562 565.925781 195.089844 568.097656 195.089844 569.46875 C 195.089844 570.902344 196.144531 571.730469 196.230469 571.816406 C 197.378906 572.675781 198.035156 572.789062 199.953125 573.132812 C 201.296875 573.390625 203.496094 573.789062 203.496094 575.734375 C 203.496094 576.847656 202.753906 578.164062 200.121094 578.164062 C 197.230469 578.164062 196.402344 575.9375 196.03125 574.417969 C 195.921875 574.046875 195.886719 573.90625 195.542969 573.90625 C 195.089844 573.90625 195.089844 574.132812 195.089844 574.675781 L 195.089844 578.226562 C 195.089844 578.683594 195.089844 578.96875 195.460938 578.96875 C 195.632812 578.96875 195.660156 578.941406 196.171875 578.394531 C 196.320312 578.253906 196.636719 577.882812 196.777344 577.738281 C 198.0625 578.914062 199.40625 578.96875 200.148438 578.96875 C 203.785156 578.96875 205.042969 576.882812 205.042969 574.992188 Z M 205.042969 574.992188 "/>
<path style=" stroke:none;fill-rule:evenodd;fill:rgb(0%,0%,0%);fill-opacity:1;" d="M 218.582031 575.25 C 218.582031 575.132812 218.496094 574.847656 218.125 574.847656 C 217.808594 574.847656 217.746094 575.050781 217.691406 575.222656 C 216.664062 577.996094 214.203125 578.082031 213.6875 578.082031 C 212.398438 578.082031 211.082031 577.480469 210.230469 576.164062 C 209.367188 574.847656 209.367188 573.019531 209.367188 572.15625 L 217.78125 572.15625 C 218.40625 572.15625 218.582031 572.15625 218.582031 571.5 C 218.582031 568.957031 217.179688 565.925781 213.148438 565.925781 C 209.597656 565.925781 206.824219 568.867188 206.824219 572.417969 C 206.824219 576.105469 209.914062 578.96875 213.519531 578.96875 C 217.152344 578.96875 218.582031 575.910156 218.582031 575.25 Z M 216.632812 571.414062 L 209.394531 571.414062 C 209.65625 567.410156 212.085938 566.726562 213.148438 566.726562 C 216.492188 566.726562 216.605469 570.757812 216.632812 571.414062 Z M 216.632812 571.414062 "/>
<path style=" stroke:none;fill-rule:evenodd;fill:rgb(0%,0%,0%);fill-opacity:1;" d="M 232.257812 575.25 C 232.257812 575.132812 232.175781 574.847656 231.804688 574.847656 C 231.488281 574.847656 231.425781 575.050781 231.371094 575.222656 C 230.339844 577.996094 227.882812 578.082031 227.367188 578.082031 C 226.078125 578.082031 224.761719 577.480469 223.90625 576.164062 C 223.046875 574.847656 223.046875 573.019531 223.046875 572.15625 L 231.460938 572.15625 C 232.085938 572.15625 232.257812 572.15625 232.257812 571.5 C 232.257812 568.957031 230.859375 565.925781 226.824219 565.925781 C 223.277344 565.925781 220.503906 568.867188 220.503906 572.417969 C 220.503906 576.105469 223.59375 578.96875 227.195312 578.96875 C 230.828125 578.96875 232.257812 575.910156 232.257812 575.25 Z M 230.3125 571.414062 L 223.074219 571.414062 C 223.332031 567.410156 225.761719 566.726562 226.824219 566.726562 C 230.171875 566.726562 230.285156 570.757812 230.3125 571.414062 Z M 230.3125 571.414062 "/>
<path style=" stroke:none;fill-rule:evenodd;fill:rgb(0%,0%,0%);fill-opacity:1;" d="M 249.171875 578.683594 L 249.171875 577.738281 C 247.226562 577.738281 246.992188 577.539062 246.992188 576.132812 L 246.992188 558.828125 L 242.730469 559.144531 L 242.730469 560.089844 C 244.675781 560.089844 244.90625 560.289062 244.90625 561.691406 L 244.90625 567.726562 C 243.90625 566.640625 242.5625 566.066406 241.070312 566.066406 C 237.5 566.066406 234.324219 568.839844 234.324219 572.527344 C 234.324219 576.050781 237.183594 578.96875 240.785156 578.96875 C 242.476562 578.96875 243.878906 578.164062 244.824219 577.164062 L 244.824219 578.96875 Z M 244.824219 575.132812 C 244.824219 575.652344 244.824219 575.761719 244.390625 576.335938 C 243.589844 577.480469 242.273438 578.164062 240.929688 578.164062 C 239.613281 578.164062 238.46875 577.480469 237.78125 576.421875 C 237.011719 575.308594 236.871094 573.90625 236.871094 572.5625 C 236.871094 570.902344 237.125 569.726562 237.78125 568.726562 C 238.46875 567.667969 239.753906 566.867188 241.21875 566.867188 C 242.589844 566.867188 243.960938 567.558594 244.824219 569.042969 Z M 244.824219 575.132812 "/>
<path style=" stroke:none;fill-rule:evenodd;fill:rgb(0%,0%,0%);fill-opacity:1;" d="M 275.707031 567.296875 L 275.707031 566.355469 C 274.703125 566.4375 274.648438 566.4375 273.480469 566.4375 C 273.21875 566.4375 271.875 566.4375 270.988281 566.355469 L 270.988281 567.296875 C 271.988281 567.355469 272.246094 567.984375 272.246094 568.46875 C 272.246094 568.753906 272.191406 568.902344 272.074219 569.15625 L 268.984375 576.363281 L 265.609375 568.613281 C 265.4375 568.242188 265.4375 568.011719 265.4375 568.011719 C 265.4375 567.296875 266.472656 567.296875 266.953125 567.296875 L 266.953125 566.355469 C 265.722656 566.4375 264.378906 566.4375 263.839844 566.4375 C 263.238281 566.4375 261.863281 566.4375 260.949219 566.355469 L 260.949219 567.296875 C 262.691406 567.296875 262.835938 567.46875 263.265625 568.441406 L 267.554688 578.339844 C 267.753906 578.765625 267.925781 578.96875 268.328125 578.96875 C 268.726562 578.96875 268.929688 578.738281 269.070312 578.394531 L 272.988281 569.300781 C 273.675781 567.699219 274.648438 567.328125 275.707031 567.296875 Z M 275.707031 567.296875 "/>
<path style=" stroke:none;fill-rule:evenodd;fill:rgb(0%,0%,0%);fill-opacity:1;" d="M 289.417969 576.105469 L 289.417969 574.535156 L 288.535156 574.535156 L 288.535156 576.105469 C 288.535156 577.28125 288.101562 577.738281 287.5 577.738281 C 286.441406 577.738281 286.441406 576.421875 286.441406 576.105469 L 286.441406 570.15625 C 286.441406 567.355469 283.726562 565.925781 281.121094 565.925781 C 278.75 565.925781 276.632812 566.835938 276.632812 568.726562 C 276.632812 569.585938 277.234375 570.097656 277.976562 570.097656 C 278.777344 570.097656 279.320312 569.527344 279.320312 568.753906 C 279.320312 568.070312 278.894531 567.585938 278.265625 567.4375 C 279.320312 566.726562 280.867188 566.726562 281.066406 566.726562 C 282.667969 566.726562 284.269531 567.839844 284.269531 570.183594 L 284.269531 571.074219 C 282.613281 571.15625 280.695312 571.246094 278.691406 572.074219 C 276.171875 573.160156 275.6875 574.816406 275.6875 575.761719 C 275.6875 578.226562 278.578125 578.96875 280.554688 578.96875 C 282.640625 578.96875 283.929688 577.792969 284.558594 576.652344 C 284.699219 577.738281 285.441406 578.824219 286.699219 578.824219 C 286.988281 578.824219 289.417969 578.710938 289.417969 576.105469 Z M 284.269531 574.648438 C 284.269531 577.421875 281.925781 578.164062 280.777344 578.164062 C 279.292969 578.164062 278.035156 577.164062 278.035156 575.792969 C 278.035156 573.90625 279.804688 571.960938 284.269531 571.816406 Z M 284.269531 574.648438 "/>
<path style=" stroke:none;fill-rule:evenodd;fill:rgb(0%,0%,0%);fill-opacity:1;" d="M 297.472656 578.683594 L 297.472656 577.738281 C 295.636719 577.738281 295.292969 577.738281 295.292969 576.449219 L 295.292969 558.828125 L 291.039062 559.144531 L 291.039062 560.089844 C 292.976562 560.089844 293.207031 560.289062 293.207031 561.691406 L 293.207031 576.449219 C 293.207031 577.738281 292.863281 577.738281 291.039062 577.738281 L 291.039062 578.683594 C 292.152344 578.597656 293.753906 578.597656 294.238281 578.597656 C 294.8125 578.597656 296.359375 578.597656 297.472656 578.683594 Z M 297.472656 578.683594 "/>
<path style=" stroke:none;fill-rule:evenodd;fill:rgb(0%,0%,0%);fill-opacity:1;" d="M 314.546875 578.683594 L 314.546875 577.738281 C 312.605469 577.738281 312.375 577.539062 312.375 576.132812 L 312.375 566.066406 L 308.027344 566.382812 L 308.027344 567.328125 C 309.972656 567.328125 310.199219 567.523438 310.199219 568.929688 L 310.199219 573.90625 C 310.199219 576.363281 308.714844 578.164062 306.566406 578.164062 C 304.109375 578.164062 303.996094 576.9375 303.996094 575.503906 L 303.996094 566.066406 L 299.648438 566.382812 L 299.648438 567.328125 C 301.820312 567.328125 301.820312 567.410156 301.820312 569.957031 L 301.820312 574.25 C 301.820312 576.308594 301.820312 578.96875 306.398438 578.96875 C 309.085938 578.96875 310.113281 576.910156 310.253906 576.652344 L 310.289062 576.652344 L 310.289062 578.96875 Z M 314.546875 578.683594 "/>
<path style=" stroke:none;fill-rule:evenodd;fill:rgb(0%,0%,0%);fill-opacity:1;" d="M 328.003906 575.25 C 328.003906 575.132812 327.921875 574.847656 327.550781 574.847656 C 327.234375 574.847656 327.171875 575.050781 327.117188 575.222656 C 326.085938 577.996094 323.628906 578.082031 323.113281 578.082031 C 321.824219 578.082031 320.507812 577.480469 319.652344 576.164062 C 318.792969 574.847656 318.792969 573.019531 318.792969 572.15625 L 327.207031 572.15625 C 327.832031 572.15625 328.003906 572.15625 328.003906 571.5 C 328.003906 568.957031 326.605469 565.925781 322.570312 565.925781 C 319.023438 565.925781 316.25 568.867188 316.25 572.417969 C 316.25 576.105469 319.339844 578.96875 322.941406 578.96875 C 326.578125 578.96875 328.003906 575.910156 328.003906 575.25 Z M 326.058594 571.414062 L 318.820312 571.414062 C 319.078125 567.410156 321.507812 566.726562 322.570312 566.726562 C 325.917969 566.726562 326.03125 570.757812 326.058594 571.414062 Z M 326.058594 571.414062 "/>
<path style=" stroke:none;fill-rule:evenodd;fill:rgb(0%,0%,0%);fill-opacity:1;" d="M 337.550781 571.527344 C 337.550781 568.8125 337.089844 565.550781 335.316406 562.175781 C 333.917969 559.542969 331.3125 557.226562 330.792969 557.226562 C 330.507812 557.226562 330.421875 557.429688 330.421875 557.570312 C 330.421875 557.6875 330.421875 557.742188 330.765625 558.085938 C 334.769531 561.886719 335.6875 567.125 335.6875 571.527344 C 335.6875 579.738281 332.285156 583.632812 330.824219 584.949219 C 330.453125 585.320312 330.421875 585.347656 330.421875 585.488281 C 330.421875 585.632812 330.507812 585.835938 330.792969 585.835938 C 331.257812 585.835938 332.683594 584.375 332.914062 584.113281 C 336.746094 580.109375 337.550781 574.964844 337.550781 571.527344 Z M 337.550781 571.527344 "/>
<g clip-path="url(#clip4)" clip-rule="nonzero">
<path style="fill:none;stroke-width:1;stroke-linecap:square;stroke-linejoin:miter;stroke:rgb(0%,0%,0%);stroke-opacity:1;stroke-miterlimit:3.25;" d="M 525.800781 419.761719 L 1041.800781 419.761719 "/>
</g>
<g clip-path="url(#clip5)" clip-rule="nonzero">
<path style="fill:none;stroke-width:1;stroke-linecap:square;stroke-linejoin:miter;stroke:rgb(0%,0%,0%);stroke-opacity:1;stroke-miterlimit:3.25;" d="M 525.800781 299.828125 L 1041.800781 539.699219 "/>
</g>
<path style="fill-rule:nonzero;fill:rgb(50%,50%,50%);fill-opacity:1;stroke-width:1;stroke-linecap:square;stroke-linejoin:miter;stroke:rgb(50%,50%,50%);stroke-opacity:1;stroke-miterlimit:3.25;" d="M 853.519531 184.953125 L 824.945312 178.300781 L 769.511719 416.4375 L 798.089844 423.089844 Z M 853.519531 184.953125 "/>
<path style="fill:none;stroke-width:2;stroke-linecap:square;stroke-linejoin:miter;stroke:rgb(0%,0%,0%);stroke-opacity:1;stroke-miterlimit:3.25;" d="M 853.519531 184.953125 L 824.945312 178.300781 L 769.511719 416.4375 L 798.089844 423.089844 Z M 853.519531 184.953125 "/>
<path style="fill-rule:nonzero;fill:rgb(84.999084%,84.999084%,84.999084%);fill-opacity:1;stroke-width:2;stroke-linecap:square;stroke-linejoin:miter;stroke:rgb(84.999084%,84.999084%,84.999084%);stroke-opacity:1;stroke-miterlimit:3.25;" d="M 850.804688 190.640625 L 827.65625 172.613281 L 677.429688 365.519531 L 700.578125 383.546875 Z M 850.804688 190.640625 "/>
<path style="fill:none;stroke-width:2;stroke-linecap:square;stroke-linejoin:miter;stroke:rgb(0%,0%,0%);stroke-opacity:1;stroke-miterlimit:3.25;" d="M 850.804688 190.640625 L 827.65625 172.613281 L 677.429688 365.519531 L 700.578125 383.546875 Z M 850.804688 190.640625 "/>
<path style="fill-rule:evenodd;fill:rgb(99.998474%,99.998474%,99.998474%);fill-opacity:1;stroke-width:2;stroke-linecap:square;stroke-linejoin:miter;stroke:rgb(0%,0%,0%);stroke-opacity:1;stroke-miterlimit:3.25;" d="M 861.238281 181.628906 C 861.238281 175.792969 858.917969 170.195312 854.792969 166.066406 C 850.664062 161.941406 845.066406 159.621094 839.230469 159.621094 C 833.394531 159.621094 827.796875 161.941406 823.671875 166.066406 C 819.542969 170.195312 817.226562 175.792969 817.226562 181.628906 C 817.226562 187.464844 819.542969 193.0625 823.671875 197.1875 C 827.796875 201.316406 833.394531 203.632812 839.230469 203.632812 C 845.066406 203.632812 850.664062 201.316406 854.792969 197.1875 C 858.917969 193.0625 861.238281 187.464844 861.238281 181.628906 Z M 861.238281 181.628906 "/>
<path style="fill-rule:evenodd;fill:rgb(99.998474%,99.998474%,99.998474%);fill-opacity:1;stroke-width:2;stroke-linecap:square;stroke-linejoin:miter;stroke:rgb(0%,0%,0%);stroke-opacity:1;stroke-miterlimit:3.25;" d="M 861.238281 181.628906 C 861.238281 175.792969 858.917969 170.195312 854.792969 166.066406 C 850.664062 161.941406 845.066406 159.621094 839.230469 159.621094 C 833.394531 159.621094 827.796875 161.941406 823.671875 166.066406 C 819.542969 170.195312 817.226562 175.792969 817.226562 181.628906 C 817.226562 187.464844 819.542969 193.0625 823.671875 197.1875 C 827.796875 201.316406 833.394531 203.632812 839.230469 203.632812 C 845.066406 203.632812 850.664062 201.316406 854.792969 197.1875 C 858.917969 193.0625 861.238281 187.464844 861.238281 181.628906 Z M 861.238281 181.628906 "/>
<g clip-path="url(#clip6)" clip-rule="nonzero">
<path style="fill:none;stroke-width:1;stroke-linecap:square;stroke-linejoin:miter;stroke:rgb(0%,0%,0%);stroke-opacity:1;stroke-miterlimit:3.25;" d="M 1048 419.761719 L 1564 419.761719 "/>
</g>
<g clip-path="url(#clip7)" clip-rule="nonzero">
<path style="fill:none;stroke-width:1;stroke-linecap:square;stroke-linejoin:miter;stroke:rgb(0%,0%,0%);stroke-opacity:1;stroke-miterlimit:3.25;" d="M 1048 299.828125 L 1564 539.699219 "/>
</g>
<path style="fill-rule:nonzero;fill:rgb(50%,50%,50%);fill-opacity:1;stroke-width:1;stroke-linecap:square;stroke-linejoin:miter;stroke:rgb(50%,50%,50%);stroke-opacity:1;stroke-miterlimit:3.25;" d="M 1438.742188 213.910156 L 1413.175781 199.515625 L 1293.21875 412.566406 L 1318.78125 426.960938 Z M 1438.742188 213.910156 "/>
<path style="fill:none;stroke-width:2;stroke-linecap:square;stroke-linejoin:miter;stroke:rgb(0%,0%,0%);stroke-opacity:1;stroke-miterlimit:3.25;" d="M 1438.742188 213.910156 L 1413.175781 199.515625 L 1293.21875 412.566406 L 1318.78125 426.960938 Z M 1438.742188 213.910156 "/>
<path style="fill-rule:nonzero;fill:rgb(84.999084%,84.999084%,84.999084%);fill-opacity:1;stroke-width:2;stroke-linecap:square;stroke-linejoin:miter;stroke:rgb(84.999084%,84.999084%,84.999084%);stroke-opacity:1;stroke-miterlimit:3.25;" d="M 1439.957031 211.101562 L 1411.960938 202.324219 L 1338.816406 435.625 L 1366.8125 444.402344 Z M 1439.957031 211.101562 "/>
<path style="fill:none;stroke-width:2;stroke-linecap:square;stroke-linejoin:miter;stroke:rgb(0%,0%,0%);stroke-opacity:1;stroke-miterlimit:3.25;" d="M 1439.957031 211.101562 L 1411.960938 202.324219 L 1338.816406 435.625 L 1366.8125 444.402344 Z M 1439.957031 211.101562 "/>
<path style="fill-rule:evenodd;fill:rgb(99.998474%,99.998474%,99.998474%);fill-opacity:1;stroke-width:2;stroke-linecap:square;stroke-linejoin:miter;stroke:rgb(0%,0%,0%);stroke-opacity:1;stroke-miterlimit:3.25;" d="M 1447.964844 206.710938 C 1447.964844 200.875 1445.644531 195.277344 1441.519531 191.152344 C 1437.390625 187.023438 1431.792969 184.707031 1425.957031 184.707031 C 1420.121094 184.707031 1414.523438 187.023438 1410.398438 191.152344 C 1406.273438 195.277344 1403.953125 200.875 1403.953125 206.710938 C 1403.953125 212.546875 1406.273438 218.144531 1410.398438 222.273438 C 1414.523438 226.398438 1420.121094 228.714844 1425.957031 228.714844 C 1431.792969 228.714844 1437.390625 226.398438 1441.519531 222.273438 C 1445.644531 218.144531 1447.964844 212.546875 1447.964844 206.710938 Z M 1447.964844 206.710938 "/>
<path style="fill-rule:evenodd;fill:rgb(99.998474%,99.998474%,99.998474%);fill-opacity:1;stroke-width:2;stroke-linecap:square;stroke-linejoin:miter;stroke:rgb(0%,0%,0%);stroke-opacity:1;stroke-miterlimit:3.25;" d="M 1447.964844 206.710938 C 1447.964844 200.875 1445.644531 195.277344 1441.519531 191.152344 C 1437.390625 187.023438 1431.792969 184.707031 1425.957031 184.707031 C 1420.121094 184.707031 1414.523438 187.023438 1410.398438 191.152344 C 1406.273438 195.277344 1403.953125 200.875 1403.953125 206.710938 C 1403.953125 212.546875 1406.273438 218.144531 1410.398438 222.273438 C 1414.523438 226.398438 1420.121094 228.714844 1425.957031 228.714844 C 1431.792969 228.714844 1437.390625 226.398438 1441.519531 222.273438 C 1445.644531 218.144531 1447.964844 212.546875 1447.964844 206.710938 Z M 1447.964844 206.710938 "/>
<g clip-path="url(#clip8)" clip-rule="nonzero">
<path style="fill:none;stroke-width:1;stroke-linecap:square;stroke-linejoin:miter;stroke:rgb(0%,0%,0%);stroke-opacity:1;stroke-miterlimit:3.25;" d="M 1570.199219 419.761719 L 2086.199219 419.761719 "/>
</g>
<g clip-path="url(#clip9)" clip-rule="nonzero">
<path style="fill:none;stroke-width:1;stroke-linecap:square;stroke-linejoin:miter;stroke:rgb(0%,0%,0%);stroke-opacity:1;stroke-miterlimit:3.25;" d="M 1570.199219 299.828125 L 2086.199219 539.699219 "/>
</g>
<path style="fill-rule:nonzero;fill:rgb(50%,50%,50%);fill-opacity:1;stroke-width:1;stroke-linecap:square;stroke-linejoin:miter;stroke:rgb(50%,50%,50%);stroke-opacity:1;stroke-miterlimit:3.25;" d="M 2029.03125 279.539062 L 2010.824219 256.53125 L 1819.097656 408.257812 L 1837.304688 431.265625 Z M 2029.03125 279.539062 "/>
<path style="fill:none;stroke-width:2;stroke-linecap:square;stroke-linejoin:miter;stroke:rgb(0%,0%,0%);stroke-opacity:1;stroke-miterlimit:3.25;" d="M 2029.03125 279.539062 L 2010.824219 256.53125 L 1819.097656 408.257812 L 1837.304688 431.265625 Z M 2029.03125 279.539062 "/>
<path style="fill-rule:nonzero;fill:rgb(84.999084%,84.999084%,84.999084%);fill-opacity:1;stroke-width:2;stroke-linecap:square;stroke-linejoin:miter;stroke:rgb(84.999084%,84.999084%,84.999084%);stroke-opacity:1;stroke-miterlimit:3.25;" d="M 2034.589844 267.582031 L 2005.265625 268.492188 L 2012.855469 512.875 L 2042.183594 511.964844 Z M 2034.589844 267.582031 "/>
<path style="fill:none;stroke-width:2;stroke-linecap:square;stroke-linejoin:miter;stroke:rgb(0%,0%,0%);stroke-opacity:1;stroke-miterlimit:3.25;" d="M 2034.589844 267.582031 L 2005.265625 268.492188 L 2012.855469 512.875 L 2042.183594 511.964844 Z M 2034.589844 267.582031 "/>
<path style="fill-rule:evenodd;fill:rgb(99.998474%,99.998474%,99.998474%);fill-opacity:1;stroke-width:2;stroke-linecap:square;stroke-linejoin:miter;stroke:rgb(0%,0%,0%);stroke-opacity:1;stroke-miterlimit:3.25;" d="M 2041.933594 268.035156 C 2041.933594 262.199219 2039.617188 256.601562 2035.488281 252.476562 C 2031.363281 248.351562 2025.765625 246.03125 2019.929688 246.03125 C 2014.09375 246.03125 2008.496094 248.351562 2004.367188 252.476562 C 2000.242188 256.601562 1997.921875 262.199219 1997.921875 268.035156 C 1997.921875 273.871094 2000.242188 279.46875 2004.367188 283.597656 C 2008.496094 287.722656 2014.09375 290.042969 2019.929688 290.042969 C 2025.765625 290.042969 2031.363281 287.722656 2035.488281 283.597656 C 2039.617188 279.46875 2041.933594 273.871094 2041.933594 268.035156 Z M 2041.933594 268.035156 "/>
<path style="fill-rule:evenodd;fill:rgb(99.998474%,99.998474%,99.998474%);fill-opacity:1;stroke-width:2;stroke-linecap:square;stroke-linejoin:miter;stroke:rgb(0%,0%,0%);stroke-opacity:1;stroke-miterlimit:3.25;" d="M 2041.933594 268.035156 C 2041.933594 262.199219 2039.617188 256.601562 2035.488281 252.476562 C 2031.363281 248.351562 2025.765625 246.03125 2019.929688 246.03125 C 2014.09375 246.03125 2008.496094 248.351562 2004.367188 252.476562 C 2000.242188 256.601562 1997.921875 262.199219 1997.921875 268.035156 C 1997.921875 273.871094 2000.242188 279.46875 2004.367188 283.597656 C 2008.496094 287.722656 2014.09375 290.042969 2019.929688 290.042969 C 2025.765625 290.042969 2031.363281 287.722656 2035.488281 283.597656 C 2039.617188 279.46875 2041.933594 273.871094 2041.933594 268.035156 Z M 2041.933594 268.035156 "/>
<path style=" stroke:none;fill-rule:nonzero;fill:rgb(0%,0%,0%);fill-opacity:1;" d="M 0 1 L 2089.800781 1 L 2089.800781 3 L 0 3 Z M 0 1 "/>
<path style=" stroke:none;fill-rule:nonzero;fill:rgb(50%,50%,50%);fill-opacity:1;" d="M 1 90.199219 L 2088.800781 90.199219 L 2088.800781 91.199219 L 1 91.199219 Z M 1 90.199219 "/>
<path style=" stroke:none;fill-rule:nonzero;fill:rgb(0%,0%,0%);fill-opacity:1;" d="M 0 597.398438 L 2089.800781 597.398438 L 2089.800781 599.398438 L 0 599.398438 Z M 0 597.398438 "/>
<path style=" stroke:none;fill-rule:nonzero;fill:rgb(0%,0%,0%);fill-opacity:1;" d="M 1 3 L 1 597.398438 L 0 597.398438 L 0 3 Z M 1 3 "/>
<path style=" stroke:none;fill-rule:nonzero;fill:rgb(0%,0%,0%);fill-opacity:1;" d="M 523.199219 3 L 523.199219 597.398438 L 522.199219 597.398438 L 522.199219 3 Z M 523.199219 3 "/>
<path style=" stroke:none;fill-rule:nonzero;fill:rgb(0%,0%,0%);fill-opacity:1;" d="M 1045.398438 3 L 1045.398438 597.398438 L 1044.398438 597.398438 L 1044.398438 3 Z M 1045.398438 3 "/>
<path style=" stroke:none;fill-rule:nonzero;fill:rgb(0%,0%,0%);fill-opacity:1;" d="M 1567.601562 3 L 1567.601562 597.398438 L 1566.601562 597.398438 L 1566.601562 3 Z M 1567.601562 3 "/>
<path style=" stroke:none;fill-rule:nonzero;fill:rgb(0%,0%,0%);fill-opacity:1;" d="M 2089.800781 3 L 2089.800781 597.398438 L 2088.800781 597.398438 L 2088.800781 3 Z M 2089.800781 3 "/>
</g>
</svg>
