<?xml version="1.0" encoding="UTF-8"?>
<svg xmlns="http://www.w3.org/2000/svg" xmlns:xlink="http://www.w3.org/1999/xlink" width="2090pt" height="601pt" viewBox="0 0 2090 601" version="1.1">
<defs>
<clipPath id="clip1">
  <path d="M 3.601562 333 L 519.601562 333 L 519.601562 335 L 3.601562 335 Z M 3.601562 333 "/>
</clipPath>
<clipPath id="clip2">
  <path d="M 3.601562 198 L 519.601562 198 L 519.601562 469 L 3.601562 469 Z M 3.601562 198 "/>
</clipPath>
<clipPath id="clip3">
  <path d="M 193 493.441406 L 330 493.441406 L 330 593.761719 L 193 593.761719 Z M 193 493.441406 "/>
</clipPath>
<clipPath id="clip4">
  <path d="M 525.601562 333 L 1041.601562 333 L 1041.601562 335 L 525.601562 335 Z M 525.601562 333 "/>
</clipPath>
<clipPath id="clip5">
  <path d="M 525.601562 199 L 1041.601562 199 L 1041.601562 469 L 525.601562 469 Z M 525.601562 199 "/>
</clipPath>
<clipPath id="clip6">
  <path d="M 1047.839844 333 L 1563.839844 333 L 1563.839844 335 L 1047.839844 335 Z M 1047.839844 333 "/>
</clipPath>
<clipPath id="clip7">
  <path d="M 1047.839844 199 L 1563.839844 199 L 1563.839844 469 L 1047.839844 469 Z M 1047.839844 199 "/>
</clipPath>
<clipPath id="clip8">
  <path d="M 1570.078125 333 L 2086.078125 333 L 2086.078125 335 L 1570.078125 335 Z M 1570.078125 333 "/>
</clipPath>
<clipPath id="clip9">
  <path d="M 1570.078125 199 L 2086.078125 199 L 2086.078125 469 L 1570.078125 469 Z M 1570.078125 199 "/>
</clipPath>
</defs>
<g id="surface6">
<path style=" stroke:none;fill-rule:evenodd;fill:rgb(0%,0%,0%);fill-opacity:1;" d="M 186.972656 52.273438 C 186.972656 51.914062 186.738281 51.734375 186.378906 51.734375 C 186.378906 51.734375 186.019531 51.734375 185.902344 51.976562 C 185.902344 51.976562 185.785156 52.09375 185.363281 53.046875 C 184.113281 56.03125 181.375 60.203125 177.921875 60.203125 C 176.132812 60.203125 176.007812 58.710938 176.007812 57.398438 C 176.007812 57.398438 176.007812 56.210938 176.1875 55.492188 L 180.835938 36.835938 L 186.316406 36.835938 C 187.449219 36.835938 188.050781 36.835938 188.050781 35.765625 C 188.050781 35.109375 187.691406 35.109375 186.496094 35.109375 L 181.257812 35.109375 L 183.460938 26.40625 C 183.703125 25.574219 183.703125 25.453125 183.703125 25.039062 C 183.703125 24.078125 182.921875 23.550781 182.148438 23.550781 C 181.671875 23.550781 180.304688 23.726562 179.828125 25.636719 L 177.5 35.109375 L 171.898438 35.109375 C 170.710938 35.109375 170.171875 35.109375 170.171875 36.242188 C 170.171875 36.835938 170.585938 36.835938 171.71875 36.835938 L 177.023438 36.835938 L 173.09375 52.570312 C 172.617188 54.65625 172.4375 55.25 172.4375 56.03125 C 172.4375 58.828125 174.40625 61.390625 177.742188 61.390625 C 183.757812 61.390625 186.972656 52.6875 186.972656 52.273438 Z M 186.972656 52.273438 "/>
<path style=" stroke:none;fill-rule:evenodd;fill:rgb(0%,0%,0%);fill-opacity:1;" d="M 248.492188 40.414062 C 248.492188 39.28125 247.476562 39.28125 246.585938 39.28125 L 211.480469 39.28125 C 210.644531 39.28125 209.574219 39.28125 209.574219 40.351562 C 209.574219 41.484375 210.589844 41.484375 211.480469 41.484375 L 246.585938 41.484375 C 247.414062 41.484375 248.492188 41.484375 248.492188 40.414062 Z M 248.492188 51.5 C 248.492188 50.367188 247.476562 50.367188 246.585938 50.367188 L 211.480469 50.367188 C 210.644531 50.367188 209.574219 50.367188 209.574219 51.4375 C 209.574219 52.570312 210.589844 52.570312 211.480469 52.570312 L 246.585938 52.570312 C 247.414062 52.570312 248.492188 52.570312 248.492188 51.5 Z M 248.492188 51.5 "/>
<path style=" stroke:none;fill-rule:evenodd;fill:rgb(0%,0%,0%);fill-opacity:1;" d="M 295.550781 41.726562 C 295.550781 36.773438 295.253906 31.953125 293.105469 27.421875 C 290.660156 22.472656 286.371094 21.167969 283.449219 21.167969 C 279.996094 21.167969 275.761719 22.890625 273.558594 27.835938 C 271.886719 31.59375 271.292969 35.289062 271.292969 41.726562 C 271.292969 47.507812 271.707031 51.859375 273.855469 56.085938 C 276.175781 60.617188 280.292969 62.046875 283.386719 62.046875 C 288.574219 62.046875 291.558594 58.945312 293.285156 55.492188 C 295.433594 51.023438 295.550781 45.179688 295.550781 41.726562 Z M 291.019531 41.007812 C 291.019531 45 291.019531 49.53125 290.363281 53.164062 C 289.230469 59.726562 285.480469 60.859375 283.386719 60.859375 C 281.480469 60.859375 277.605469 59.78125 276.480469 53.289062 C 275.824219 49.710938 275.824219 45.179688 275.824219 41.007812 C 275.824219 36.125 275.824219 31.710938 276.777344 28.195312 C 277.785156 24.203125 280.824219 22.355469 283.386719 22.355469 C 285.652344 22.355469 289.113281 23.726562 290.246094 28.851562 C 291.019531 32.25 291.019531 36.953125 291.019531 41.007812 Z M 291.019531 41.007812 "/>
<path style=" stroke:none;fill-rule:evenodd;fill:rgb(0%,0%,0%);fill-opacity:1;" d="M 327.273438 53.40625 L 327.273438 50.007812 L 325.960938 50.007812 L 325.960938 53.289062 C 325.960938 57.578125 324.234375 60.078125 321.90625 60.078125 C 317.859375 60.078125 317.859375 54.539062 317.859375 53.523438 L 317.859375 36.835938 L 326.257812 36.835938 L 326.257812 35.109375 L 317.859375 35.109375 L 317.859375 24.140625 L 316.546875 24.140625 C 316.484375 29.742188 314.34375 35.46875 308.914062 35.648438 L 308.914062 36.835938 L 313.984375 36.835938 L 313.984375 53.40625 C 313.984375 60.023438 318.390625 61.390625 321.554688 61.390625 C 325.304688 61.390625 327.273438 57.695312 327.273438 53.40625 Z M 327.273438 53.40625 "/>
<path style=" stroke:none;fill-rule:evenodd;fill:rgb(0%,0%,0%);fill-opacity:1;" d="M 350.269531 57.125 C 350.269531 52.867188 349.832031 50.289062 348.519531 47.742188 C 346.78125 44.25 343.5625 43.375 341.375 43.375 C 336.367188 43.375 334.539062 47.109375 333.984375 48.21875 C 332.554688 51.125 332.476562 55.054688 332.476562 57.125 C 332.476562 59.742188 332.59375 63.757812 334.5 66.933594 C 336.328125 69.871094 339.265625 70.628906 341.375 70.628906 C 343.28125 70.628906 346.691406 70.035156 348.6875 66.097656 C 350.152344 63.242188 350.269531 59.703125 350.269531 57.125 Z M 346.730469 56.648438 C 346.730469 58.992188 346.730469 62.5625 346.257812 64.789062 C 345.429688 68.957031 342.6875 69.511719 341.375 69.511719 C 340.023438 69.511719 337.28125 68.878906 336.445312 64.710938 C 336.007812 62.445312 336.007812 58.710938 336.007812 56.648438 C 336.007812 53.90625 336.007812 51.125 336.445312 48.9375 C 337.28125 44.882812 340.382812 44.484375 341.375 44.484375 C 342.726562 44.484375 345.46875 45.164062 346.257812 48.773438 C 346.730469 50.960938 346.730469 53.945312 346.730469 56.648438 Z M 346.730469 56.648438 "/>
<path style=" stroke:none;fill-rule:evenodd;fill:rgb(0%,0%,0%);fill-opacity:1;" d="M 715.683594 41.726562 C 715.683594 36.773438 715.386719 31.953125 713.238281 27.421875 C 710.792969 22.46875 706.503906 21.164062 703.582031 21.164062 C 700.128906 21.164062 695.894531 22.890625 693.691406 27.835938 C 692.019531 31.59375 691.425781 35.289062 691.425781 41.726562 C 691.425781 47.507812 691.839844 51.859375 693.988281 56.085938 C 696.308594 60.617188 700.425781 62.046875 703.519531 62.046875 C 708.707031 62.046875 711.691406 58.945312 713.417969 55.492188 C 715.566406 51.023438 715.683594 45.179688 715.683594 41.726562 Z M 711.152344 41.007812 C 711.152344 45 711.152344 49.53125 710.496094 53.164062 C 709.363281 59.726562 705.613281 60.859375 703.519531 60.859375 C 701.613281 60.859375 697.738281 59.78125 696.613281 53.289062 C 695.957031 49.710938 695.957031 45.179688 695.957031 41.007812 C 695.957031 36.125 695.957031 31.710938 696.910156 28.195312 C 697.917969 24.203125 700.957031 22.351562 703.519531 22.351562 C 705.785156 22.351562 709.246094 23.726562 710.378906 28.851562 C 711.152344 32.25 711.152344 36.953125 711.152344 41.007812 Z M 711.152344 41.007812 "/>
<path style=" stroke:none;fill-rule:evenodd;fill:rgb(0%,0%,0%);fill-opacity:1;" d="M 728.949219 57.9375 C 728.949219 56.210938 727.519531 55.015625 726.089844 55.015625 C 724.355469 55.015625 723.167969 56.445312 723.167969 57.875 C 723.167969 59.601562 724.597656 60.796875 726.027344 60.796875 C 727.753906 60.796875 728.949219 59.367188 728.949219 57.9375 Z M 728.949219 57.9375 "/>
<path style=" stroke:none;fill-rule:evenodd;fill:rgb(0%,0%,0%);fill-opacity:1;" d="M 762.789062 23.78125 L 762.789062 22.414062 L 748.421875 22.414062 C 741.210938 22.414062 741.09375 21.640625 740.851562 20.511719 L 739.539062 20.511719 L 737.699219 32.429688 L 739.011719 32.429688 C 739.191406 31.351562 739.71875 27.65625 740.5 27 C 740.976562 26.648438 745.445312 26.648438 746.28125 26.648438 L 758.914062 26.648438 L 752.59375 35.703125 C 750.984375 38.03125 744.96875 47.804688 744.96875 59.007812 C 744.96875 59.664062 744.96875 62.046875 747.414062 62.046875 C 749.914062 62.046875 749.914062 59.726562 749.914062 58.945312 L 749.914062 55.96875 C 749.914062 47.085938 751.34375 40.171875 754.148438 36.179688 Z M 762.789062 23.78125 "/>
<path style=" stroke:none;fill-rule:evenodd;fill:rgb(0%,0%,0%);fill-opacity:1;" d="M 790.675781 50.90625 C 790.675781 44.820312 786.390625 42.140625 781.734375 39.28125 C 784.71875 37.671875 789.070312 34.929688 789.070312 29.921875 C 789.070312 24.734375 784.0625 21.164062 778.578125 21.164062 C 772.679688 21.164062 768.03125 25.515625 768.03125 30.9375 C 768.03125 32.960938 768.625 34.992188 770.296875 37.015625 C 770.953125 37.789062 771.007812 37.851562 775.179688 40.773438 C 769.398438 43.453125 766.421875 47.445312 766.421875 51.796875 C 766.421875 58.117188 772.4375 62.046875 778.515625 62.046875 C 785.132812 62.046875 790.675781 57.164062 790.675781 50.90625 Z M 786.625 29.984375 C 786.625 33.617188 784 36.539062 780.546875 38.445312 L 773.632812 33.914062 C 772.859375 33.382812 770.476562 31.828125 770.476562 28.90625 C 770.476562 25.039062 774.523438 22.59375 778.515625 22.59375 C 782.8125 22.59375 786.625 25.6875 786.625 29.984375 Z M 787.9375 52.8125 C 787.9375 57.34375 783.34375 60.4375 778.578125 60.4375 C 773.515625 60.4375 769.164062 56.742188 769.164062 51.796875 C 769.164062 47.148438 772.5625 43.390625 776.429688 41.601562 L 783.648438 46.3125 C 785.195312 47.328125 787.9375 49.171875 787.9375 52.8125 Z M 787.9375 52.8125 "/>
<path style=" stroke:none;fill-rule:evenodd;fill:rgb(0%,0%,0%);fill-opacity:1;" d="M 819.675781 48.640625 C 819.675781 40.710938 814.128906 35.40625 808.167969 35.40625 C 802.863281 35.40625 800.902344 39.992188 800.300781 41.664062 L 800.300781 40.054688 C 800.300781 24.976562 807.636719 22.59375 810.855469 22.59375 C 812.996094 22.59375 815.144531 23.25 816.277344 25.039062 C 815.558594 25.039062 813.300781 25.039062 813.300781 27.476562 C 813.300781 28.789062 814.191406 29.921875 815.738281 29.921875 C 817.230469 29.921875 818.246094 29.03125 818.246094 27.296875 C 818.246094 24.203125 815.980469 21.164062 810.792969 21.164062 C 803.285156 21.164062 795.417969 28.851562 795.417969 41.960938 C 795.417969 58.351562 802.566406 62.046875 807.636719 62.046875 C 814.128906 62.046875 819.675781 56.382812 819.675781 48.640625 Z M 814.785156 48.578125 C 814.785156 51.617188 814.785156 54.296875 813.652344 56.5625 C 812.167969 59.429688 810.019531 60.4375 807.636719 60.4375 C 803.878906 60.4375 802.089844 57.101562 801.558594 55.851562 C 801.019531 54.296875 800.425781 51.382812 800.425781 47.210938 C 800.425781 42.5 802.566406 36.601562 807.933594 36.601562 C 811.214844 36.601562 812.941406 38.804688 813.832031 40.828125 C 814.785156 43.039062 814.785156 46.015625 814.785156 48.578125 Z M 814.785156 48.578125 "/>
<path style=" stroke:none;fill-rule:evenodd;fill:rgb(0%,0%,0%);fill-opacity:1;" d="M 851.898438 53.40625 L 851.898438 50.007812 L 850.585938 50.007812 L 850.585938 53.289062 C 850.585938 57.578125 848.859375 60.078125 846.53125 60.078125 C 842.484375 60.078125 842.484375 54.539062 842.484375 53.523438 L 842.484375 36.835938 L 850.882812 36.835938 L 850.882812 35.109375 L 842.484375 35.109375 L 842.484375 24.140625 L 841.171875 24.140625 C 841.109375 29.742188 838.96875 35.46875 833.542969 35.648438 L 833.542969 36.835938 L 838.609375 36.835938 L 838.609375 53.40625 C 838.609375 60.023438 843.015625 61.390625 846.179688 61.390625 C 849.929688 61.390625 851.898438 57.695312 851.898438 53.40625 Z M 851.898438 53.40625 "/>
<path style=" stroke:none;fill-rule:evenodd;fill:rgb(0%,0%,0%);fill-opacity:1;" d="M 874.398438 57.125 C 874.398438 52.867188 873.960938 50.289062 872.648438 47.742188 C 870.90625 44.25 867.6875 43.375 865.5 43.375 C 860.492188 43.375 858.664062 47.109375 858.109375 48.21875 C 856.679688 51.125 856.601562 55.054688 856.601562 57.125 C 856.601562 59.742188 856.71875 63.757812 858.625 66.9375 C 860.453125 69.871094 863.390625 70.628906 865.5 70.628906 C 867.40625 70.628906 870.820312 70.039062 872.8125 66.101562 C 874.28125 63.242188 874.398438 59.703125 874.398438 57.125 Z M 870.859375 56.648438 C 870.859375 58.992188 870.859375 62.5625 870.382812 64.789062 C 869.554688 68.960938 866.8125 69.515625 865.5 69.515625 C 864.148438 69.515625 861.40625 68.882812 860.570312 64.710938 C 860.132812 62.445312 860.132812 58.710938 860.132812 56.648438 C 860.132812 53.90625 860.132812 51.125 860.570312 48.9375 C 861.40625 44.882812 864.507812 44.484375 865.5 44.484375 C 866.851562 44.484375 869.59375 45.164062 870.382812 48.773438 C 870.859375 50.960938 870.859375 53.945312 870.859375 56.648438 Z M 870.859375 56.648438 "/>
<path style=" stroke:none;fill-rule:evenodd;fill:rgb(0%,0%,0%);fill-opacity:1;" d="M 1235.617188 60.796875 L 1235.617188 59.070312 L 1233.765625 59.070312 C 1228.523438 59.070312 1228.34375 58.351562 1228.34375 56.210938 L 1228.34375 22.59375 C 1228.34375 21.222656 1228.34375 21.164062 1227.15625 21.164062 C 1225.71875 22.773438 1222.742188 24.976562 1216.605469 24.976562 L 1216.605469 26.703125 C 1217.980469 26.703125 1220.957031 26.703125 1224.234375 25.15625 L 1224.234375 56.210938 C 1224.234375 58.351562 1224.054688 59.070312 1218.816406 59.070312 L 1216.964844 59.070312 L 1216.964844 60.796875 C 1218.574219 60.679688 1224.351562 60.679688 1226.320312 60.679688 C 1228.289062 60.679688 1234.007812 60.679688 1235.617188 60.796875 Z M 1235.617188 60.796875 "/>
<path style=" stroke:none;fill-rule:evenodd;fill:rgb(0%,0%,0%);fill-opacity:1;" d="M 1251.148438 57.9375 C 1251.148438 56.210938 1249.71875 55.015625 1248.289062 55.015625 C 1246.554688 55.015625 1245.367188 56.445312 1245.367188 57.875 C 1245.367188 59.601562 1246.796875 60.796875 1248.226562 60.796875 C 1249.953125 60.796875 1251.148438 59.367188 1251.148438 57.9375 Z M 1251.148438 57.9375 "/>
<path style=" stroke:none;fill-rule:evenodd;fill:rgb(0%,0%,0%);fill-opacity:1;" d="M 1282.902344 48.820312 C 1282.902344 41.726562 1278.128906 35.820312 1271.875 35.820312 C 1268.484375 35.820312 1265.859375 37.3125 1264.3125 38.984375 L 1264.3125 26.648438 C 1266.875 27.476562 1268.960938 27.539062 1269.617188 27.539062 C 1276.347656 27.539062 1280.636719 22.59375 1280.636719 21.757812 C 1280.636719 21.515625 1280.519531 21.222656 1280.160156 21.222656 C 1280.160156 21.222656 1279.917969 21.222656 1279.386719 21.460938 C 1276.042969 22.890625 1273.1875 23.070312 1271.640625 23.070312 C 1267.703125 23.070312 1264.90625 21.875 1263.773438 21.398438 C 1263.351562 21.222656 1263.179688 21.222656 1263.179688 21.222656 C 1262.703125 21.222656 1262.703125 21.578125 1262.703125 22.53125 L 1262.703125 40.234375 C 1262.703125 41.304688 1262.703125 41.664062 1263.414062 41.664062 C 1263.710938 41.664062 1263.773438 41.601562 1264.367188 40.890625 C 1266.039062 38.445312 1268.835938 37.015625 1271.816406 37.015625 C 1274.972656 37.015625 1276.519531 39.9375 1277.003906 40.953125 C 1278.011719 43.273438 1278.074219 46.195312 1278.074219 48.460938 C 1278.074219 50.726562 1278.074219 54.125 1276.402344 56.804688 C 1275.089844 58.945312 1272.773438 60.4375 1270.148438 60.4375 C 1266.21875 60.4375 1262.34375 57.757812 1261.265625 53.40625 C 1261.570312 53.523438 1261.921875 53.585938 1262.226562 53.585938 C 1263.234375 53.585938 1264.84375 52.992188 1264.84375 50.960938 C 1264.84375 49.296875 1263.710938 48.34375 1262.226562 48.34375 C 1261.148438 48.34375 1259.601562 48.875 1259.601562 51.203125 C 1259.601562 56.265625 1263.65625 62.046875 1270.265625 62.046875 C 1277.003906 62.046875 1282.902344 56.382812 1282.902344 48.820312 Z M 1282.902344 48.820312 "/>
<path style=" stroke:none;fill-rule:evenodd;fill:rgb(0%,0%,0%);fill-opacity:1;" d="M 1314.488281 23.78125 L 1314.488281 22.414062 L 1300.121094 22.414062 C 1292.910156 22.414062 1292.792969 21.640625 1292.550781 20.511719 L 1291.238281 20.511719 L 1289.394531 32.429688 L 1290.707031 32.429688 C 1290.886719 31.351562 1291.417969 27.65625 1292.199219 27 C 1292.675781 26.648438 1297.144531 26.648438 1297.980469 26.648438 L 1310.613281 26.648438 L 1304.292969 35.703125 C 1302.683594 38.03125 1296.667969 47.804688 1296.667969 59.007812 C 1296.667969 59.664062 1296.667969 62.046875 1299.113281 62.046875 C 1301.613281 62.046875 1301.613281 59.726562 1301.613281 58.945312 L 1301.613281 55.96875 C 1301.613281 47.085938 1303.042969 40.171875 1305.847656 36.179688 Z M 1314.488281 23.78125 "/>
<path style=" stroke:none;fill-rule:evenodd;fill:rgb(0%,0%,0%);fill-opacity:1;" d="M 1341.875 41.726562 C 1341.875 36.773438 1341.578125 31.953125 1339.429688 27.421875 C 1336.984375 22.46875 1332.695312 21.164062 1329.773438 21.164062 C 1326.320312 21.164062 1322.085938 22.890625 1319.886719 27.835938 C 1318.214844 31.59375 1317.621094 35.289062 1317.621094 41.726562 C 1317.621094 47.507812 1318.035156 51.859375 1320.183594 56.085938 C 1322.5 60.617188 1326.617188 62.046875 1329.710938 62.046875 C 1334.898438 62.046875 1337.882812 58.945312 1339.609375 55.492188 C 1341.757812 51.023438 1341.875 45.179688 1341.875 41.726562 Z M 1337.34375 41.007812 C 1337.34375 45 1337.34375 49.53125 1336.6875 53.164062 C 1335.554688 59.726562 1331.804688 60.859375 1329.710938 60.859375 C 1327.804688 60.859375 1323.929688 59.78125 1322.808594 53.289062 C 1322.148438 49.710938 1322.148438 45.179688 1322.148438 41.007812 C 1322.148438 36.125 1322.148438 31.710938 1323.101562 28.195312 C 1324.109375 24.203125 1327.148438 22.351562 1329.710938 22.351562 C 1331.976562 22.351562 1335.4375 23.726562 1336.570312 28.851562 C 1337.34375 32.25 1337.34375 36.953125 1337.34375 41.007812 Z M 1337.34375 41.007812 "/>
<path style=" stroke:none;fill-rule:evenodd;fill:rgb(0%,0%,0%);fill-opacity:1;" d="M 1374.097656 53.40625 L 1374.097656 50.007812 L 1372.785156 50.007812 L 1372.785156 53.289062 C 1372.785156 57.578125 1371.058594 60.078125 1368.734375 60.078125 C 1364.6875 60.078125 1364.6875 54.539062 1364.6875 53.523438 L 1364.6875 36.835938 L 1373.082031 36.835938 L 1373.082031 35.109375 L 1364.6875 35.109375 L 1364.6875 24.140625 L 1363.375 24.140625 C 1363.3125 29.742188 1361.171875 35.46875 1355.742188 35.648438 L 1355.742188 36.835938 L 1360.8125 36.835938 L 1360.8125 53.40625 C 1360.8125 60.023438 1365.21875 61.390625 1368.382812 61.390625 C 1372.128906 61.390625 1374.097656 57.695312 1374.097656 53.40625 Z M 1374.097656 53.40625 "/>
<path style=" stroke:none;fill-rule:evenodd;fill:rgb(0%,0%,0%);fill-opacity:1;" d="M 1396.597656 57.125 C 1396.597656 52.867188 1396.160156 50.289062 1394.847656 47.742188 C 1393.105469 44.25 1389.886719 43.375 1387.699219 43.375 C 1382.691406 43.375 1380.863281 47.109375 1380.308594 48.21875 C 1378.878906 51.125 1378.800781 55.054688 1378.800781 57.125 C 1378.800781 59.742188 1378.917969 63.757812 1380.824219 66.9375 C 1382.652344 69.871094 1385.589844 70.628906 1387.699219 70.628906 C 1389.605469 70.628906 1393.019531 70.039062 1395.011719 66.101562 C 1396.480469 63.242188 1396.597656 59.703125 1396.597656 57.125 Z M 1393.058594 56.648438 C 1393.058594 58.992188 1393.058594 62.5625 1392.582031 64.789062 C 1391.753906 68.960938 1389.011719 69.515625 1387.699219 69.515625 C 1386.347656 69.515625 1383.605469 68.882812 1382.769531 64.710938 C 1382.332031 62.445312 1382.332031 58.710938 1382.332031 56.648438 C 1382.332031 53.90625 1382.332031 51.125 1382.769531 48.9375 C 1383.605469 44.882812 1386.707031 44.484375 1387.699219 44.484375 C 1389.050781 44.484375 1391.792969 45.164062 1392.582031 48.773438 C 1393.058594 50.960938 1393.058594 53.945312 1393.058594 56.648438 Z M 1393.058594 56.648438 "/>
<path style=" stroke:none;fill-rule:evenodd;fill:rgb(0%,0%,0%);fill-opacity:1;" d="M 1759.605469 50.78125 L 1758.292969 50.78125 C 1758.113281 51.796875 1757.636719 55.078125 1757.042969 56.03125 C 1756.621094 56.5625 1753.226562 56.5625 1751.445312 56.5625 L 1740.414062 56.5625 C 1742.023438 55.195312 1745.664062 51.382812 1747.210938 49.953125 C 1756.269531 41.601562 1759.605469 38.507812 1759.605469 32.601562 C 1759.605469 25.75 1754.183594 21.164062 1747.273438 21.164062 C 1740.359375 21.164062 1736.304688 27.0625 1736.304688 32.1875 C 1736.304688 35.226562 1738.929688 35.226562 1739.101562 35.226562 C 1740.359375 35.226562 1741.90625 34.335938 1741.90625 32.429688 C 1741.90625 30.757812 1740.773438 29.625 1739.101562 29.625 C 1738.570312 29.625 1738.445312 29.625 1738.273438 29.6875 C 1739.40625 25.632812 1742.625 22.890625 1746.492188 22.890625 C 1751.5625 22.890625 1754.660156 27.125 1754.660156 32.601562 C 1754.660156 37.671875 1751.742188 42.078125 1748.34375 45.898438 L 1736.304688 59.367188 L 1736.304688 60.796875 L 1758.050781 60.796875 Z M 1759.605469 50.78125 "/>
<path style=" stroke:none;fill-rule:evenodd;fill:rgb(0%,0%,0%);fill-opacity:1;" d="M 1773.347656 57.9375 C 1773.347656 56.210938 1771.917969 55.015625 1770.488281 55.015625 C 1768.753906 55.015625 1767.566406 56.445312 1767.566406 57.875 C 1767.566406 59.601562 1768.996094 60.796875 1770.425781 60.796875 C 1772.152344 60.796875 1773.347656 59.367188 1773.347656 57.9375 Z M 1773.347656 57.9375 "/>
<path style=" stroke:none;fill-rule:evenodd;fill:rgb(0%,0%,0%);fill-opacity:1;" d="M 1805.578125 50.601562 C 1805.578125 45.125 1801.167969 40.828125 1795.449219 39.820312 C 1800.636719 38.328125 1803.972656 33.976562 1803.972656 29.328125 C 1803.972656 24.617188 1799.082031 21.164062 1793.300781 21.164062 C 1787.339844 21.164062 1782.933594 24.796875 1782.933594 29.148438 C 1782.933594 31.53125 1784.777344 32.007812 1785.675781 32.007812 C 1786.925781 32.007812 1788.355469 31.117188 1788.355469 29.328125 C 1788.355469 27.421875 1786.925781 26.585938 1785.613281 26.585938 C 1785.253906 26.585938 1785.136719 26.585938 1784.957031 26.648438 C 1787.222656 22.59375 1792.824219 22.59375 1793.121094 22.59375 C 1795.089844 22.59375 1798.964844 23.484375 1798.964844 29.328125 C 1798.964844 30.460938 1798.785156 33.796875 1797.058594 36.359375 C 1795.269531 38.984375 1793.246094 39.164062 1791.636719 39.21875 L 1789.847656 39.398438 C 1788.832031 39.460938 1788.597656 39.515625 1788.597656 40.054688 C 1788.597656 40.648438 1788.894531 40.648438 1789.964844 40.648438 L 1792.707031 40.648438 C 1797.769531 40.648438 1800.035156 44.820312 1800.035156 50.546875 C 1800.035156 58.351562 1795.988281 60.4375 1793.066406 60.4375 C 1790.207031 60.4375 1785.316406 59.070312 1783.589844 55.132812 C 1785.496094 55.429688 1787.222656 54.359375 1787.222656 52.210938 C 1787.222656 50.484375 1785.972656 49.296875 1784.300781 49.296875 C 1782.871094 49.296875 1781.324219 50.125 1781.324219 52.390625 C 1781.324219 57.695312 1786.628906 62.046875 1793.246094 62.046875 C 1800.332031 62.046875 1805.578125 56.625 1805.578125 50.601562 Z M 1805.578125 50.601562 "/>
<path style=" stroke:none;fill-rule:evenodd;fill:rgb(0%,0%,0%);fill-opacity:1;" d="M 1835.078125 48.640625 C 1835.078125 40.710938 1829.53125 35.40625 1823.570312 35.40625 C 1818.265625 35.40625 1816.304688 39.992188 1815.703125 41.664062 L 1815.703125 40.054688 C 1815.703125 24.976562 1823.039062 22.59375 1826.257812 22.59375 C 1828.398438 22.59375 1830.546875 23.25 1831.679688 25.039062 C 1830.960938 25.039062 1828.703125 25.039062 1828.703125 27.476562 C 1828.703125 28.789062 1829.59375 29.921875 1831.140625 29.921875 C 1832.632812 29.921875 1833.648438 29.03125 1833.648438 27.296875 C 1833.648438 24.203125 1831.382812 21.164062 1826.195312 21.164062 C 1818.6875 21.164062 1810.820312 28.851562 1810.820312 41.960938 C 1810.820312 58.351562 1817.96875 62.046875 1823.039062 62.046875 C 1829.53125 62.046875 1835.078125 56.382812 1835.078125 48.640625 Z M 1830.1875 48.578125 C 1830.1875 51.617188 1830.1875 54.296875 1829.054688 56.5625 C 1827.570312 59.429688 1825.421875 60.4375 1823.039062 60.4375 C 1819.28125 60.4375 1817.492188 57.101562 1816.960938 55.851562 C 1816.421875 54.296875 1815.828125 51.382812 1815.828125 47.210938 C 1815.828125 42.5 1817.96875 36.601562 1823.335938 36.601562 C 1826.617188 36.601562 1828.34375 38.804688 1829.234375 40.828125 C 1830.1875 43.039062 1830.1875 46.015625 1830.1875 48.578125 Z M 1830.1875 48.578125 "/>
<path style=" stroke:none;fill-rule:evenodd;fill:rgb(0%,0%,0%);fill-opacity:1;" d="M 1864.074219 41.726562 C 1864.074219 36.773438 1863.777344 31.953125 1861.628906 27.421875 C 1859.183594 22.46875 1854.894531 21.164062 1851.976562 21.164062 C 1848.523438 21.164062 1844.289062 22.890625 1842.085938 27.835938 C 1840.414062 31.59375 1839.820312 35.289062 1839.820312 41.726562 C 1839.820312 47.507812 1840.234375 51.859375 1842.382812 56.085938 C 1844.703125 60.617188 1848.820312 62.046875 1851.914062 62.046875 C 1857.097656 62.046875 1860.082031 58.945312 1861.808594 55.492188 C 1863.957031 51.023438 1864.074219 45.179688 1864.074219 41.726562 Z M 1859.542969 41.007812 C 1859.542969 45 1859.542969 49.53125 1858.886719 53.164062 C 1857.753906 59.726562 1854.007812 60.859375 1851.914062 60.859375 C 1850.007812 60.859375 1846.132812 59.78125 1845.007812 53.289062 C 1844.351562 49.710938 1844.351562 45.179688 1844.351562 41.007812 C 1844.351562 36.125 1844.351562 31.710938 1845.304688 28.195312 C 1846.3125 24.203125 1849.351562 22.351562 1851.914062 22.351562 C 1854.175781 22.351562 1857.636719 23.726562 1858.769531 28.851562 C 1859.542969 32.25 1859.542969 36.953125 1859.542969 41.007812 Z M 1859.542969 41.007812 "/>
<path style=" stroke:none;fill-rule:evenodd;fill:rgb(0%,0%,0%);fill-opacity:1;" d="M 1896.300781 53.40625 L 1896.300781 50.007812 L 1894.988281 50.007812 L 1894.988281 53.289062 C 1894.988281 57.578125 1893.261719 60.078125 1890.933594 60.078125 C 1886.886719 60.078125 1886.886719 54.539062 1886.886719 53.523438 L 1886.886719 36.835938 L 1895.285156 36.835938 L 1895.285156 35.109375 L 1886.886719 35.109375 L 1886.886719 24.140625 L 1885.574219 24.140625 C 1885.511719 29.742188 1883.371094 35.46875 1877.941406 35.648438 L 1877.941406 36.835938 L 1883.011719 36.835938 L 1883.011719 53.40625 C 1883.011719 60.023438 1887.417969 61.390625 1890.582031 61.390625 C 1894.332031 61.390625 1896.300781 57.695312 1896.300781 53.40625 Z M 1896.300781 53.40625 "/>
<path style=" stroke:none;fill-rule:evenodd;fill:rgb(0%,0%,0%);fill-opacity:1;" d="M 1918.796875 57.125 C 1918.796875 52.867188 1918.359375 50.289062 1917.046875 47.742188 C 1915.304688 44.25 1912.085938 43.375 1909.898438 43.375 C 1904.890625 43.375 1903.066406 47.109375 1902.507812 48.21875 C 1901.082031 51.125 1901.003906 55.054688 1901.003906 57.125 C 1901.003906 59.742188 1901.121094 63.757812 1903.027344 66.9375 C 1904.851562 69.871094 1907.789062 70.628906 1909.898438 70.628906 C 1911.804688 70.628906 1915.21875 70.039062 1917.210938 66.101562 C 1918.679688 63.242188 1918.796875 59.703125 1918.796875 57.125 Z M 1915.257812 56.648438 C 1915.257812 58.992188 1915.257812 62.5625 1914.78125 64.789062 C 1913.953125 68.960938 1911.210938 69.515625 1909.898438 69.515625 C 1908.546875 69.515625 1905.804688 68.882812 1904.96875 64.710938 C 1904.53125 62.445312 1904.53125 58.710938 1904.53125 56.648438 C 1904.53125 53.90625 1904.53125 51.125 1904.96875 48.9375 C 1905.804688 44.882812 1908.90625 44.484375 1909.898438 44.484375 C 1911.25 44.484375 1913.992188 45.164062 1914.78125 48.773438 C 1915.257812 50.960938 1915.257812 53.945312 1915.257812 56.648438 Z M 1915.257812 56.648438 "/>
<g clip-path="url(#clip1)" clip-rule="nonzero">
<path style="fill:none;stroke-width:1;stroke-linecap:square;stroke-linejoin:miter;stroke:rgb(0%,0%,0%);stroke-opacity:1;stroke-miterlimit:3.25;" d="M 3.601562 333.84375 L 519.601562 333.84375 "/>
</g>
<g clip-path="url(#clip2)" clip-rule="nonzero">
<path style="fill:none;stroke-width:1;stroke-linecap:square;stroke-linejoin:miter;stroke:rgb(0%,0%,0%);stroke-opacity:1;stroke-miterlimit:3.25;" d="M 3.601562 464.167969 L 519.601562 203.515625 "/>
</g>
<path style="fill-rule:nonzero;fill:rgb(50%,50%,50%);fill-opacity:1;stroke-width:1;stroke-linecap:square;stroke-linejoin:miter;stroke:rgb(50%,50%,50%);stroke-opacity:1;stroke-miterlimit:3.25;" d="M 409.695312 362.714844 L 412.085938 344.800781 L 262.796875 324.886719 L 260.40625 342.800781 Z M 409.695312 362.714844 "/>
<path style="fill:none;stroke-width:2;stroke-linecap:square;stroke-linejoin:miter;stroke:rgb(0%,0%,0%);stroke-opacity:1;stroke-miterlimit:3.25;" d="M 409.695312 362.714844 L 412.085938 344.800781 L 262.796875 324.886719 L 260.40625 342.800781 Z M 409.695312 362.714844 "/>
<path style="fill-rule:nonzero;fill:rgb(84.999084%,84.999084%,84.999084%);fill-opacity:1;stroke-width:2;stroke-linecap:square;stroke-linejoin:miter;stroke:rgb(84.999084%,84.999084%,84.999084%);stroke-opacity:1;stroke-miterlimit:3.25;" d="M 402.972656 349.402344 L 418.808594 358.113281 L 491.371094 226.128906 L 475.535156 217.421875 Z M 402.972656 349.402344 "/>
<path style="fill:none;stroke-width:2;stroke-linecap:square;stroke-linejoin:miter;stroke:rgb(0%,0%,0%);stroke-opacity:1;stroke-miterlimit:3.25;" d="M 402.972656 349.402344 L 418.808594 358.113281 L 491.371094 226.128906 L 475.535156 217.421875 Z M 402.972656 349.402344 "/>
<path style="fill-rule:evenodd;fill:rgb(99.998474%,99.998474%,99.998474%);fill-opacity:1;stroke-width:2;stroke-linecap:square;stroke-linejoin:miter;stroke:rgb(0%,0%,0%);stroke-opacity:1;stroke-miterlimit:3.25;" d="M 424.445312 353.757812 C 424.445312 350.164062 423.019531 346.714844 420.476562 344.171875 C 417.933594 341.628906 414.484375 340.203125 410.890625 340.203125 C 407.296875 340.203125 403.847656 341.628906 401.304688 344.171875 C 398.765625 346.714844 397.335938 350.164062 397.335938 353.757812 C 397.335938 357.351562 398.765625 360.800781 401.304688 363.34375 C 403.847656 365.882812 407.296875 367.3125 410.890625 367.3125 C 414.484375 367.3125 417.933594 365.882812 420.476562 363.34375 C 423.019531 360.800781 424.445312 357.351562 424.445312 353.757812 Z M 424.445312 353.757812 "/>
<path style="fill-rule:evenodd;fill:rgb(99.998474%,99.998474%,99.998474%);fill-opacity:1;stroke-width:2;stroke-linecap:square;stroke-linejoin:miter;stroke:rgb(0%,0%,0%);stroke-opacity:1;stroke-miterlimit:3.25;" d="M 424.445312 353.757812 C 424.445312 350.164062 423.019531 346.714844 420.476562 344.171875 C 417.933594 341.628906 414.484375 340.203125 410.890625 340.203125 C 407.296875 340.203125 403.847656 341.628906 401.304688 344.171875 C 398.765625 346.714844 397.335938 350.164062 397.335938 353.757812 C 397.335938 357.351562 398.765625 360.800781 401.304688 363.34375 C 403.847656 365.882812 407.296875 367.3125 410.890625 367.3125 C 414.484375 367.3125 417.933594 365.882812 420.476562 363.34375 C 423.019531 360.800781 424.445312 357.351562 424.445312 353.757812 Z M 424.445312 353.757812 "/>
<path style=" stroke:none;fill-rule:evenodd;fill:rgb(99.998474%,99.998474%,99.998474%);fill-opacity:1;" d="M 288.625 525.859375 C 288.625 510.832031 276.445312 498.652344 261.417969 498.652344 C 246.390625 498.652344 234.210938 510.832031 234.210938 525.859375 C 234.210938 540.886719 246.390625 553.066406 261.417969 553.066406 C 276.445312 553.066406 288.625 540.886719 288.625 525.859375 Z M 288.625 525.859375 "/>
<g clip-path="url(#clip3)" clip-rule="nonzero">
<path style="fill:none;stroke-width:2.869185;stroke-linecap:square;stroke-linejoin:miter;stroke:rgb(0%,0%,0%);stroke-opacity:1;stroke-miterlimit:10;" d="M 288.625 525.859375 C 288.625 510.832031 276.445312 498.652344 261.417969 498.652344 C 246.390625 498.652344 234.210938 510.832031 234.210938 525.859375 C 234.210938 540.886719 246.390625 553.066406 261.417969 553.066406 C 276.445312 553.066406 288.625 540.886719 288.625 525.859375 Z M 288.625 525.859375 "/>
</g>
<path style=" stroke:none;fill-rule:evenodd;fill:rgb(0%,0%,0%);fill-opacity:1;" d="M 269.679688 532.222656 L 268.738281 532.222656 C 268.605469 532.953125 268.265625 535.316406 267.835938 536.003906 C 267.53125 536.386719 265.085938 536.386719 263.804688 536.386719 L 255.863281 536.386719 C 257.019531 535.402344 259.640625 532.65625 260.753906 531.628906 C 267.28125 525.613281 269.679688 523.386719 269.679688 519.132812 C 269.679688 514.199219 265.777344 510.898438 260.800781 510.898438 C 255.820312 510.898438 252.902344 515.144531 252.902344 518.835938 C 252.902344 521.023438 254.792969 521.023438 254.917969 521.023438 C 255.820312 521.023438 256.9375 520.382812 256.9375 519.011719 C 256.9375 517.808594 256.121094 516.992188 254.917969 516.992188 C 254.535156 516.992188 254.445312 516.992188 254.320312 517.035156 C 255.136719 514.117188 257.453125 512.140625 260.238281 512.140625 C 263.886719 512.140625 266.121094 515.191406 266.121094 519.132812 C 266.121094 522.785156 264.015625 525.957031 261.570312 528.707031 L 252.902344 538.40625 L 252.902344 539.433594 L 268.5625 539.433594 Z M 269.679688 532.222656 "/>
<path style=" stroke:none;fill-rule:evenodd;fill:rgb(0%,0%,0%);fill-opacity:1;" d="M 200.050781 574.292969 C 200.050781 570.71875 197.160156 567.855469 193.699219 567.855469 C 192.582031 567.855469 190.921875 568.144531 189.464844 569.628906 L 189.464844 567.855469 L 185.203125 568.171875 L 185.203125 569.117188 C 187.230469 569.117188 187.378906 569.285156 187.378906 570.488281 L 187.378906 583.792969 C 187.378906 585.082031 187.035156 585.082031 185.203125 585.082031 L 185.203125 586.027344 C 186.433594 585.9375 187.6875 585.9375 188.464844 585.9375 C 189.289062 585.9375 190.496094 585.9375 191.726562 586.027344 L 191.726562 585.082031 C 189.890625 585.082031 189.550781 585.082031 189.550781 583.792969 L 189.550781 579.074219 C 190.894531 580.53125 192.355469 580.761719 193.265625 580.761719 C 196.902344 580.761719 200.050781 577.953125 200.050781 574.292969 Z M 197.503906 574.292969 C 197.503906 577.582031 195.445312 579.957031 193.125 579.957031 C 192.125 579.957031 190.808594 579.527344 189.890625 578.101562 C 189.550781 577.609375 189.550781 577.582031 189.550781 577.042969 L 189.550781 570.945312 C 190.207031 569.804688 191.636719 568.746094 193.441406 568.746094 C 195.640625 568.746094 197.503906 571.175781 197.503906 574.292969 Z M 197.503906 574.292969 "/>
<path style=" stroke:none;fill-rule:evenodd;fill:rgb(0%,0%,0%);fill-opacity:1;" d="M 215.824219 577.898438 L 215.824219 576.328125 L 214.941406 576.328125 L 214.941406 577.898438 C 214.941406 579.074219 214.507812 579.527344 213.90625 579.527344 C 212.847656 579.527344 212.847656 578.210938 212.847656 577.898438 L 212.847656 571.945312 C 212.847656 569.144531 210.128906 567.714844 207.527344 567.714844 C 205.152344 567.714844 203.039062 568.628906 203.039062 570.519531 C 203.039062 571.378906 203.640625 571.890625 204.382812 571.890625 C 205.179688 571.890625 205.726562 571.316406 205.726562 570.546875 C 205.726562 569.859375 205.300781 569.375 204.667969 569.230469 C 205.726562 568.515625 207.273438 568.515625 207.46875 568.515625 C 209.074219 568.515625 210.675781 569.628906 210.675781 571.972656 L 210.675781 572.863281 C 209.015625 572.949219 207.097656 573.039062 205.097656 573.863281 C 202.578125 574.949219 202.09375 576.609375 202.09375 577.554688 C 202.09375 580.019531 204.984375 580.761719 206.957031 580.761719 C 209.046875 580.761719 210.332031 579.585938 210.964844 578.441406 C 211.105469 579.527344 211.847656 580.613281 213.105469 580.613281 C 213.394531 580.613281 215.824219 580.5 215.824219 577.898438 Z M 210.675781 576.441406 C 210.675781 579.214844 208.332031 579.957031 207.183594 579.957031 C 205.699219 579.957031 204.4375 578.953125 204.4375 577.582031 C 204.4375 575.699219 206.210938 573.753906 210.675781 573.605469 Z M 210.675781 576.441406 "/>
<path style=" stroke:none;fill-rule:evenodd;fill:rgb(0%,0%,0%);fill-opacity:1;" d="M 227.195312 576.785156 C 227.195312 575.410156 226.363281 573.410156 222.960938 572.777344 C 222.734375 572.722656 221.132812 572.4375 221.015625 572.4375 C 220.132812 572.234375 218.789062 571.632812 218.789062 570.488281 C 218.789062 569.628906 219.417969 568.429688 222.132812 568.429688 C 225.335938 568.429688 225.480469 570.777344 225.539062 571.574219 C 225.566406 571.804688 225.769531 571.890625 225.964844 571.890625 C 226.425781 571.890625 226.425781 571.691406 226.425781 571.148438 L 226.425781 568.460938 C 226.425781 567.996094 226.425781 567.714844 226.054688 567.714844 C 225.910156 567.714844 225.824219 567.714844 225.363281 568.171875 C 225.308594 568.199219 225.054688 568.460938 224.964844 568.460938 C 224.964844 568.460938 224.878906 568.460938 224.703125 568.347656 C 224.25 568.03125 223.421875 567.714844 222.132812 567.714844 C 218.128906 567.714844 217.242188 569.886719 217.242188 571.261719 C 217.242188 572.695312 218.296875 573.519531 218.382812 573.605469 C 219.53125 574.464844 220.1875 574.578125 222.105469 574.921875 C 223.449219 575.179688 225.648438 575.582031 225.648438 577.527344 C 225.648438 578.640625 224.90625 579.957031 222.273438 579.957031 C 219.382812 579.957031 218.558594 577.730469 218.183594 576.210938 C 218.074219 575.839844 218.039062 575.699219 217.695312 575.699219 C 217.242188 575.699219 217.242188 575.921875 217.242188 576.46875 L 217.242188 580.019531 C 217.242188 580.472656 217.242188 580.761719 217.613281 580.761719 C 217.785156 580.761719 217.8125 580.734375 218.328125 580.1875 C 218.472656 580.046875 218.789062 579.675781 218.929688 579.527344 C 220.214844 580.703125 221.558594 580.761719 222.304688 580.761719 C 225.9375 580.761719 227.195312 578.671875 227.195312 576.785156 Z M 227.195312 576.785156 "/>
<path style=" stroke:none;fill-rule:evenodd;fill:rgb(0%,0%,0%);fill-opacity:1;" d="M 239.4375 576.785156 C 239.4375 575.410156 238.605469 573.410156 235.199219 572.777344 C 234.976562 572.722656 233.371094 572.4375 233.253906 572.4375 C 232.371094 572.234375 231.027344 571.632812 231.027344 570.488281 C 231.027344 569.628906 231.65625 568.429688 234.375 568.429688 C 237.574219 568.429688 237.722656 570.777344 237.777344 571.574219 C 237.804688 571.804688 238.007812 571.890625 238.203125 571.890625 C 238.664062 571.890625 238.664062 571.691406 238.664062 571.148438 L 238.664062 568.460938 C 238.664062 567.996094 238.664062 567.714844 238.292969 567.714844 C 238.148438 567.714844 238.0625 567.714844 237.601562 568.171875 C 237.546875 568.199219 237.292969 568.460938 237.203125 568.460938 C 237.203125 568.460938 237.117188 568.460938 236.945312 568.347656 C 236.488281 568.03125 235.660156 567.714844 234.375 567.714844 C 230.367188 567.714844 229.480469 569.886719 229.480469 571.261719 C 229.480469 572.695312 230.539062 573.519531 230.621094 573.605469 C 231.769531 574.464844 232.429688 574.578125 234.347656 574.921875 C 235.691406 575.179688 237.890625 575.582031 237.890625 577.527344 C 237.890625 578.640625 237.148438 579.957031 234.515625 579.957031 C 231.625 579.957031 230.796875 577.730469 230.425781 576.210938 C 230.3125 575.839844 230.277344 575.699219 229.9375 575.699219 C 229.480469 575.699219 229.480469 575.921875 229.480469 576.46875 L 229.480469 580.019531 C 229.480469 580.472656 229.480469 580.761719 229.851562 580.761719 C 230.027344 580.761719 230.054688 580.734375 230.566406 580.1875 C 230.710938 580.046875 231.027344 579.675781 231.167969 579.527344 C 232.457031 580.703125 233.800781 580.761719 234.542969 580.761719 C 238.175781 580.761719 239.4375 578.671875 239.4375 576.785156 Z M 239.4375 576.785156 "/>
<path style=" stroke:none;fill-rule:evenodd;fill:rgb(0%,0%,0%);fill-opacity:1;" d="M 247.796875 580.472656 L 247.796875 579.527344 C 245.9375 579.527344 245.820312 579.386719 245.820312 578.269531 L 245.820312 567.855469 L 241.648438 568.171875 L 241.648438 569.117188 C 243.476562 569.117188 243.734375 569.285156 243.734375 570.691406 L 243.734375 578.242188 C 243.734375 579.527344 243.390625 579.527344 241.5625 579.527344 L 241.5625 580.472656 C 242.675781 580.390625 244.28125 580.390625 244.707031 580.390625 C 245.078125 580.390625 246.792969 580.390625 247.796875 580.472656 Z M 246.164062 563.25 C 246.164062 562.304688 245.421875 561.648438 244.59375 561.648438 C 243.761719 561.648438 243.019531 562.304688 243.019531 563.25 C 243.019531 564.082031 243.675781 564.824219 244.59375 564.824219 C 245.476562 564.824219 246.164062 564.082031 246.164062 563.25 Z M 246.164062 563.25 "/>
<path style=" stroke:none;fill-rule:evenodd;fill:rgb(0%,0%,0%);fill-opacity:1;" d="M 264.386719 569.089844 L 264.386719 568.144531 C 263.386719 568.226562 263.332031 568.226562 262.160156 568.226562 C 261.902344 568.226562 260.558594 568.226562 259.667969 568.144531 L 259.667969 569.089844 C 260.671875 569.144531 260.929688 569.773438 260.929688 570.257812 C 260.929688 570.546875 260.871094 570.691406 260.753906 570.945312 L 257.667969 578.15625 L 254.292969 570.40625 C 254.117188 570.035156 254.117188 569.804688 254.117188 569.804688 C 254.117188 569.089844 255.152344 569.089844 255.636719 569.089844 L 255.636719 568.144531 C 254.40625 568.226562 253.058594 568.226562 252.519531 568.226562 C 251.917969 568.226562 250.546875 568.226562 249.628906 568.144531 L 249.628906 569.089844 C 251.371094 569.089844 251.519531 569.257812 251.945312 570.230469 L 256.238281 580.128906 C 256.433594 580.558594 256.609375 580.761719 257.007812 580.761719 C 257.40625 580.761719 257.609375 580.53125 257.75 580.1875 L 261.671875 571.089844 C 262.359375 569.488281 263.332031 569.117188 264.386719 569.089844 Z M 264.386719 569.089844 "/>
<path style=" stroke:none;fill-rule:evenodd;fill:rgb(0%,0%,0%);fill-opacity:1;" d="M 276.734375 577.042969 C 276.734375 576.925781 276.652344 576.636719 276.28125 576.636719 C 275.964844 576.636719 275.902344 576.839844 275.847656 577.015625 C 274.816406 579.789062 272.359375 579.871094 271.839844 579.871094 C 270.554688 579.871094 269.238281 579.269531 268.382812 577.953125 C 267.523438 576.636719 267.523438 574.808594 267.523438 573.949219 L 275.9375 573.949219 C 276.5625 573.949219 276.734375 573.949219 276.734375 573.289062 C 276.734375 570.75 275.335938 567.714844 271.300781 567.714844 C 267.753906 567.714844 264.980469 570.660156 264.980469 574.207031 C 264.980469 577.898438 268.066406 580.761719 271.671875 580.761719 C 275.304688 580.761719 276.734375 577.699219 276.734375 577.042969 Z M 274.789062 573.207031 L 267.550781 573.207031 C 267.808594 569.203125 270.238281 568.515625 271.300781 568.515625 C 274.648438 568.515625 274.761719 572.546875 274.789062 573.207031 Z M 274.789062 573.207031 "/>
<path style=" stroke:none;fill-rule:evenodd;fill:rgb(0%,0%,0%);fill-opacity:1;" d="M 302.609375 569 C 302.609375 568.515625 302.238281 567.542969 300.980469 567.542969 C 300.496094 567.542969 299.121094 567.65625 297.804688 568.859375 C 297.089844 568.347656 295.972656 567.855469 294.628906 567.855469 C 291.796875 567.855469 289.710938 569.832031 289.710938 572.066406 C 289.710938 573.410156 290.453125 574.410156 291.054688 574.976562 C 290.425781 575.699219 290.195312 576.609375 290.195312 577.296875 C 290.195312 578.472656 290.769531 579.359375 291.398438 579.84375 C 289.910156 580.242188 288.738281 581.363281 288.738281 582.679688 C 288.738281 584.738281 291.679688 586.339844 295.460938 586.339844 C 299.039062 586.339844 302.183594 584.878906 302.183594 582.617188 C 302.183594 581.074219 301.265625 579.871094 300.320312 579.386719 C 298.632812 578.5 297.230469 578.5 294.429688 578.5 L 292.828125 578.5 C 291.9375 578.414062 291.226562 577.640625 291.226562 576.609375 C 291.226562 575.921875 291.398438 575.671875 291.597656 575.410156 C 292.800781 576.125 293.914062 576.265625 294.601562 576.265625 C 297.433594 576.265625 299.523438 574.292969 299.523438 572.066406 C 299.523438 570.972656 299.039062 570.0625 298.347656 569.3125 C 298.75 568.972656 299.695312 568.375 301.097656 568.347656 C 300.980469 568.429688 300.835938 568.570312 300.835938 569.03125 C 300.835938 569.542969 301.210938 569.914062 301.726562 569.914062 C 302.125 569.914062 302.609375 569.65625 302.609375 569 Z M 297.261719 572.066406 C 297.261719 573.121094 297.121094 573.863281 296.691406 574.4375 C 296.0625 575.238281 295.144531 575.441406 294.628906 575.441406 C 291.96875 575.441406 291.96875 572.695312 291.96875 572.066406 C 291.96875 571.007812 292.113281 570.257812 292.542969 569.691406 C 293.023438 569.03125 293.828125 568.691406 294.601562 568.691406 C 297.261719 568.691406 297.261719 571.433594 297.261719 572.066406 Z M 300.496094 582.652344 C 300.496094 584.191406 298.289062 585.507812 295.460938 585.507812 C 292.597656 585.507812 290.425781 584.191406 290.425781 582.652344 C 290.425781 582.046875 290.882812 580.359375 293.226562 580.359375 L 295.972656 580.359375 C 296.75 580.359375 300.496094 580.359375 300.496094 582.652344 Z M 300.496094 582.652344 "/>
<path style=" stroke:none;fill-rule:evenodd;fill:rgb(0%,0%,0%);fill-opacity:1;" d="M 317.703125 577.898438 L 317.703125 576.328125 L 316.816406 576.328125 L 316.816406 577.898438 C 316.816406 579.074219 316.386719 579.527344 315.785156 579.527344 C 314.726562 579.527344 314.726562 578.210938 314.726562 577.898438 L 314.726562 571.945312 C 314.726562 569.144531 312.007812 567.714844 309.40625 567.714844 C 307.03125 567.714844 304.914062 568.628906 304.914062 570.519531 C 304.914062 571.378906 305.519531 571.890625 306.261719 571.890625 C 307.058594 571.890625 307.605469 571.316406 307.605469 570.546875 C 307.605469 569.859375 307.175781 569.375 306.546875 569.230469 C 307.605469 568.515625 309.152344 568.515625 309.347656 568.515625 C 310.953125 568.515625 312.554688 569.628906 312.554688 571.972656 L 312.554688 572.863281 C 310.894531 572.949219 308.976562 573.039062 306.976562 573.863281 C 304.453125 574.949219 303.972656 576.609375 303.972656 577.554688 C 303.972656 580.019531 306.863281 580.761719 308.835938 580.761719 C 310.921875 580.761719 312.210938 579.585938 312.839844 578.441406 C 312.980469 579.527344 313.722656 580.613281 314.984375 580.613281 C 315.269531 580.613281 317.703125 580.5 317.703125 577.898438 Z M 312.554688 576.441406 C 312.554688 579.214844 310.207031 579.957031 309.0625 579.957031 C 307.578125 579.957031 306.316406 578.953125 306.316406 577.582031 C 306.316406 575.699219 308.089844 573.753906 312.554688 573.605469 Z M 312.554688 576.441406 "/>
<path style=" stroke:none;fill-rule:evenodd;fill:rgb(0%,0%,0%);fill-opacity:1;" d="M 325.914062 580.472656 L 325.914062 579.527344 C 324.058594 579.527344 323.9375 579.386719 323.9375 578.269531 L 323.9375 567.855469 L 319.765625 568.171875 L 319.765625 569.117188 C 321.59375 569.117188 321.851562 569.285156 321.851562 570.691406 L 321.851562 578.242188 C 321.851562 579.527344 321.507812 579.527344 319.679688 579.527344 L 319.679688 580.472656 C 320.796875 580.390625 322.398438 580.390625 322.824219 580.390625 C 323.195312 580.390625 324.914062 580.390625 325.914062 580.472656 Z M 324.28125 563.25 C 324.28125 562.304688 323.539062 561.648438 322.714844 561.648438 C 321.878906 561.648438 321.136719 562.304688 321.136719 563.25 C 321.136719 564.082031 321.796875 564.824219 322.714844 564.824219 C 323.597656 564.824219 324.28125 564.082031 324.28125 563.25 Z M 324.28125 563.25 "/>
<path style=" stroke:none;fill-rule:evenodd;fill:rgb(0%,0%,0%);fill-opacity:1;" d="M 336.855469 576.894531 L 336.855469 575.292969 L 335.972656 575.292969 L 335.972656 576.839844 C 335.972656 578.8125 335.082031 579.871094 333.996094 579.871094 C 332.078125 579.871094 332.078125 577.414062 332.078125 576.953125 L 332.078125 569.089844 L 336.34375 569.089844 L 336.34375 568.144531 L 332.078125 568.144531 L 332.078125 562.878906 L 331.191406 562.878906 C 331.160156 565.484375 329.992188 568.199219 327.332031 568.285156 L 327.332031 569.089844 L 329.902344 569.089844 L 329.902344 576.894531 C 329.902344 580.242188 332.476562 580.761719 333.792969 580.761719 C 335.710938 580.761719 336.855469 579.046875 336.855469 576.894531 Z M 336.855469 576.894531 "/>
<g clip-path="url(#clip4)" clip-rule="nonzero">
<path style="fill:none;stroke-width:1;stroke-linecap:square;stroke-linejoin:miter;stroke:rgb(0%,0%,0%);stroke-opacity:1;stroke-miterlimit:3.25;" d="M 525.800781 333.941406 L 1041.800781 333.941406 "/>
</g>
<g clip-path="url(#clip5)" clip-rule="nonzero">
<path style="fill:none;stroke-width:1;stroke-linecap:square;stroke-linejoin:miter;stroke:rgb(0%,0%,0%);stroke-opacity:1;stroke-miterlimit:3.25;" d="M 525.800781 464.265625 L 1041.800781 203.617188 "/>
</g>
<path style="fill-rule:nonzero;fill:rgb(50%,50%,50%);fill-opacity:1;stroke-width:1;stroke-linecap:square;stroke-linejoin:miter;stroke:rgb(50%,50%,50%);stroke-opacity:1;stroke-miterlimit:3.25;" d="M 926.40625 383.226562 L 931.277344 365.820312 L 786.234375 325.238281 L 781.367188 342.644531 Z M 926.40625 383.226562 "/>
<path style="fill:none;stroke-width:2;stroke-linecap:square;stroke-linejoin:miter;stroke:rgb(0%,0%,0%);stroke-opacity:1;stroke-miterlimit:3.25;" d="M 926.40625 383.226562 L 931.277344 365.820312 L 786.234375 325.238281 L 781.367188 342.644531 Z M 926.40625 383.226562 "/>
<path style="fill-rule:nonzero;fill:rgb(84.999084%,84.999084%,84.999084%);fill-opacity:1;stroke-width:2;stroke-linecap:square;stroke-linejoin:miter;stroke:rgb(84.999084%,84.999084%,84.999084%);stroke-opacity:1;stroke-miterlimit:3.25;" d="M 920.367188 377.65625 L 937.320312 371.390625 L 885.113281 230.117188 L 868.160156 236.378906 Z M 920.367188 377.65625 "/>
<path style="fill:none;stroke-width:2;stroke-linecap:square;stroke-linejoin:miter;stroke:rgb(0%,0%,0%);stroke-opacity:1;stroke-miterlimit:3.25;" d="M 920.367188 377.65625 L 937.320312 371.390625 L 885.113281 230.117188 L 868.160156 236.378906 Z M 920.367188 377.65625 "/>
<path style="fill-rule:evenodd;fill:rgb(99.998474%,99.998474%,99.998474%);fill-opacity:1;stroke-width:2;stroke-linecap:square;stroke-linejoin:miter;stroke:rgb(0%,0%,0%);stroke-opacity:1;stroke-miterlimit:3.25;" d="M 942.398438 374.523438 C 942.398438 370.929688 940.96875 367.480469 938.429688 364.9375 C 935.886719 362.398438 932.4375 360.96875 928.84375 360.96875 C 925.246094 360.96875 921.800781 362.398438 919.257812 364.9375 C 916.714844 367.480469 915.289062 370.929688 915.289062 374.523438 C 915.289062 378.117188 916.714844 381.566406 919.257812 384.109375 C 921.800781 386.652344 925.246094 388.078125 928.84375 388.078125 C 932.4375 388.078125 935.886719 386.652344 938.429688 384.109375 C 940.96875 381.566406 942.398438 378.117188 942.398438 374.523438 Z M 942.398438 374.523438 "/>
<path style="fill-rule:evenodd;fill:rgb(99.998474%,99.998474%,99.998474%);fill-opacity:1;stroke-width:2;stroke-linecap:square;stroke-linejoin:miter;stroke:rgb(0%,0%,0%);stroke-opacity:1;stroke-miterlimit:3.25;" d="M 942.398438 374.523438 C 942.398438 370.929688 940.96875 367.480469 938.429688 364.9375 C 935.886719 362.398438 932.4375 360.96875 928.84375 360.96875 C 925.246094 360.96875 921.800781 362.398438 919.257812 364.9375 C 916.714844 367.480469 915.289062 370.929688 915.289062 374.523438 C 915.289062 378.117188 916.714844 381.566406 919.257812 384.109375 C 921.800781 386.652344 925.246094 388.078125 928.84375 388.078125 C 932.4375 388.078125 935.886719 386.652344 938.429688 384.109375 C 940.96875 381.566406 942.398438 378.117188 942.398438 374.523438 Z M 942.398438 374.523438 "/>
<g clip-path="url(#clip6)" clip-rule="nonzero">
<path style="fill:none;stroke-width:1;stroke-linecap:square;stroke-linejoin:miter;stroke:rgb(0%,0%,0%);stroke-opacity:1;stroke-miterlimit:3.25;" d="M 1048 333.941406 L 1564 333.941406 "/>
</g>
<g clip-path="url(#clip7)" clip-rule="nonzero">
<path style="fill:none;stroke-width:1;stroke-linecap:square;stroke-linejoin:miter;stroke:rgb(0%,0%,0%);stroke-opacity:1;stroke-miterlimit:3.25;" d="M 1048 464.265625 L 1564 203.617188 "/>
</g>
<path style="fill-rule:nonzero;fill:rgb(50%,50%,50%);fill-opacity:1;stroke-width:1;stroke-linecap:square;stroke-linejoin:miter;stroke:rgb(50%,50%,50%);stroke-opacity:1;stroke-miterlimit:3.25;" d="M 1375.023438 468.113281 L 1390.570312 458.898438 L 1313.773438 329.332031 L 1298.226562 338.550781 Z M 1375.023438 468.113281 "/>
<path style="fill:none;stroke-width:2;stroke-linecap:square;stroke-linejoin:miter;stroke:rgb(0%,0%,0%);stroke-opacity:1;stroke-miterlimit:3.25;" d="M 1375.023438 468.113281 L 1390.570312 458.898438 L 1313.773438 329.332031 L 1298.226562 338.550781 Z M 1375.023438 468.113281 "/>
<path style="fill-rule:nonzero;fill:rgb(84.999084%,84.999084%,84.999084%);fill-opacity:1;stroke-width:2;stroke-linecap:square;stroke-linejoin:miter;stroke:rgb(84.999084%,84.999084%,84.999084%);stroke-opacity:1;stroke-miterlimit:3.25;" d="M 1375.394531 468.6875 L 1390.199219 458.320312 L 1303.820312 334.941406 L 1289.011719 345.308594 Z M 1375.394531 468.6875 "/>
<path style="fill:none;stroke-width:2;stroke-linecap:square;stroke-linejoin:miter;stroke:rgb(0%,0%,0%);stroke-opacity:1;stroke-miterlimit:3.25;" d="M 1375.394531 468.6875 L 1390.199219 458.320312 L 1303.820312 334.941406 L 1289.011719 345.308594 Z M 1375.394531 468.6875 "/>
<path style="fill-rule:evenodd;fill:rgb(99.998474%,99.998474%,99.998474%);fill-opacity:1;stroke-width:2;stroke-linecap:square;stroke-linejoin:miter;stroke:rgb(0%,0%,0%);stroke-opacity:1;stroke-miterlimit:3.25;" d="M 1396.351562 463.503906 C 1396.351562 459.910156 1394.921875 456.460938 1392.382812 453.917969 C 1389.839844 451.378906 1386.390625 449.949219 1382.796875 449.949219 C 1379.203125 449.949219 1375.753906 451.378906 1373.210938 453.917969 C 1370.667969 456.460938 1369.242188 459.910156 1369.242188 463.503906 C 1369.242188 467.101562 1370.667969 470.546875 1373.210938 473.089844 C 1375.753906 475.632812 1379.203125 477.058594 1382.796875 477.058594 C 1386.390625 477.058594 1389.839844 475.632812 1392.382812 473.089844 C 1394.921875 470.546875 1396.351562 467.101562 1396.351562 463.503906 Z M 1396.351562 463.503906 "/>
<path style="fill-rule:evenodd;fill:rgb(99.998474%,99.998474%,99.998474%);fill-opacity:1;stroke-width:2;stroke-linecap:square;stroke-linejoin:miter;stroke:rgb(0%,0%,0%);stroke-opacity:1;stroke-miterlimit:3.25;" d="M 1396.351562 463.503906 C 1396.351562 459.910156 1394.921875 456.460938 1392.382812 453.917969 C 1389.839844 451.378906 1386.390625 449.949219 1382.796875 449.949219 C 1379.203125 449.949219 1375.753906 451.378906 1373.210938 453.917969 C 1370.667969 456.460938 1369.242188 459.910156 1369.242188 463.503906 C 1369.242188 467.101562 1370.667969 470.546875 1373.210938 473.089844 C 1375.753906 475.632812 1379.203125 477.058594 1382.796875 477.058594 C 1386.390625 477.058594 1389.839844 475.632812 1392.382812 473.089844 C 1394.921875 470.546875 1396.351562 467.101562 1396.351562 463.503906 Z M 1396.351562 463.503906 "/>
<g clip-path="url(#clip8)" clip-rule="nonzero">
<path style="fill:none;stroke-width:1;stroke-linecap:square;stroke-linejoin:miter;stroke:rgb(0%,0%,0%);stroke-opacity:1;stroke-miterlimit:3.25;" d="M 1570.199219 333.941406 L 2086.199219 333.941406 "/>
</g>
<g clip-path="url(#clip9)" clip-rule="nonzero">
<path style="fill:none;stroke-width:1;stroke-linecap:square;stroke-linejoin:miter;stroke:rgb(0%,0%,0%);stroke-opacity:1;stroke-miterlimit:3.25;" d="M 1570.199219 464.265625 L 2086.199219 203.617188 "/>
</g>
<path style="fill-rule:nonzero;fill:rgb(50%,50%,50%);fill-opacity:1;stroke-width:1;stroke-linecap:square;stroke-linejoin:miter;stroke:rgb(50%,50%,50%);stroke-opacity:1;stroke-miterlimit:3.25;" d="M 1747.71875 461.570312 L 1763.554688 470.277344 L 1836.117188 338.296875 L 1820.28125 329.589844 Z M 1747.71875 461.570312 "/>
<path style="fill:none;stroke-width:2;stroke-linecap:square;stroke-linejoin:miter;stroke:rgb(0%,0%,0%);stroke-opacity:1;stroke-miterlimit:3.25;" d="M 1747.71875 461.570312 L 1763.554688 470.277344 L 1836.117188 338.296875 L 1820.28125 329.589844 Z M 1747.71875 461.570312 "/>
<path style="fill-rule:nonzero;fill:rgb(84.999084%,84.999084%,84.999084%);fill-opacity:1;stroke-width:2;stroke-linecap:square;stroke-linejoin:miter;stroke:rgb(84.999084%,84.999084%,84.999084%);stroke-opacity:1;stroke-miterlimit:3.25;" d="M 1754.441406 474.878906 L 1756.832031 456.964844 L 1607.542969 437.050781 L 1605.152344 454.964844 Z M 1754.441406 474.878906 "/>
<path style="fill:none;stroke-width:2;stroke-linecap:square;stroke-linejoin:miter;stroke:rgb(0%,0%,0%);stroke-opacity:1;stroke-miterlimit:3.25;" d="M 1754.441406 474.878906 L 1756.832031 456.964844 L 1607.542969 437.050781 L 1605.152344 454.964844 Z M 1754.441406 474.878906 "/>
<path style="fill-rule:evenodd;fill:rgb(99.998474%,99.998474%,99.998474%);fill-opacity:1;stroke-width:2;stroke-linecap:square;stroke-linejoin:miter;stroke:rgb(0%,0%,0%);stroke-opacity:1;stroke-miterlimit:3.25;" d="M 1769.191406 465.921875 C 1769.191406 462.328125 1767.765625 458.878906 1765.222656 456.339844 C 1762.679688 453.796875 1759.234375 452.367188 1755.636719 452.367188 C 1752.042969 452.367188 1748.59375 453.796875 1746.054688 456.339844 C 1743.511719 458.878906 1742.082031 462.328125 1742.082031 465.921875 C 1742.082031 469.519531 1743.511719 472.964844 1746.054688 475.507812 C 1748.59375 478.050781 1752.042969 479.476562 1755.636719 479.476562 C 1759.234375 479.476562 1762.679688 478.050781 1765.222656 475.507812 C 1767.765625 472.964844 1769.191406 469.519531 1769.191406 465.921875 Z M 1769.191406 465.921875 "/>
<path style="fill-rule:evenodd;fill:rgb(99.998474%,99.998474%,99.998474%);fill-opacity:1;stroke-width:2;stroke-linecap:square;stroke-linejoin:miter;stroke:rgb(0%,0%,0%);stroke-opacity:1;stroke-miterlimit:3.25;" d="M 1769.191406 465.921875 C 1769.191406 462.328125 1767.765625 458.878906 1765.222656 456.339844 C 1762.679688 453.796875 1759.234375 452.367188 1755.636719 452.367188 C 1752.042969 452.367188 1748.59375 453.796875 1746.054688 456.339844 C 1743.511719 458.878906 1742.082031 462.328125 1742.082031 465.921875 C 1742.082031 469.519531 1743.511719 472.964844 1746.054688 475.507812 C 1748.59375 478.050781 1752.042969 479.476562 1755.636719 479.476562 C 1759.234375 479.476562 1762.679688 478.050781 1765.222656 475.507812 C 1767.765625 472.964844 1769.191406 469.519531 1769.191406 465.921875 Z M 1769.191406 465.921875 "/>
<path style=" stroke:none;fill-rule:nonzero;fill:rgb(0%,0%,0%);fill-opacity:1;" d="M 0 1 L 2089.800781 1 L 2089.800781 3 L 0 3 Z M 0 1 "/>
<path style=" stroke:none;fill-rule:nonzero;fill:rgb(50%,50%,50%);fill-opacity:1;" d="M 1 90.199219 L 2088.800781 90.199219 L 2088.800781 91.199219 L 1 91.199219 Z M 1 90.199219 "/>
<path style=" stroke:none;fill-rule:nonzero;fill:rgb(0%,0%,0%);fill-opacity:1;" d="M 0 597.398438 L 2089.800781 597.398438 L 2089.800781 599.398438 L 0 599.398438 Z M 0 597.398438 "/>
<path style=" stroke:none;fill-rule:nonzero;fill:rgb(0%,0%,0%);fill-opacity:1;" d="M 1 3 L 1 597.398438 L 0 597.398438 L 0 3 Z M 1 3 "/>
<path style=" stroke:none;fill-rule:nonzero;fill:rgb(0%,0%,0%);fill-opacity:1;" d="M 523.199219 3 L 523.199219 597.398438 L 522.199219 597.398438 L 522.199219 3 Z M 523.199219 3 "/>
<path style=" stroke:none;fill-rule:nonzero;fill:rgb(0%,0%,0%);fill-opacity:1;" d="M 1045.398438 3 L 1045.398438 597.398438 L 1044.398438 597.398438 L 1044.398438 3 Z M 1045.398438 3 "/>
<path style=" stroke:none;fill-rule:nonzero;fill:rgb(0%,0%,0%);fill-opacity:1;" d="M 1567.601562 3 L 1567.601562 597.398438 L 1566.601562 597.398438 L 1566.601562 3 Z M 1567.601562 3 "/>
<path style=" stroke:none;fill-rule:nonzero;fill:rgb(0%,0%,0%);fill-opacity:1;" d="M 2089.800781 3 L 2089.800781 597.398438 L 2088.800781 597.398438 L 2088.800781 3 Z M 2089.800781 3 "/>
</g>
</svg>
