<?xml version="1.0" encoding="UTF-8"?>
<svg xmlns="http://www.w3.org/2000/svg" xmlns:xlink="http://www.w3.org/1999/xlink" width="2090pt" height="601pt" viewBox="0 0 2090 601" version="1.1">
<defs>
<clipPath id="clip1">
  <path d="M 30 511 L 492.960938 511 L 492.960938 514 L 30 514 Z M 30 511 "/>
</clipPath>
<clipPath id="clip2">
  <path d="M 229.441406 529.441406 L 292.558594 529.441406 L 292.558594 593.761719 L 229.441406 593.761719 Z M 229.441406 529.441406 "/>
</clipPath>
<clipPath id="clip3">
  <path d="M 552.238281 512 L 1015.199219 512 L 1015.199219 514 L 552.238281 514 Z M 552.238281 512 "/>
</clipPath>
<clipPath id="clip4">
  <path d="M 1074.480469 512 L 1537.441406 512 L 1537.441406 514 L 1074.480469 514 Z M 1074.480469 512 "/>
</clipPath>
<clipPath id="clip5">
  <path d="M 1596.71875 512 L 2059.679688 512 L 2059.679688 514 L 1596.71875 514 Z M 1596.71875 512 "/>
</clipPath>
</defs>
<g id="surface16">
<path style=" stroke:none;fill-rule:evenodd;fill:rgb(0%,0%,0%);fill-opacity:1;" d="M 186.972656 52.273438 C 186.972656 51.914062 186.738281 51.734375 186.378906 51.734375 C 186.378906 51.734375 186.019531 51.734375 185.902344 51.976562 C 185.902344 51.976562 185.785156 52.09375 185.363281 53.046875 C 184.113281 56.03125 181.375 60.203125 177.921875 60.203125 C 176.132812 60.203125 176.007812 58.710938 176.007812 57.398438 C 176.007812 57.398438 176.007812 56.210938 176.1875 55.492188 L 180.835938 36.835938 L 186.316406 36.835938 C 187.449219 36.835938 188.050781 36.835938 188.050781 35.765625 C 188.050781 35.109375 187.691406 35.109375 186.496094 35.109375 L 181.257812 35.109375 L 183.460938 26.40625 C 183.703125 25.574219 183.703125 25.453125 183.703125 25.039062 C 183.703125 24.078125 182.921875 23.550781 182.148438 23.550781 C 181.671875 23.550781 180.304688 23.726562 179.828125 25.636719 L 177.5 35.109375 L 171.898438 35.109375 C 170.710938 35.109375 170.171875 35.109375 170.171875 36.242188 C 170.171875 36.835938 170.585938 36.835938 171.71875 36.835938 L 177.023438 36.835938 L 173.09375 52.570312 C 172.617188 54.65625 172.4375 55.25 172.4375 56.03125 C 172.4375 58.828125 174.40625 61.390625 177.742188 61.390625 C 183.757812 61.390625 186.972656 52.6875 186.972656 52.273438 Z M 186.972656 52.273438 "/>
<path style=" stroke:none;fill-rule:evenodd;fill:rgb(0%,0%,0%);fill-opacity:1;" d="M 248.492188 40.414062 C 248.492188 39.28125 247.476562 39.28125 246.585938 39.28125 L 211.480469 39.28125 C 210.644531 39.28125 209.574219 39.28125 209.574219 40.351562 C 209.574219 41.484375 210.589844 41.484375 211.480469 41.484375 L 246.585938 41.484375 C 247.414062 41.484375 248.492188 41.484375 248.492188 40.414062 Z M 248.492188 51.5 C 248.492188 50.367188 247.476562 50.367188 246.585938 50.367188 L 211.480469 50.367188 C 210.644531 50.367188 209.574219 50.367188 209.574219 51.4375 C 209.574219 52.570312 210.589844 52.570312 211.480469 52.570312 L 246.585938 52.570312 C 247.414062 52.570312 248.492188 52.570312 248.492188 51.5 Z M 248.492188 51.5 "/>
<path style=" stroke:none;fill-rule:evenodd;fill:rgb(0%,0%,0%);fill-opacity:1;" d="M 295.550781 41.726562 C 295.550781 36.773438 295.253906 31.953125 293.105469 27.421875 C 290.660156 22.472656 286.371094 21.167969 283.449219 21.167969 C 279.996094 21.167969 275.761719 22.890625 273.558594 27.835938 C 271.886719 31.59375 271.292969 35.289062 271.292969 41.726562 C 271.292969 47.507812 271.707031 51.859375 273.855469 56.085938 C 276.175781 60.617188 280.292969 62.046875 283.386719 62.046875 C 288.574219 62.046875 291.558594 58.945312 293.285156 55.492188 C 295.433594 51.023438 295.550781 45.179688 295.550781 41.726562 Z M 291.019531 41.007812 C 291.019531 45 291.019531 49.53125 290.363281 53.164062 C 289.230469 59.726562 285.480469 60.859375 283.386719 60.859375 C 281.480469 60.859375 277.605469 59.78125 276.480469 53.289062 C 275.824219 49.710938 275.824219 45.179688 275.824219 41.007812 C 275.824219 36.125 275.824219 31.710938 276.777344 28.195312 C 277.785156 24.203125 280.824219 22.355469 283.386719 22.355469 C 285.652344 22.355469 289.113281 23.726562 290.246094 28.851562 C 291.019531 32.25 291.019531 36.953125 291.019531 41.007812 Z M 291.019531 41.007812 "/>
<path style=" stroke:none;fill-rule:evenodd;fill:rgb(0%,0%,0%);fill-opacity:1;" d="M 327.273438 53.40625 L 327.273438 50.007812 L 325.960938 50.007812 L 325.960938 53.289062 C 325.960938 57.578125 324.234375 60.078125 321.90625 60.078125 C 317.859375 60.078125 317.859375 54.539062 317.859375 53.523438 L 317.859375 36.835938 L 326.257812 36.835938 L 326.257812 35.109375 L 317.859375 35.109375 L 317.859375 24.140625 L 316.546875 24.140625 C 316.484375 29.742188 314.34375 35.46875 308.914062 35.648438 L 308.914062 36.835938 L 313.984375 36.835938 L 313.984375 53.40625 C 313.984375 60.023438 318.390625 61.390625 321.554688 61.390625 C 325.304688 61.390625 327.273438 57.695312 327.273438 53.40625 Z M 327.273438 53.40625 "/>
<path style=" stroke:none;fill-rule:evenodd;fill:rgb(0%,0%,0%);fill-opacity:1;" d="M 350.269531 57.125 C 350.269531 52.867188 349.832031 50.289062 348.519531 47.742188 C 346.78125 44.25 343.5625 43.375 341.375 43.375 C 336.367188 43.375 334.539062 47.109375 333.984375 48.21875 C 332.554688 51.125 332.476562 55.054688 332.476562 57.125 C 332.476562 59.742188 332.59375 63.757812 334.5 66.933594 C 336.328125 69.871094 339.265625 70.628906 341.375 70.628906 C 343.28125 70.628906 346.691406 70.035156 348.6875 66.097656 C 350.152344 63.242188 350.269531 59.703125 350.269531 57.125 Z M 346.730469 56.648438 C 346.730469 58.992188 346.730469 62.5625 346.257812 64.789062 C 345.429688 68.957031 342.6875 69.511719 341.375 69.511719 C 340.023438 69.511719 337.28125 68.878906 336.445312 64.710938 C 336.007812 62.445312 336.007812 58.710938 336.007812 56.648438 C 336.007812 53.90625 336.007812 51.125 336.445312 48.9375 C 337.28125 44.882812 340.382812 44.484375 341.375 44.484375 C 342.726562 44.484375 345.46875 45.164062 346.257812 48.773438 C 346.730469 50.960938 346.730469 53.945312 346.730469 56.648438 Z M 346.730469 56.648438 "/>
<path style=" stroke:none;fill-rule:evenodd;fill:rgb(0%,0%,0%);fill-opacity:1;" d="M 715.683594 41.726562 C 715.683594 36.773438 715.386719 31.953125 713.238281 27.421875 C 710.792969 22.46875 706.503906 21.164062 703.582031 21.164062 C 700.128906 21.164062 695.894531 22.890625 693.691406 27.835938 C 692.019531 31.59375 691.425781 35.289062 691.425781 41.726562 C 691.425781 47.507812 691.839844 51.859375 693.988281 56.085938 C 696.308594 60.617188 700.425781 62.046875 703.519531 62.046875 C 708.707031 62.046875 711.691406 58.945312 713.417969 55.492188 C 715.566406 51.023438 715.683594 45.179688 715.683594 41.726562 Z M 711.152344 41.007812 C 711.152344 45 711.152344 49.53125 710.496094 53.164062 C 709.363281 59.726562 705.613281 60.859375 703.519531 60.859375 C 701.613281 60.859375 697.738281 59.78125 696.613281 53.289062 C 695.957031 49.710938 695.957031 45.179688 695.957031 41.007812 C 695.957031 36.125 695.957031 31.710938 696.910156 28.195312 C 697.917969 24.203125 700.957031 22.351562 703.519531 22.351562 C 705.785156 22.351562 709.246094 23.726562 710.378906 28.851562 C 711.152344 32.25 711.152344 36.953125 711.152344 41.007812 Z M 711.152344 41.007812 "/>
<path style=" stroke:none;fill-rule:evenodd;fill:rgb(0%,0%,0%);fill-opacity:1;" d="M 728.949219 57.9375 C 728.949219 56.210938 727.519531 55.015625 726.089844 55.015625 C 724.355469 55.015625 723.167969 56.445312 723.167969 57.875 C 723.167969 59.601562 724.597656 60.796875 726.027344 60.796875 C 727.753906 60.796875 728.949219 59.367188 728.949219 57.9375 Z M 728.949219 57.9375 "/>
<path style=" stroke:none;fill-rule:evenodd;fill:rgb(0%,0%,0%);fill-opacity:1;" d="M 760.703125 50.78125 L 759.390625 50.78125 C 759.210938 51.796875 758.734375 55.078125 758.140625 56.03125 C 757.71875 56.5625 754.320312 56.5625 752.539062 56.5625 L 741.511719 56.5625 C 743.117188 55.195312 746.757812 51.382812 748.304688 49.953125 C 757.367188 41.601562 760.703125 38.507812 760.703125 32.601562 C 760.703125 25.75 755.28125 21.164062 748.367188 21.164062 C 741.453125 21.164062 737.402344 27.0625 737.402344 32.1875 C 737.402344 35.226562 740.027344 35.226562 740.199219 35.226562 C 741.453125 35.226562 743 34.335938 743 32.429688 C 743 30.757812 741.867188 29.625 740.199219 29.625 C 739.664062 29.625 739.539062 29.625 739.367188 29.6875 C 740.5 25.632812 743.71875 22.890625 747.585938 22.890625 C 752.65625 22.890625 755.757812 27.125 755.757812 32.601562 C 755.757812 37.671875 752.835938 42.078125 749.4375 45.898438 L 737.402344 59.367188 L 737.402344 60.796875 L 759.148438 60.796875 Z M 760.703125 50.78125 "/>
<path style=" stroke:none;fill-rule:evenodd;fill:rgb(0%,0%,0%);fill-opacity:1;" d="M 788.414062 60.796875 L 788.414062 59.070312 L 786.5625 59.070312 C 781.320312 59.070312 781.140625 58.351562 781.140625 56.210938 L 781.140625 22.59375 C 781.140625 21.222656 781.140625 21.164062 779.953125 21.164062 C 778.515625 22.773438 775.539062 24.976562 769.398438 24.976562 L 769.398438 26.703125 C 770.773438 26.703125 773.75 26.703125 777.03125 25.15625 L 777.03125 56.210938 C 777.03125 58.351562 776.851562 59.070312 771.609375 59.070312 L 769.757812 59.070312 L 769.757812 60.796875 C 771.367188 60.679688 777.148438 60.679688 779.117188 60.679688 C 781.085938 60.679688 786.804688 60.679688 788.414062 60.796875 Z M 788.414062 60.796875 "/>
<path style=" stroke:none;fill-rule:evenodd;fill:rgb(0%,0%,0%);fill-opacity:1;" d="M 819.199219 50.78125 L 817.886719 50.78125 C 817.707031 51.796875 817.230469 55.078125 816.636719 56.03125 C 816.214844 56.5625 812.816406 56.5625 811.035156 56.5625 L 800.003906 56.5625 C 801.613281 55.195312 805.253906 51.382812 806.800781 49.953125 C 815.863281 41.601562 819.199219 38.507812 819.199219 32.601562 C 819.199219 25.75 813.777344 21.164062 806.863281 21.164062 C 799.949219 21.164062 795.894531 27.0625 795.894531 32.1875 C 795.894531 35.226562 798.519531 35.226562 798.691406 35.226562 C 799.949219 35.226562 801.496094 34.335938 801.496094 32.429688 C 801.496094 30.757812 800.363281 29.625 798.691406 29.625 C 798.160156 29.625 798.035156 29.625 797.863281 29.6875 C 798.996094 25.632812 802.214844 22.890625 806.082031 22.890625 C 811.152344 22.890625 814.253906 27.125 814.253906 32.601562 C 814.253906 37.671875 811.332031 42.078125 807.933594 45.898438 L 795.894531 59.367188 L 795.894531 60.796875 L 817.644531 60.796875 Z M 819.199219 50.78125 "/>
<path style=" stroke:none;fill-rule:evenodd;fill:rgb(0%,0%,0%);fill-opacity:1;" d="M 851.898438 53.40625 L 851.898438 50.007812 L 850.585938 50.007812 L 850.585938 53.289062 C 850.585938 57.578125 848.859375 60.078125 846.53125 60.078125 C 842.484375 60.078125 842.484375 54.539062 842.484375 53.523438 L 842.484375 36.835938 L 850.882812 36.835938 L 850.882812 35.109375 L 842.484375 35.109375 L 842.484375 24.140625 L 841.171875 24.140625 C 841.109375 29.742188 838.96875 35.46875 833.542969 35.648438 L 833.542969 36.835938 L 838.609375 36.835938 L 838.609375 53.40625 C 838.609375 60.023438 843.015625 61.390625 846.179688 61.390625 C 849.929688 61.390625 851.898438 57.695312 851.898438 53.40625 Z M 851.898438 53.40625 "/>
<path style=" stroke:none;fill-rule:evenodd;fill:rgb(0%,0%,0%);fill-opacity:1;" d="M 874.398438 57.125 C 874.398438 52.867188 873.960938 50.289062 872.648438 47.742188 C 870.90625 44.25 867.6875 43.375 865.5 43.375 C 860.492188 43.375 858.664062 47.109375 858.109375 48.21875 C 856.679688 51.125 856.601562 55.054688 856.601562 57.125 C 856.601562 59.742188 856.71875 63.757812 858.625 66.9375 C 860.453125 69.871094 863.390625 70.628906 865.5 70.628906 C 867.40625 70.628906 870.820312 70.039062 872.8125 66.101562 C 874.28125 63.242188 874.398438 59.703125 874.398438 57.125 Z M 870.859375 56.648438 C 870.859375 58.992188 870.859375 62.5625 870.382812 64.789062 C 869.554688 68.960938 866.8125 69.515625 865.5 69.515625 C 864.148438 69.515625 861.40625 68.882812 860.570312 64.710938 C 860.132812 62.445312 860.132812 58.710938 860.132812 56.648438 C 860.132812 53.90625 860.132812 51.125 860.570312 48.9375 C 861.40625 44.882812 864.507812 44.484375 865.5 44.484375 C 866.851562 44.484375 869.59375 45.164062 870.382812 48.773438 C 870.859375 50.960938 870.859375 53.945312 870.859375 56.648438 Z M 870.859375 56.648438 "/>
<path style=" stroke:none;fill-rule:evenodd;fill:rgb(0%,0%,0%);fill-opacity:1;" d="M 1237.882812 41.726562 C 1237.882812 36.773438 1237.585938 31.953125 1235.4375 27.421875 C 1232.992188 22.46875 1228.703125 21.164062 1225.78125 21.164062 C 1222.328125 21.164062 1218.097656 22.890625 1215.894531 27.835938 C 1214.222656 31.59375 1213.628906 35.289062 1213.628906 41.726562 C 1213.628906 47.507812 1214.042969 51.859375 1216.191406 56.085938 C 1218.511719 60.617188 1222.625 62.046875 1225.71875 62.046875 C 1230.90625 62.046875 1233.890625 58.945312 1235.617188 55.492188 C 1237.765625 51.023438 1237.882812 45.179688 1237.882812 41.726562 Z M 1233.351562 41.007812 C 1233.351562 45 1233.351562 49.53125 1232.695312 53.164062 C 1231.5625 59.726562 1227.8125 60.859375 1225.71875 60.859375 C 1223.8125 60.859375 1219.941406 59.78125 1218.816406 53.289062 C 1218.160156 49.710938 1218.160156 45.179688 1218.160156 41.007812 C 1218.160156 36.125 1218.160156 31.710938 1219.113281 28.195312 C 1220.121094 24.203125 1223.15625 22.351562 1225.71875 22.351562 C 1227.984375 22.351562 1231.445312 23.726562 1232.578125 28.851562 C 1233.351562 32.25 1233.351562 36.953125 1233.351562 41.007812 Z M 1233.351562 41.007812 "/>
<path style=" stroke:none;fill-rule:evenodd;fill:rgb(0%,0%,0%);fill-opacity:1;" d="M 1251.148438 57.9375 C 1251.148438 56.210938 1249.71875 55.015625 1248.289062 55.015625 C 1246.554688 55.015625 1245.367188 56.445312 1245.367188 57.875 C 1245.367188 59.601562 1246.796875 60.796875 1248.226562 60.796875 C 1249.953125 60.796875 1251.148438 59.367188 1251.148438 57.9375 Z M 1251.148438 57.9375 "/>
<path style=" stroke:none;fill-rule:evenodd;fill:rgb(0%,0%,0%);fill-opacity:1;" d="M 1284.214844 50.84375 L 1284.214844 49.117188 L 1278.191406 49.117188 L 1278.191406 21.996094 C 1278.191406 20.871094 1278.191406 20.5625 1277.355469 20.5625 C 1276.878906 20.5625 1276.699219 20.5625 1276.222656 21.285156 L 1258.289062 49.117188 L 1258.289062 50.84375 L 1273.960938 50.84375 L 1273.960938 56.265625 C 1273.960938 58.46875 1273.839844 59.070312 1269.492188 59.070312 L 1268.304688 59.070312 L 1268.304688 60.796875 C 1269.667969 60.679688 1274.378906 60.679688 1276.042969 60.679688 C 1277.714844 60.679688 1282.480469 60.679688 1283.855469 60.796875 L 1283.855469 59.070312 L 1282.660156 59.070312 C 1278.371094 59.070312 1278.191406 58.46875 1278.191406 56.265625 L 1278.191406 50.84375 Z M 1274.261719 49.117188 L 1259.78125 49.117188 L 1274.261719 26.648438 Z M 1274.261719 49.117188 "/>
<path style=" stroke:none;fill-rule:evenodd;fill:rgb(0%,0%,0%);fill-opacity:1;" d="M 1312.402344 50.78125 L 1311.089844 50.78125 C 1310.910156 51.796875 1310.433594 55.078125 1309.839844 56.03125 C 1309.417969 56.5625 1306.019531 56.5625 1304.238281 56.5625 L 1293.207031 56.5625 C 1294.816406 55.195312 1298.457031 51.382812 1300.003906 49.953125 C 1309.066406 41.601562 1312.402344 38.507812 1312.402344 32.601562 C 1312.402344 25.75 1306.980469 21.164062 1300.066406 21.164062 C 1293.152344 21.164062 1289.097656 27.0625 1289.097656 32.1875 C 1289.097656 35.226562 1291.722656 35.226562 1291.894531 35.226562 C 1293.152344 35.226562 1294.699219 34.335938 1294.699219 32.429688 C 1294.699219 30.757812 1293.566406 29.625 1291.894531 29.625 C 1291.363281 29.625 1291.238281 29.625 1291.066406 29.6875 C 1292.199219 25.632812 1295.417969 22.890625 1299.285156 22.890625 C 1304.355469 22.890625 1307.457031 27.125 1307.457031 32.601562 C 1307.457031 37.671875 1304.535156 42.078125 1301.136719 45.898438 L 1289.097656 59.367188 L 1289.097656 60.796875 L 1310.847656 60.796875 Z M 1312.402344 50.78125 "/>
<path style=" stroke:none;fill-rule:evenodd;fill:rgb(0%,0%,0%);fill-opacity:1;" d="M 1341.875 50.601562 C 1341.875 45.125 1337.460938 40.828125 1331.742188 39.820312 C 1336.929688 38.328125 1340.265625 33.976562 1340.265625 29.328125 C 1340.265625 24.617188 1335.375 21.164062 1329.59375 21.164062 C 1323.632812 21.164062 1319.226562 24.796875 1319.226562 29.148438 C 1319.226562 31.53125 1321.074219 32.007812 1321.972656 32.007812 C 1323.21875 32.007812 1324.648438 31.117188 1324.648438 29.328125 C 1324.648438 27.421875 1323.21875 26.585938 1321.910156 26.585938 C 1321.546875 26.585938 1321.433594 26.585938 1321.25 26.648438 C 1323.519531 22.59375 1329.117188 22.59375 1329.414062 22.59375 C 1331.382812 22.59375 1335.257812 23.484375 1335.257812 29.328125 C 1335.257812 30.460938 1335.078125 33.796875 1333.351562 36.359375 C 1331.5625 38.984375 1329.539062 39.164062 1327.929688 39.21875 L 1326.140625 39.398438 C 1325.125 39.460938 1324.890625 39.515625 1324.890625 40.054688 C 1324.890625 40.648438 1325.1875 40.648438 1326.257812 40.648438 L 1329 40.648438 C 1334.0625 40.648438 1336.328125 44.820312 1336.328125 50.546875 C 1336.328125 58.351562 1332.28125 60.4375 1329.359375 60.4375 C 1326.5 60.4375 1321.609375 59.070312 1319.886719 55.132812 C 1321.789062 55.429688 1323.519531 54.359375 1323.519531 52.210938 C 1323.519531 50.484375 1322.269531 49.296875 1320.597656 49.296875 C 1319.164062 49.296875 1317.621094 50.125 1317.621094 52.390625 C 1317.621094 57.695312 1322.921875 62.046875 1329.539062 62.046875 C 1336.625 62.046875 1341.875 56.625 1341.875 50.601562 Z M 1341.875 50.601562 "/>
<path style=" stroke:none;fill-rule:evenodd;fill:rgb(0%,0%,0%);fill-opacity:1;" d="M 1374.097656 53.40625 L 1374.097656 50.007812 L 1372.785156 50.007812 L 1372.785156 53.289062 C 1372.785156 57.578125 1371.058594 60.078125 1368.734375 60.078125 C 1364.6875 60.078125 1364.6875 54.539062 1364.6875 53.523438 L 1364.6875 36.835938 L 1373.082031 36.835938 L 1373.082031 35.109375 L 1364.6875 35.109375 L 1364.6875 24.140625 L 1363.375 24.140625 C 1363.3125 29.742188 1361.171875 35.46875 1355.742188 35.648438 L 1355.742188 36.835938 L 1360.8125 36.835938 L 1360.8125 53.40625 C 1360.8125 60.023438 1365.21875 61.390625 1368.382812 61.390625 C 1372.128906 61.390625 1374.097656 57.695312 1374.097656 53.40625 Z M 1374.097656 53.40625 "/>
<path style=" stroke:none;fill-rule:evenodd;fill:rgb(0%,0%,0%);fill-opacity:1;" d="M 1396.597656 57.125 C 1396.597656 52.867188 1396.160156 50.289062 1394.847656 47.742188 C 1393.105469 44.25 1389.886719 43.375 1387.699219 43.375 C 1382.691406 43.375 1380.863281 47.109375 1380.308594 48.21875 C 1378.878906 51.125 1378.800781 55.054688 1378.800781 57.125 C 1378.800781 59.742188 1378.917969 63.757812 1380.824219 66.9375 C 1382.652344 69.871094 1385.589844 70.628906 1387.699219 70.628906 C 1389.605469 70.628906 1393.019531 70.039062 1395.011719 66.101562 C 1396.480469 63.242188 1396.597656 59.703125 1396.597656 57.125 Z M 1393.058594 56.648438 C 1393.058594 58.992188 1393.058594 62.5625 1392.582031 64.789062 C 1391.753906 68.960938 1389.011719 69.515625 1387.699219 69.515625 C 1386.347656 69.515625 1383.605469 68.882812 1382.769531 64.710938 C 1382.332031 62.445312 1382.332031 58.710938 1382.332031 56.648438 C 1382.332031 53.90625 1382.332031 51.125 1382.769531 48.9375 C 1383.605469 44.882812 1386.707031 44.484375 1387.699219 44.484375 C 1389.050781 44.484375 1391.792969 45.164062 1392.582031 48.773438 C 1393.058594 50.960938 1393.058594 53.945312 1393.058594 56.648438 Z M 1393.058594 56.648438 "/>
<path style=" stroke:none;fill-rule:evenodd;fill:rgb(0%,0%,0%);fill-opacity:1;" d="M 1760.082031 41.726562 C 1760.082031 36.773438 1759.785156 31.953125 1757.636719 27.421875 C 1755.191406 22.46875 1750.90625 21.164062 1747.984375 21.164062 C 1744.53125 21.164062 1740.296875 22.890625 1738.09375 27.835938 C 1736.421875 31.59375 1735.828125 35.289062 1735.828125 41.726562 C 1735.828125 47.507812 1736.242188 51.859375 1738.390625 56.085938 C 1740.710938 60.617188 1744.828125 62.046875 1747.921875 62.046875 C 1753.109375 62.046875 1756.089844 58.945312 1757.816406 55.492188 C 1759.964844 51.023438 1760.082031 45.179688 1760.082031 41.726562 Z M 1755.550781 41.007812 C 1755.550781 45 1755.550781 49.53125 1754.894531 53.164062 C 1753.765625 59.726562 1750.015625 60.859375 1747.921875 60.859375 C 1746.015625 60.859375 1742.140625 59.78125 1741.015625 53.289062 C 1740.359375 49.710938 1740.359375 45.179688 1740.359375 41.007812 C 1740.359375 36.125 1740.359375 31.710938 1741.3125 28.195312 C 1742.320312 24.203125 1745.359375 22.351562 1747.921875 22.351562 C 1750.1875 22.351562 1753.648438 23.726562 1754.777344 28.851562 C 1755.550781 32.25 1755.550781 36.953125 1755.550781 41.007812 Z M 1755.550781 41.007812 "/>
<path style=" stroke:none;fill-rule:evenodd;fill:rgb(0%,0%,0%);fill-opacity:1;" d="M 1773.347656 57.9375 C 1773.347656 56.210938 1771.917969 55.015625 1770.488281 55.015625 C 1768.753906 55.015625 1767.566406 56.445312 1767.566406 57.875 C 1767.566406 59.601562 1768.996094 60.796875 1770.425781 60.796875 C 1772.152344 60.796875 1773.347656 59.367188 1773.347656 57.9375 Z M 1773.347656 57.9375 "/>
<path style=" stroke:none;fill-rule:evenodd;fill:rgb(0%,0%,0%);fill-opacity:1;" d="M 1805.578125 48.640625 C 1805.578125 40.710938 1800.035156 35.40625 1794.074219 35.40625 C 1788.769531 35.40625 1786.808594 39.992188 1786.207031 41.664062 L 1786.207031 40.054688 C 1786.207031 24.976562 1793.542969 22.59375 1796.761719 22.59375 C 1798.902344 22.59375 1801.050781 23.25 1802.179688 25.039062 C 1801.464844 25.039062 1799.207031 25.039062 1799.207031 27.476562 C 1799.207031 28.789062 1800.097656 29.921875 1801.644531 29.921875 C 1803.136719 29.921875 1804.152344 29.03125 1804.152344 27.296875 C 1804.152344 24.203125 1801.886719 21.164062 1796.699219 21.164062 C 1789.191406 21.164062 1781.324219 28.851562 1781.324219 41.960938 C 1781.324219 58.351562 1788.472656 62.046875 1793.542969 62.046875 C 1800.035156 62.046875 1805.578125 56.382812 1805.578125 48.640625 Z M 1800.691406 48.578125 C 1800.691406 51.617188 1800.691406 54.296875 1799.558594 56.5625 C 1798.074219 59.429688 1795.925781 60.4375 1793.542969 60.4375 C 1789.785156 60.4375 1787.996094 57.101562 1787.464844 55.851562 C 1786.925781 54.296875 1786.332031 51.382812 1786.332031 47.210938 C 1786.332031 42.5 1788.472656 36.601562 1793.839844 36.601562 C 1797.121094 36.601562 1798.847656 38.804688 1799.738281 40.828125 C 1800.691406 43.039062 1800.691406 46.015625 1800.691406 48.578125 Z M 1800.691406 48.578125 "/>
<path style=" stroke:none;fill-rule:evenodd;fill:rgb(0%,0%,0%);fill-opacity:1;" d="M 1835.078125 50.601562 C 1835.078125 45.125 1830.664062 40.828125 1824.945312 39.820312 C 1830.132812 38.328125 1833.46875 33.976562 1833.46875 29.328125 C 1833.46875 24.617188 1828.578125 21.164062 1822.796875 21.164062 C 1816.835938 21.164062 1812.429688 24.796875 1812.429688 29.148438 C 1812.429688 31.53125 1814.273438 32.007812 1815.171875 32.007812 C 1816.421875 32.007812 1817.851562 31.117188 1817.851562 29.328125 C 1817.851562 27.421875 1816.421875 26.585938 1815.109375 26.585938 C 1814.75 26.585938 1814.632812 26.585938 1814.453125 26.648438 C 1816.71875 22.59375 1822.320312 22.59375 1822.617188 22.59375 C 1824.585938 22.59375 1828.460938 23.484375 1828.460938 29.328125 C 1828.460938 30.460938 1828.28125 33.796875 1826.554688 36.359375 C 1824.765625 38.984375 1822.742188 39.164062 1821.132812 39.21875 L 1819.34375 39.398438 C 1818.328125 39.460938 1818.09375 39.515625 1818.09375 40.054688 C 1818.09375 40.648438 1818.390625 40.648438 1819.460938 40.648438 L 1822.203125 40.648438 C 1827.265625 40.648438 1829.53125 44.820312 1829.53125 50.546875 C 1829.53125 58.351562 1825.484375 60.4375 1822.5625 60.4375 C 1819.703125 60.4375 1814.8125 59.070312 1813.085938 55.132812 C 1814.992188 55.429688 1816.71875 54.359375 1816.71875 52.210938 C 1816.71875 50.484375 1815.46875 49.296875 1813.796875 49.296875 C 1812.367188 49.296875 1810.820312 50.125 1810.820312 52.390625 C 1810.820312 57.695312 1816.125 62.046875 1822.742188 62.046875 C 1829.828125 62.046875 1835.078125 56.625 1835.078125 50.601562 Z M 1835.078125 50.601562 "/>
<path style=" stroke:none;fill-rule:evenodd;fill:rgb(0%,0%,0%);fill-opacity:1;" d="M 1863.597656 48.820312 C 1863.597656 41.726562 1858.824219 35.820312 1852.570312 35.820312 C 1849.179688 35.820312 1846.554688 37.3125 1845.007812 38.984375 L 1845.007812 26.648438 C 1847.570312 27.476562 1849.65625 27.539062 1850.3125 27.539062 C 1857.042969 27.539062 1861.332031 22.59375 1861.332031 21.757812 C 1861.332031 21.515625 1861.214844 21.222656 1860.855469 21.222656 C 1860.855469 21.222656 1860.613281 21.222656 1860.082031 21.460938 C 1856.738281 22.890625 1853.882812 23.070312 1852.335938 23.070312 C 1848.398438 23.070312 1845.601562 21.875 1844.46875 21.398438 C 1844.046875 21.222656 1843.875 21.222656 1843.875 21.222656 C 1843.398438 21.222656 1843.398438 21.578125 1843.398438 22.53125 L 1843.398438 40.234375 C 1843.398438 41.304688 1843.398438 41.664062 1844.109375 41.664062 C 1844.40625 41.664062 1844.46875 41.601562 1845.0625 40.890625 C 1846.734375 38.445312 1849.53125 37.015625 1852.511719 37.015625 C 1855.667969 37.015625 1857.214844 39.9375 1857.699219 40.953125 C 1858.707031 43.273438 1858.769531 46.195312 1858.769531 48.460938 C 1858.769531 50.726562 1858.769531 54.125 1857.097656 56.804688 C 1855.785156 58.945312 1853.46875 60.4375 1850.84375 60.4375 C 1846.914062 60.4375 1843.039062 57.757812 1841.960938 53.40625 C 1842.265625 53.523438 1842.617188 53.585938 1842.921875 53.585938 C 1843.929688 53.585938 1845.539062 52.992188 1845.539062 50.960938 C 1845.539062 49.296875 1844.40625 48.34375 1842.921875 48.34375 C 1841.84375 48.34375 1840.296875 48.875 1840.296875 51.203125 C 1840.296875 56.265625 1844.351562 62.046875 1850.960938 62.046875 C 1857.699219 62.046875 1863.597656 56.382812 1863.597656 48.820312 Z M 1863.597656 48.820312 "/>
<path style=" stroke:none;fill-rule:evenodd;fill:rgb(0%,0%,0%);fill-opacity:1;" d="M 1896.300781 53.40625 L 1896.300781 50.007812 L 1894.988281 50.007812 L 1894.988281 53.289062 C 1894.988281 57.578125 1893.261719 60.078125 1890.933594 60.078125 C 1886.886719 60.078125 1886.886719 54.539062 1886.886719 53.523438 L 1886.886719 36.835938 L 1895.285156 36.835938 L 1895.285156 35.109375 L 1886.886719 35.109375 L 1886.886719 24.140625 L 1885.574219 24.140625 C 1885.511719 29.742188 1883.371094 35.46875 1877.941406 35.648438 L 1877.941406 36.835938 L 1883.011719 36.835938 L 1883.011719 53.40625 C 1883.011719 60.023438 1887.417969 61.390625 1890.582031 61.390625 C 1894.332031 61.390625 1896.300781 57.695312 1896.300781 53.40625 Z M 1896.300781 53.40625 "/>
<path style=" stroke:none;fill-rule:evenodd;fill:rgb(0%,0%,0%);fill-opacity:1;" d="M 1918.796875 57.125 C 1918.796875 52.867188 1918.359375 50.289062 1917.046875 47.742188 C 1915.304688 44.25 1912.085938 43.375 1909.898438 43.375 C 1904.890625 43.375 1903.066406 47.109375 1902.507812 48.21875 C 1901.082031 51.125 1901.003906 55.054688 1901.003906 57.125 C 1901.003906 59.742188 1901.121094 63.757812 1903.027344 66.9375 C 1904.851562 69.871094 1907.789062 70.628906 1909.898438 70.628906 C 1911.804688 70.628906 1915.21875 70.039062 1917.210938 66.101562 C 1918.679688 63.242188 1918.796875 59.703125 1918.796875 57.125 Z M 1915.257812 56.648438 C 1915.257812 58.992188 1915.257812 62.5625 1914.78125 64.789062 C 1913.953125 68.960938 1911.210938 69.515625 1909.898438 69.515625 C 1908.546875 69.515625 1905.804688 68.882812 1904.96875 64.710938 C 1904.53125 62.445312 1904.53125 58.710938 1904.53125 56.648438 C 1904.53125 53.90625 1904.53125 51.125 1904.96875 48.9375 C 1905.804688 44.882812 1908.90625 44.484375 1909.898438 44.484375 C 1911.25 44.484375 1913.992188 45.164062 1914.78125 48.773438 C 1915.257812 50.960938 1915.257812 53.945312 1915.257812 56.648438 Z M 1915.257812 56.648438 "/>
<g clip-path="url(#clip1)" clip-rule="nonzero">
<path style="fill:none;stroke-width:1;stroke-linecap:square;stroke-linejoin:miter;stroke:rgb(0%,0%,0%);stroke-opacity:1;stroke-miterlimit:3.25;" d="M 30.167969 512.648438 L 493.03125 512.648438 "/>
<path style="fill:none;stroke-width:1;stroke-linecap:square;stroke-linejoin:miter;stroke:rgb(0%,0%,0%);stroke-opacity:1;stroke-miterlimit:3.25;" d="M 30.167969 512.648438 L 493.03125 512.648438 "/>
</g>
<path style="fill-rule:nonzero;fill:rgb(50%,50%,50%);fill-opacity:1;stroke-width:1;stroke-linecap:square;stroke-linejoin:miter;stroke:rgb(50%,50%,50%);stroke-opacity:1;stroke-miterlimit:3.25;" d="M 206.238281 178.472656 L 166.679688 187.488281 L 241.820312 517.160156 L 281.378906 508.140625 Z M 206.238281 178.472656 "/>
<path style="fill:none;stroke-width:2;stroke-linecap:square;stroke-linejoin:miter;stroke:rgb(0%,0%,0%);stroke-opacity:1;stroke-miterlimit:3.25;" d="M 206.238281 178.472656 L 166.679688 187.488281 L 241.820312 517.160156 L 281.378906 508.140625 Z M 206.238281 178.472656 "/>
<path style="fill-rule:nonzero;fill:rgb(84.999084%,84.999084%,84.999084%);fill-opacity:1;stroke-width:2;stroke-linecap:square;stroke-linejoin:miter;stroke:rgb(84.999084%,84.999084%,84.999084%);stroke-opacity:1;stroke-miterlimit:3.25;" d="M 206.238281 187.488281 L 166.679688 178.472656 L 91.539062 508.140625 L 131.097656 517.160156 Z M 206.238281 187.488281 "/>
<path style="fill:none;stroke-width:2;stroke-linecap:square;stroke-linejoin:miter;stroke:rgb(0%,0%,0%);stroke-opacity:1;stroke-miterlimit:3.25;" d="M 206.238281 187.488281 L 166.679688 178.472656 L 91.539062 508.140625 L 131.097656 517.160156 Z M 206.238281 187.488281 "/>
<path style="fill-rule:evenodd;fill:rgb(99.998474%,99.998474%,99.998474%);fill-opacity:1;stroke-width:2;stroke-linecap:square;stroke-linejoin:miter;stroke:rgb(0%,0%,0%);stroke-opacity:1;stroke-miterlimit:3.25;" d="M 216.890625 182.980469 C 216.890625 174.910156 213.683594 167.171875 207.976562 161.464844 C 202.269531 155.757812 194.53125 152.550781 186.457031 152.550781 C 178.386719 152.550781 170.648438 155.757812 164.941406 161.464844 C 159.234375 167.171875 156.027344 174.910156 156.027344 182.980469 C 156.027344 191.050781 159.234375 198.792969 164.941406 204.5 C 170.648438 210.207031 178.386719 213.414062 186.457031 213.414062 C 194.53125 213.414062 202.269531 210.207031 207.976562 204.5 C 213.683594 198.792969 216.890625 191.050781 216.890625 182.980469 Z M 216.890625 182.980469 "/>
<path style="fill-rule:evenodd;fill:rgb(99.998474%,99.998474%,99.998474%);fill-opacity:1;stroke-width:2;stroke-linecap:square;stroke-linejoin:miter;stroke:rgb(0%,0%,0%);stroke-opacity:1;stroke-miterlimit:3.25;" d="M 216.890625 182.980469 C 216.890625 174.910156 213.683594 167.171875 207.976562 161.464844 C 202.269531 155.757812 194.53125 152.550781 186.457031 152.550781 C 178.386719 152.550781 170.648438 155.757812 164.941406 161.464844 C 159.234375 167.171875 156.027344 174.910156 156.027344 182.980469 C 156.027344 191.050781 159.234375 198.792969 164.941406 204.5 C 170.648438 210.207031 178.386719 213.414062 186.457031 213.414062 C 194.53125 213.414062 202.269531 210.207031 207.976562 204.5 C 213.683594 198.792969 216.890625 191.050781 216.890625 182.980469 Z M 216.890625 182.980469 "/>
<path style=" stroke:none;fill-rule:evenodd;fill:rgb(99.998474%,99.998474%,99.998474%);fill-opacity:1;" d="M 288.304688 561.175781 C 288.304688 546.152344 276.128906 533.972656 261.105469 533.972656 C 246.082031 533.972656 233.902344 546.152344 233.902344 561.175781 C 233.902344 576.199219 246.082031 588.375 261.105469 588.375 C 276.128906 588.375 288.304688 576.199219 288.304688 561.175781 Z M 288.304688 561.175781 "/>
<g clip-path="url(#clip2)" clip-rule="nonzero">
<path style="fill:none;stroke-width:1.43429;stroke-linecap:square;stroke-linejoin:miter;stroke:rgb(0%,0%,0%);stroke-opacity:1;stroke-miterlimit:10;" d="M 288.304688 561.175781 C 288.304688 546.152344 276.128906 533.972656 261.105469 533.972656 C 246.082031 533.972656 233.902344 546.152344 233.902344 561.175781 C 233.902344 576.199219 246.082031 588.375 261.105469 588.375 C 276.128906 588.375 288.304688 576.199219 288.304688 561.175781 Z M 288.304688 561.175781 "/>
</g>
<path style=" stroke:none;fill-rule:evenodd;fill:rgb(0%,0%,0%);fill-opacity:1;" d="M 269.699219 560.992188 C 269.699219 557.429688 269.484375 553.957031 267.9375 550.695312 C 266.175781 547.132812 263.089844 546.191406 260.988281 546.191406 C 258.5 546.191406 255.453125 547.433594 253.867188 550.996094 C 252.664062 553.699219 252.234375 556.359375 252.234375 560.992188 C 252.234375 565.15625 252.535156 568.289062 254.082031 571.332031 C 255.75 574.59375 258.714844 575.621094 260.941406 575.621094 C 264.675781 575.621094 266.824219 573.390625 268.066406 570.902344 C 269.613281 567.6875 269.699219 563.480469 269.699219 560.992188 Z M 266.4375 560.476562 C 266.4375 563.351562 266.4375 566.613281 265.964844 569.226562 C 265.148438 573.953125 262.449219 574.765625 260.941406 574.765625 C 259.570312 574.765625 256.78125 573.992188 255.96875 569.316406 C 255.496094 566.742188 255.496094 563.480469 255.496094 560.476562 C 255.496094 556.960938 255.496094 553.785156 256.183594 551.253906 C 256.910156 548.378906 259.097656 547.046875 260.941406 547.046875 C 262.574219 547.046875 265.0625 548.035156 265.878906 551.726562 C 266.4375 554.171875 266.4375 557.558594 266.4375 560.476562 Z M 266.4375 560.476562 "/>
<g clip-path="url(#clip3)" clip-rule="nonzero">
<path style="fill:none;stroke-width:1;stroke-linecap:square;stroke-linejoin:miter;stroke:rgb(0%,0%,0%);stroke-opacity:1;stroke-miterlimit:3.25;" d="M 552.367188 512.75 L 1015.230469 512.75 "/>
<path style="fill:none;stroke-width:1;stroke-linecap:square;stroke-linejoin:miter;stroke:rgb(0%,0%,0%);stroke-opacity:1;stroke-miterlimit:3.25;" d="M 552.367188 512.75 L 1015.230469 512.75 "/>
</g>
<path style="fill-rule:nonzero;fill:rgb(50%,50%,50%);fill-opacity:1;stroke-width:1;stroke-linecap:square;stroke-linejoin:miter;stroke:rgb(50%,50%,50%);stroke-opacity:1;stroke-miterlimit:3.25;" d="M 787.144531 174.035156 L 746.617188 176.0625 L 763.539062 513.765625 L 804.0625 511.734375 Z M 787.144531 174.035156 "/>
<path style="fill:none;stroke-width:2;stroke-linecap:square;stroke-linejoin:miter;stroke:rgb(0%,0%,0%);stroke-opacity:1;stroke-miterlimit:3.25;" d="M 787.144531 174.035156 L 746.617188 176.0625 L 763.539062 513.765625 L 804.0625 511.734375 Z M 787.144531 174.035156 "/>
<path style="fill-rule:nonzero;fill:rgb(84.999084%,84.999084%,84.999084%);fill-opacity:1;stroke-width:2;stroke-linecap:square;stroke-linejoin:miter;stroke:rgb(84.999084%,84.999084%,84.999084%);stroke-opacity:1;stroke-miterlimit:3.25;" d="M 785.898438 182.109375 L 747.863281 167.988281 L 630.164062 484.964844 L 668.199219 499.089844 Z M 785.898438 182.109375 "/>
<path style="fill:none;stroke-width:2;stroke-linecap:square;stroke-linejoin:miter;stroke:rgb(0%,0%,0%);stroke-opacity:1;stroke-miterlimit:3.25;" d="M 785.898438 182.109375 L 747.863281 167.988281 L 630.164062 484.964844 L 668.199219 499.089844 Z M 785.898438 182.109375 "/>
<path style="fill-rule:evenodd;fill:rgb(99.998474%,99.998474%,99.998474%);fill-opacity:1;stroke-width:2;stroke-linecap:square;stroke-linejoin:miter;stroke:rgb(0%,0%,0%);stroke-opacity:1;stroke-miterlimit:3.25;" d="M 797.3125 175.050781 C 797.3125 166.976562 794.105469 159.238281 788.398438 153.53125 C 782.691406 147.824219 774.953125 144.617188 766.882812 144.617188 C 758.808594 144.617188 751.070312 147.824219 745.363281 153.53125 C 739.65625 159.238281 736.449219 166.976562 736.449219 175.050781 C 736.449219 183.121094 739.65625 190.859375 745.363281 196.566406 C 751.070312 202.273438 758.808594 205.480469 766.882812 205.480469 C 774.953125 205.480469 782.691406 202.273438 788.398438 196.566406 C 794.105469 190.859375 797.3125 183.121094 797.3125 175.050781 Z M 797.3125 175.050781 "/>
<path style="fill-rule:evenodd;fill:rgb(99.998474%,99.998474%,99.998474%);fill-opacity:1;stroke-width:2;stroke-linecap:square;stroke-linejoin:miter;stroke:rgb(0%,0%,0%);stroke-opacity:1;stroke-miterlimit:3.25;" d="M 797.3125 175.050781 C 797.3125 166.976562 794.105469 159.238281 788.398438 153.53125 C 782.691406 147.824219 774.953125 144.617188 766.882812 144.617188 C 758.808594 144.617188 751.070312 147.824219 745.363281 153.53125 C 739.65625 159.238281 736.449219 166.976562 736.449219 175.050781 C 736.449219 183.121094 739.65625 190.859375 745.363281 196.566406 C 751.070312 202.273438 758.808594 205.480469 766.882812 205.480469 C 774.953125 205.480469 782.691406 202.273438 788.398438 196.566406 C 794.105469 190.859375 797.3125 183.121094 797.3125 175.050781 Z M 797.3125 175.050781 "/>
<g clip-path="url(#clip4)" clip-rule="nonzero">
<path style="fill:none;stroke-width:1;stroke-linecap:square;stroke-linejoin:miter;stroke:rgb(0%,0%,0%);stroke-opacity:1;stroke-miterlimit:3.25;" d="M 1074.566406 512.75 L 1537.433594 512.75 "/>
<path style="fill:none;stroke-width:1;stroke-linecap:square;stroke-linejoin:miter;stroke:rgb(0%,0%,0%);stroke-opacity:1;stroke-miterlimit:3.25;" d="M 1074.566406 512.75 L 1537.433594 512.75 "/>
</g>
<path style="fill-rule:nonzero;fill:rgb(50%,50%,50%);fill-opacity:1;stroke-width:1;stroke-linecap:square;stroke-linejoin:miter;stroke:rgb(50%,50%,50%);stroke-opacity:1;stroke-miterlimit:3.25;" d="M 1363.324219 178.902344 L 1322.996094 174.445312 L 1285.835938 510.519531 L 1326.164062 514.980469 Z M 1363.324219 178.902344 "/>
<path style="fill:none;stroke-width:2;stroke-linecap:square;stroke-linejoin:miter;stroke:rgb(0%,0%,0%);stroke-opacity:1;stroke-miterlimit:3.25;" d="M 1363.324219 178.902344 L 1322.996094 174.445312 L 1285.835938 510.519531 L 1326.164062 514.980469 Z M 1363.324219 178.902344 "/>
<path style="fill-rule:nonzero;fill:rgb(84.999084%,84.999084%,84.999084%);fill-opacity:1;stroke-width:2;stroke-linecap:square;stroke-linejoin:miter;stroke:rgb(84.999084%,84.999084%,84.999084%);stroke-opacity:1;stroke-miterlimit:3.25;" d="M 1362.117188 183.898438 L 1324.203125 169.449219 L 1203.765625 485.394531 L 1241.679688 499.847656 Z M 1362.117188 183.898438 "/>
<path style="fill:none;stroke-width:2;stroke-linecap:square;stroke-linejoin:miter;stroke:rgb(0%,0%,0%);stroke-opacity:1;stroke-miterlimit:3.25;" d="M 1362.117188 183.898438 L 1324.203125 169.449219 L 1203.765625 485.394531 L 1241.679688 499.847656 Z M 1362.117188 183.898438 "/>
<path style="fill-rule:evenodd;fill:rgb(99.998474%,99.998474%,99.998474%);fill-opacity:1;stroke-width:2;stroke-linecap:square;stroke-linejoin:miter;stroke:rgb(0%,0%,0%);stroke-opacity:1;stroke-miterlimit:3.25;" d="M 1373.59375 176.675781 C 1373.59375 168.601562 1370.386719 160.863281 1364.679688 155.15625 C 1358.972656 149.449219 1351.230469 146.242188 1343.160156 146.242188 C 1335.089844 146.242188 1327.351562 149.449219 1321.644531 155.15625 C 1315.9375 160.863281 1312.730469 168.601562 1312.730469 176.675781 C 1312.730469 184.746094 1315.9375 192.484375 1321.644531 198.191406 C 1327.351562 203.898438 1335.089844 207.105469 1343.160156 207.105469 C 1351.230469 207.105469 1358.972656 203.898438 1364.679688 198.191406 C 1370.386719 192.484375 1373.59375 184.746094 1373.59375 176.675781 Z M 1373.59375 176.675781 "/>
<path style="fill-rule:evenodd;fill:rgb(99.998474%,99.998474%,99.998474%);fill-opacity:1;stroke-width:2;stroke-linecap:square;stroke-linejoin:miter;stroke:rgb(0%,0%,0%);stroke-opacity:1;stroke-miterlimit:3.25;" d="M 1373.59375 176.675781 C 1373.59375 168.601562 1370.386719 160.863281 1364.679688 155.15625 C 1358.972656 149.449219 1351.230469 146.242188 1343.160156 146.242188 C 1335.089844 146.242188 1327.351562 149.449219 1321.644531 155.15625 C 1315.9375 160.863281 1312.730469 168.601562 1312.730469 176.675781 C 1312.730469 184.746094 1315.9375 192.484375 1321.644531 198.191406 C 1327.351562 203.898438 1335.089844 207.105469 1343.160156 207.105469 C 1351.230469 207.105469 1358.972656 203.898438 1364.679688 198.191406 C 1370.386719 192.484375 1373.59375 184.746094 1373.59375 176.675781 Z M 1373.59375 176.675781 "/>
<g clip-path="url(#clip5)" clip-rule="nonzero">
<path style="fill:none;stroke-width:1;stroke-linecap:square;stroke-linejoin:miter;stroke:rgb(0%,0%,0%);stroke-opacity:1;stroke-miterlimit:3.25;" d="M 1596.769531 512.75 L 2059.632812 512.75 "/>
<path style="fill:none;stroke-width:1;stroke-linecap:square;stroke-linejoin:miter;stroke:rgb(0%,0%,0%);stroke-opacity:1;stroke-miterlimit:3.25;" d="M 1596.769531 512.75 L 2059.632812 512.75 "/>
</g>
<path style="fill-rule:nonzero;fill:rgb(50%,50%,50%);fill-opacity:1;stroke-width:1;stroke-linecap:square;stroke-linejoin:miter;stroke:rgb(50%,50%,50%);stroke-opacity:1;stroke-miterlimit:3.25;" d="M 1923.121094 187.589844 L 1883.5625 178.570312 L 1808.417969 508.242188 L 1847.980469 517.257812 Z M 1923.121094 187.589844 "/>
<path style="fill:none;stroke-width:2;stroke-linecap:square;stroke-linejoin:miter;stroke:rgb(0%,0%,0%);stroke-opacity:1;stroke-miterlimit:3.25;" d="M 1923.121094 187.589844 L 1883.5625 178.570312 L 1808.417969 508.242188 L 1847.980469 517.257812 Z M 1923.121094 187.589844 "/>
<path style="fill-rule:nonzero;fill:rgb(84.999084%,84.999084%,84.999084%);fill-opacity:1;stroke-width:2;stroke-linecap:square;stroke-linejoin:miter;stroke:rgb(84.999084%,84.999084%,84.999084%);stroke-opacity:1;stroke-miterlimit:3.25;" d="M 1923.121094 178.570312 L 1883.5625 187.589844 L 1958.703125 517.257812 L 1998.261719 508.242188 Z M 1923.121094 178.570312 "/>
<path style="fill:none;stroke-width:2;stroke-linecap:square;stroke-linejoin:miter;stroke:rgb(0%,0%,0%);stroke-opacity:1;stroke-miterlimit:3.25;" d="M 1923.121094 178.570312 L 1883.5625 187.589844 L 1958.703125 517.257812 L 1998.261719 508.242188 Z M 1923.121094 178.570312 "/>
<path style="fill-rule:evenodd;fill:rgb(99.998474%,99.998474%,99.998474%);fill-opacity:1;stroke-width:2;stroke-linecap:square;stroke-linejoin:miter;stroke:rgb(0%,0%,0%);stroke-opacity:1;stroke-miterlimit:3.25;" d="M 1933.773438 183.082031 C 1933.773438 175.007812 1930.566406 167.269531 1924.859375 161.5625 C 1919.152344 155.855469 1911.410156 152.648438 1903.339844 152.648438 C 1895.269531 152.648438 1887.53125 155.855469 1881.824219 161.5625 C 1876.117188 167.269531 1872.910156 175.007812 1872.910156 183.082031 C 1872.910156 191.152344 1876.117188 198.890625 1881.824219 204.597656 C 1887.53125 210.304688 1895.269531 213.511719 1903.339844 213.511719 C 1911.410156 213.511719 1919.152344 210.304688 1924.859375 204.597656 C 1930.566406 198.890625 1933.773438 191.152344 1933.773438 183.082031 Z M 1933.773438 183.082031 "/>
<path style="fill-rule:evenodd;fill:rgb(99.998474%,99.998474%,99.998474%);fill-opacity:1;stroke-width:2;stroke-linecap:square;stroke-linejoin:miter;stroke:rgb(0%,0%,0%);stroke-opacity:1;stroke-miterlimit:3.25;" d="M 1933.773438 183.082031 C 1933.773438 175.007812 1930.566406 167.269531 1924.859375 161.5625 C 1919.152344 155.855469 1911.410156 152.648438 1903.339844 152.648438 C 1895.269531 152.648438 1887.53125 155.855469 1881.824219 161.5625 C 1876.117188 167.269531 1872.910156 175.007812 1872.910156 183.082031 C 1872.910156 191.152344 1876.117188 198.890625 1881.824219 204.597656 C 1887.53125 210.304688 1895.269531 213.511719 1903.339844 213.511719 C 1911.410156 213.511719 1919.152344 210.304688 1924.859375 204.597656 C 1930.566406 198.890625 1933.773438 191.152344 1933.773438 183.082031 Z M 1933.773438 183.082031 "/>
<path style=" stroke:none;fill-rule:nonzero;fill:rgb(0%,0%,0%);fill-opacity:1;" d="M 0 1 L 2089.800781 1 L 2089.800781 3 L 0 3 Z M 0 1 "/>
<path style=" stroke:none;fill-rule:nonzero;fill:rgb(50%,50%,50%);fill-opacity:1;" d="M 1 90.199219 L 2088.800781 90.199219 L 2088.800781 91.199219 L 1 91.199219 Z M 1 90.199219 "/>
<path style=" stroke:none;fill-rule:nonzero;fill:rgb(0%,0%,0%);fill-opacity:1;" d="M 0 597.398438 L 2089.800781 597.398438 L 2089.800781 599.398438 L 0 599.398438 Z M 0 597.398438 "/>
<path style=" stroke:none;fill-rule:nonzero;fill:rgb(0%,0%,0%);fill-opacity:1;" d="M 1 3 L 1 597.398438 L 0 597.398438 L 0 3 Z M 1 3 "/>
<path style=" stroke:none;fill-rule:nonzero;fill:rgb(0%,0%,0%);fill-opacity:1;" d="M 523.199219 3 L 523.199219 597.398438 L 522.199219 597.398438 L 522.199219 3 Z M 523.199219 3 "/>
<path style=" stroke:none;fill-rule:nonzero;fill:rgb(0%,0%,0%);fill-opacity:1;" d="M 1045.398438 3 L 1045.398438 597.398438 L 1044.398438 597.398438 L 1044.398438 3 Z M 1045.398438 3 "/>
<path style=" stroke:none;fill-rule:nonzero;fill:rgb(0%,0%,0%);fill-opacity:1;" d="M 1567.601562 3 L 1567.601562 597.398438 L 1566.601562 597.398438 L 1566.601562 3 Z M 1567.601562 3 "/>
<path style=" stroke:none;fill-rule:nonzero;fill:rgb(0%,0%,0%);fill-opacity:1;" d="M 2089.800781 3 L 2089.800781 597.398438 L 2088.800781 597.398438 L 2088.800781 3 Z M 2089.800781 3 "/>
</g>
</svg>
