<?xml version="1.0" encoding="UTF-8"?>
<svg xmlns="http://www.w3.org/2000/svg" xmlns:xlink="http://www.w3.org/1999/xlink" width="2090pt" height="601pt" viewBox="0 0 2090 601" version="1.1">
<defs>
<clipPath id="clip1">
  <path d="M 3.601562 254 L 519.601562 254 L 519.601562 257 L 3.601562 257 Z M 3.601562 254 "/>
</clipPath>
<clipPath id="clip2">
  <path d="M 3.601562 194 L 519.601562 194 L 519.601562 317 L 3.601562 317 Z M 3.601562 194 "/>
</clipPath>
<clipPath id="clip3">
  <path d="M 229.441406 529.441406 L 292.558594 529.441406 L 292.558594 593.761719 L 229.441406 593.761719 Z M 229.441406 529.441406 "/>
</clipPath>
<clipPath id="clip4">
  <path d="M 525.601562 254 L 1041.601562 254 L 1041.601562 257 L 525.601562 257 Z M 525.601562 254 "/>
</clipPath>
<clipPath id="clip5">
  <path d="M 525.601562 194 L 1041.601562 194 L 1041.601562 317 L 525.601562 317 Z M 525.601562 194 "/>
</clipPath>
<clipPath id="clip6">
  <path d="M 1047.839844 254 L 1563.839844 254 L 1563.839844 257 L 1047.839844 257 Z M 1047.839844 254 "/>
</clipPath>
<clipPath id="clip7">
  <path d="M 1047.839844 194 L 1563.839844 194 L 1563.839844 317 L 1047.839844 317 Z M 1047.839844 194 "/>
</clipPath>
<clipPath id="clip8">
  <path d="M 1570.078125 254 L 2086.078125 254 L 2086.078125 257 L 1570.078125 257 Z M 1570.078125 254 "/>
</clipPath>
<clipPath id="clip9">
  <path d="M 1570.078125 194 L 2086.078125 194 L 2086.078125 317 L 1570.078125 317 Z M 1570.078125 194 "/>
</clipPath>
</defs>
<g id="surface1">
<path style=" stroke:none;fill-rule:evenodd;fill:rgb(0%,0%,0%);fill-opacity:1;" d="M 186.972656 52.273438 C 186.972656 51.914062 186.738281 51.734375 186.378906 51.734375 C 186.378906 51.734375 186.019531 51.734375 185.902344 51.976562 C 185.902344 51.976562 185.785156 52.09375 185.363281 53.046875 C 184.113281 56.03125 181.375 60.203125 177.921875 60.203125 C 176.132812 60.203125 176.007812 58.710938 176.007812 57.398438 C 176.007812 57.398438 176.007812 56.210938 176.1875 55.492188 L 180.835938 36.835938 L 186.316406 36.835938 C 187.449219 36.835938 188.050781 36.835938 188.050781 35.765625 C 188.050781 35.109375 187.691406 35.109375 186.496094 35.109375 L 181.257812 35.109375 L 183.460938 26.40625 C 183.703125 25.574219 183.703125 25.453125 183.703125 25.039062 C 183.703125 24.078125 182.921875 23.550781 182.148438 23.550781 C 181.671875 23.550781 180.304688 23.726562 179.828125 25.636719 L 177.5 35.109375 L 171.898438 35.109375 C 170.710938 35.109375 170.171875 35.109375 170.171875 36.242188 C 170.171875 36.835938 170.585938 36.835938 171.71875 36.835938 L 177.023438 36.835938 L 173.09375 52.570312 C 172.617188 54.65625 172.4375 55.25 172.4375 56.03125 C 172.4375 58.828125 174.40625 61.390625 177.742188 61.390625 C 183.757812 61.390625 186.972656 52.6875 186.972656 52.273438 Z M 186.972656 52.273438 "/>
<path style=" stroke:none;fill-rule:evenodd;fill:rgb(0%,0%,0%);fill-opacity:1;" d="M 248.492188 40.414062 C 248.492188 39.28125 247.476562 39.28125 246.585938 39.28125 L 211.480469 39.28125 C 210.644531 39.28125 209.574219 39.28125 209.574219 40.351562 C 209.574219 41.484375 210.589844 41.484375 211.480469 41.484375 L 246.585938 41.484375 C 247.414062 41.484375 248.492188 41.484375 248.492188 40.414062 Z M 248.492188 51.5 C 248.492188 50.367188 247.476562 50.367188 246.585938 50.367188 L 211.480469 50.367188 C 210.644531 50.367188 209.574219 50.367188 209.574219 51.4375 C 209.574219 52.570312 210.589844 52.570312 211.480469 52.570312 L 246.585938 52.570312 C 247.414062 52.570312 248.492188 52.570312 248.492188 51.5 Z M 248.492188 51.5 "/>
<path style=" stroke:none;fill-rule:evenodd;fill:rgb(0%,0%,0%);fill-opacity:1;" d="M 295.550781 41.726562 C 295.550781 36.773438 295.253906 31.953125 293.105469 27.421875 C 290.660156 22.472656 286.371094 21.167969 283.449219 21.167969 C 279.996094 21.167969 275.761719 22.890625 273.558594 27.835938 C 271.886719 31.59375 271.292969 35.289062 271.292969 41.726562 C 271.292969 47.507812 271.707031 51.859375 273.855469 56.085938 C 276.175781 60.617188 280.292969 62.046875 283.386719 62.046875 C 288.574219 62.046875 291.558594 58.945312 293.285156 55.492188 C 295.433594 51.023438 295.550781 45.179688 295.550781 41.726562 Z M 291.019531 41.007812 C 291.019531 45 291.019531 49.53125 290.363281 53.164062 C 289.230469 59.726562 285.480469 60.859375 283.386719 60.859375 C 281.480469 60.859375 277.605469 59.78125 276.480469 53.289062 C 275.824219 49.710938 275.824219 45.179688 275.824219 41.007812 C 275.824219 36.125 275.824219 31.710938 276.777344 28.195312 C 277.785156 24.203125 280.824219 22.355469 283.386719 22.355469 C 285.652344 22.355469 289.113281 23.726562 290.246094 28.851562 C 291.019531 32.25 291.019531 36.953125 291.019531 41.007812 Z M 291.019531 41.007812 "/>
<path style=" stroke:none;fill-rule:evenodd;fill:rgb(0%,0%,0%);fill-opacity:1;" d="M 327.273438 53.40625 L 327.273438 50.007812 L 325.960938 50.007812 L 325.960938 53.289062 C 325.960938 57.578125 324.234375 60.078125 321.90625 60.078125 C 317.859375 60.078125 317.859375 54.539062 317.859375 53.523438 L 317.859375 36.835938 L 326.257812 36.835938 L 326.257812 35.109375 L 317.859375 35.109375 L 317.859375 24.140625 L 316.546875 24.140625 C 316.484375 29.742188 314.34375 35.46875 308.914062 35.648438 L 308.914062 36.835938 L 313.984375 36.835938 L 313.984375 53.40625 C 313.984375 60.023438 318.390625 61.390625 321.554688 61.390625 C 325.304688 61.390625 327.273438 57.695312 327.273438 53.40625 Z M 327.273438 53.40625 "/>
<path style=" stroke:none;fill-rule:evenodd;fill:rgb(0%,0%,0%);fill-opacity:1;" d="M 350.269531 57.125 C 350.269531 52.867188 349.832031 50.289062 348.519531 47.742188 C 346.78125 44.25 343.5625 43.375 341.375 43.375 C 336.367188 43.375 334.539062 47.109375 333.984375 48.21875 C 332.554688 51.125 332.476562 55.054688 332.476562 57.125 C 332.476562 59.742188 332.59375 63.757812 334.5 66.933594 C 336.328125 69.871094 339.265625 70.628906 341.375 70.628906 C 343.28125 70.628906 346.691406 70.035156 348.6875 66.097656 C 350.152344 63.242188 350.269531 59.703125 350.269531 57.125 Z M 346.730469 56.648438 C 346.730469 58.992188 346.730469 62.5625 346.257812 64.789062 C 345.429688 68.957031 342.6875 69.511719 341.375 69.511719 C 340.023438 69.511719 337.28125 68.878906 336.445312 64.710938 C 336.007812 62.445312 336.007812 58.710938 336.007812 56.648438 C 336.007812 53.90625 336.007812 51.125 336.445312 48.9375 C 337.28125 44.882812 340.382812 44.484375 341.375 44.484375 C 342.726562 44.484375 345.46875 45.164062 346.257812 48.773438 C 346.730469 50.960938 346.730469 53.945312 346.730469 56.648438 Z M 346.730469 56.648438 "/>
<path style=" stroke:none;fill-rule:evenodd;fill:rgb(0%,0%,0%);fill-opacity:1;" d="M 715.683594 41.726562 C 715.683594 36.773438 715.386719 31.953125 713.238281 27.421875 C 710.792969 22.46875 706.503906 21.164062 703.582031 21.164062 C 700.128906 21.164062 695.894531 22.890625 693.691406 27.835938 C 692.019531 31.59375 691.425781 35.289062 691.425781 41.726562 C 691.425781 47.507812 691.839844 51.859375 693.988281 56.085938 C 696.308594 60.617188 700.425781 62.046875 703.519531 62.046875 C 708.707031 62.046875 711.691406 58.945312 713.417969 55.492188 C 715.566406 51.023438 715.683594 45.179688 715.683594 41.726562 Z M 711.152344 41.007812 C 711.152344 45 711.152344 49.53125 710.496094 53.164062 C 709.363281 59.726562 705.613281 60.859375 703.519531 60.859375 C 701.613281 60.859375 697.738281 59.78125 696.613281 53.289062 C 695.957031 49.710938 695.957031 45.179688 695.957031 41.007812 C 695.957031 36.125 695.957031 31.710938 696.910156 28.195312 C 697.917969 24.203125 700.957031 22.351562 703.519531 22.351562 C 705.785156 22.351562 709.246094 23.726562 710.378906 28.851562 C 711.152344 32.25 711.152344 36.953125 711.152344 41.007812 Z M 711.152344 41.007812 "/>
<path style=" stroke:none;fill-rule:evenodd;fill:rgb(0%,0%,0%);fill-opacity:1;" d="M 728.949219 57.9375 C 728.949219 56.210938 727.519531 55.015625 726.089844 55.015625 C 724.355469 55.015625 723.167969 56.445312 723.167969 57.875 C 723.167969 59.601562 724.597656 60.796875 726.027344 60.796875 C 727.753906 60.796875 728.949219 59.367188 728.949219 57.9375 Z M 728.949219 57.9375 "/>
<path style=" stroke:none;fill-rule:evenodd;fill:rgb(0%,0%,0%);fill-opacity:1;" d="M 762.015625 50.84375 L 762.015625 49.117188 L 755.992188 49.117188 L 755.992188 21.996094 C 755.992188 20.871094 755.992188 20.5625 755.15625 20.5625 C 754.679688 20.5625 754.5 20.5625 754.023438 21.285156 L 736.089844 49.117188 L 736.089844 50.84375 L 751.757812 50.84375 L 751.757812 56.265625 C 751.757812 58.46875 751.640625 59.070312 747.289062 59.070312 L 746.101562 59.070312 L 746.101562 60.796875 C 747.46875 60.679688 752.179688 60.679688 753.84375 60.679688 C 755.515625 60.679688 760.28125 60.679688 761.65625 60.796875 L 761.65625 59.070312 L 760.460938 59.070312 C 756.171875 59.070312 755.992188 58.46875 755.992188 56.265625 L 755.992188 50.84375 Z M 752.0625 49.117188 L 737.582031 49.117188 L 752.0625 26.648438 Z M 752.0625 49.117188 "/>
<path style=" stroke:none;fill-rule:evenodd;fill:rgb(0%,0%,0%);fill-opacity:1;" d="M 791.511719 50.84375 L 791.511719 49.117188 L 785.492188 49.117188 L 785.492188 21.996094 C 785.492188 20.871094 785.492188 20.5625 784.65625 20.5625 C 784.179688 20.5625 784 20.5625 783.523438 21.285156 L 765.585938 49.117188 L 765.585938 50.84375 L 781.257812 50.84375 L 781.257812 56.265625 C 781.257812 58.46875 781.140625 59.070312 776.789062 59.070312 L 775.601562 59.070312 L 775.601562 60.796875 C 776.96875 60.679688 781.679688 60.679688 783.34375 60.679688 C 785.015625 60.679688 789.777344 60.679688 791.152344 60.796875 L 791.152344 59.070312 L 789.960938 59.070312 C 785.671875 59.070312 785.492188 58.46875 785.492188 56.265625 L 785.492188 50.84375 Z M 781.5625 49.117188 L 767.078125 49.117188 L 781.5625 26.648438 Z M 781.5625 49.117188 "/>
<path style=" stroke:none;fill-rule:evenodd;fill:rgb(0%,0%,0%);fill-opacity:1;" d="M 821.285156 23.78125 L 821.285156 22.414062 L 806.917969 22.414062 C 799.707031 22.414062 799.589844 21.640625 799.347656 20.511719 L 798.035156 20.511719 L 796.191406 32.429688 L 797.503906 32.429688 C 797.683594 31.351562 798.214844 27.65625 798.996094 27 C 799.472656 26.648438 803.941406 26.648438 804.777344 26.648438 L 817.410156 26.648438 L 811.089844 35.703125 C 809.480469 38.03125 803.464844 47.804688 803.464844 59.007812 C 803.464844 59.664062 803.464844 62.046875 805.910156 62.046875 C 808.410156 62.046875 808.410156 59.726562 808.410156 58.945312 L 808.410156 55.96875 C 808.410156 47.085938 809.839844 40.171875 812.644531 36.179688 Z M 821.285156 23.78125 "/>
<path style=" stroke:none;fill-rule:evenodd;fill:rgb(0%,0%,0%);fill-opacity:1;" d="M 851.898438 53.40625 L 851.898438 50.007812 L 850.585938 50.007812 L 850.585938 53.289062 C 850.585938 57.578125 848.859375 60.078125 846.53125 60.078125 C 842.484375 60.078125 842.484375 54.539062 842.484375 53.523438 L 842.484375 36.835938 L 850.882812 36.835938 L 850.882812 35.109375 L 842.484375 35.109375 L 842.484375 24.140625 L 841.171875 24.140625 C 841.109375 29.742188 838.96875 35.46875 833.542969 35.648438 L 833.542969 36.835938 L 838.609375 36.835938 L 838.609375 53.40625 C 838.609375 60.023438 843.015625 61.390625 846.179688 61.390625 C 849.929688 61.390625 851.898438 57.695312 851.898438 53.40625 Z M 851.898438 53.40625 "/>
<path style=" stroke:none;fill-rule:evenodd;fill:rgb(0%,0%,0%);fill-opacity:1;" d="M 874.398438 57.125 C 874.398438 52.867188 873.960938 50.289062 872.648438 47.742188 C 870.90625 44.25 867.6875 43.375 865.5 43.375 C 860.492188 43.375 858.664062 47.109375 858.109375 48.21875 C 856.679688 51.125 856.601562 55.054688 856.601562 57.125 C 856.601562 59.742188 856.71875 63.757812 858.625 66.9375 C 860.453125 69.871094 863.390625 70.628906 865.5 70.628906 C 867.40625 70.628906 870.820312 70.039062 872.8125 66.101562 C 874.28125 63.242188 874.398438 59.703125 874.398438 57.125 Z M 870.859375 56.648438 C 870.859375 58.992188 870.859375 62.5625 870.382812 64.789062 C 869.554688 68.960938 866.8125 69.515625 865.5 69.515625 C 864.148438 69.515625 861.40625 68.882812 860.570312 64.710938 C 860.132812 62.445312 860.132812 58.710938 860.132812 56.648438 C 860.132812 53.90625 860.132812 51.125 860.570312 48.9375 C 861.40625 44.882812 864.507812 44.484375 865.5 44.484375 C 866.851562 44.484375 869.59375 45.164062 870.382812 48.773438 C 870.859375 50.960938 870.859375 53.945312 870.859375 56.648438 Z M 870.859375 56.648438 "/>
<path style=" stroke:none;fill-rule:evenodd;fill:rgb(0%,0%,0%);fill-opacity:1;" d="M 1237.882812 41.726562 C 1237.882812 36.773438 1237.585938 31.953125 1235.4375 27.421875 C 1232.992188 22.46875 1228.703125 21.164062 1225.78125 21.164062 C 1222.328125 21.164062 1218.097656 22.890625 1215.894531 27.835938 C 1214.222656 31.59375 1213.628906 35.289062 1213.628906 41.726562 C 1213.628906 47.507812 1214.042969 51.859375 1216.191406 56.085938 C 1218.511719 60.617188 1222.625 62.046875 1225.71875 62.046875 C 1230.90625 62.046875 1233.890625 58.945312 1235.617188 55.492188 C 1237.765625 51.023438 1237.882812 45.179688 1237.882812 41.726562 Z M 1233.351562 41.007812 C 1233.351562 45 1233.351562 49.53125 1232.695312 53.164062 C 1231.5625 59.726562 1227.8125 60.859375 1225.71875 60.859375 C 1223.8125 60.859375 1219.941406 59.78125 1218.816406 53.289062 C 1218.160156 49.710938 1218.160156 45.179688 1218.160156 41.007812 C 1218.160156 36.125 1218.160156 31.710938 1219.113281 28.195312 C 1220.121094 24.203125 1223.15625 22.351562 1225.71875 22.351562 C 1227.984375 22.351562 1231.445312 23.726562 1232.578125 28.851562 C 1233.351562 32.25 1233.351562 36.953125 1233.351562 41.007812 Z M 1233.351562 41.007812 "/>
<path style=" stroke:none;fill-rule:evenodd;fill:rgb(0%,0%,0%);fill-opacity:1;" d="M 1251.148438 57.9375 C 1251.148438 56.210938 1249.71875 55.015625 1248.289062 55.015625 C 1246.554688 55.015625 1245.367188 56.445312 1245.367188 57.875 C 1245.367188 59.601562 1246.796875 60.796875 1248.226562 60.796875 C 1249.953125 60.796875 1251.148438 59.367188 1251.148438 57.9375 Z M 1251.148438 57.9375 "/>
<path style=" stroke:none;fill-rule:evenodd;fill:rgb(0%,0%,0%);fill-opacity:1;" d="M 1283.378906 50.90625 C 1283.378906 44.820312 1279.089844 42.140625 1274.433594 39.28125 C 1277.417969 37.671875 1281.769531 34.929688 1281.769531 29.921875 C 1281.769531 24.734375 1276.761719 21.164062 1271.277344 21.164062 C 1265.382812 21.164062 1260.734375 25.515625 1260.734375 30.9375 C 1260.734375 32.960938 1261.328125 34.992188 1263 37.015625 C 1263.65625 37.789062 1263.710938 37.851562 1267.882812 40.773438 C 1262.101562 43.453125 1259.125 47.445312 1259.125 51.796875 C 1259.125 58.117188 1265.140625 62.046875 1271.214844 62.046875 C 1277.832031 62.046875 1283.378906 57.164062 1283.378906 50.90625 Z M 1279.324219 29.984375 C 1279.324219 33.617188 1276.699219 36.539062 1273.25 38.445312 L 1266.335938 33.914062 C 1265.5625 33.382812 1263.179688 31.828125 1263.179688 28.90625 C 1263.179688 25.039062 1267.226562 22.59375 1271.214844 22.59375 C 1275.511719 22.59375 1279.324219 25.6875 1279.324219 29.984375 Z M 1280.636719 52.8125 C 1280.636719 57.34375 1276.042969 60.4375 1271.277344 60.4375 C 1266.21875 60.4375 1261.867188 56.742188 1261.867188 51.796875 C 1261.867188 47.148438 1265.265625 43.390625 1269.132812 41.601562 L 1276.347656 46.3125 C 1277.894531 47.328125 1280.636719 49.171875 1280.636719 52.8125 Z M 1280.636719 52.8125 "/>
<path style=" stroke:none;fill-rule:evenodd;fill:rgb(0%,0%,0%);fill-opacity:1;" d="M 1312.878906 41.1875 C 1312.878906 25.15625 1306.199219 21.164062 1300.957031 21.164062 C 1294.402344 21.164062 1288.621094 26.648438 1288.621094 34.515625 C 1288.621094 42.382812 1294.160156 47.742188 1300.121094 47.742188 C 1304.535156 47.742188 1306.800781 44.523438 1307.988281 41.484375 L 1307.988281 43.453125 C 1307.988281 57.515625 1301.730469 60.4375 1298.152344 60.4375 C 1296.722656 60.4375 1293.566406 60.257812 1292.074219 58.171875 L 1292.433594 58.171875 C 1292.847656 58.296875 1294.996094 57.9375 1294.996094 55.734375 C 1294.996094 54.421875 1294.105469 53.289062 1292.550781 53.289062 C 1291.003906 53.289062 1290.050781 54.296875 1290.050781 55.851562 C 1290.050781 59.546875 1293.027344 62.046875 1298.214844 62.046875 C 1305.667969 62.046875 1312.878906 54.125 1312.878906 41.1875 Z M 1307.871094 35.820312 C 1307.871094 40.828125 1305.605469 46.554688 1300.363281 46.554688 C 1296.605469 46.554688 1294.996094 43.515625 1294.457031 42.382812 C 1293.503906 40.117188 1293.503906 37.257812 1293.503906 34.570312 C 1293.503906 31.234375 1293.503906 28.375 1295.058594 25.929688 C 1296.128906 24.320312 1297.738281 22.59375 1300.957031 22.59375 C 1304.355469 22.59375 1306.082031 25.570312 1306.675781 26.945312 C 1307.871094 29.867188 1307.871094 34.929688 1307.871094 35.820312 Z M 1307.871094 35.820312 "/>
<path style=" stroke:none;fill-rule:evenodd;fill:rgb(0%,0%,0%);fill-opacity:1;" d="M 1342.710938 50.84375 L 1342.710938 49.117188 L 1336.6875 49.117188 L 1336.6875 21.996094 C 1336.6875 20.871094 1336.6875 20.5625 1335.851562 20.5625 C 1335.375 20.5625 1335.195312 20.5625 1334.71875 21.285156 L 1316.785156 49.117188 L 1316.785156 50.84375 L 1332.453125 50.84375 L 1332.453125 56.265625 C 1332.453125 58.46875 1332.335938 59.070312 1327.984375 59.070312 L 1326.796875 59.070312 L 1326.796875 60.796875 C 1328.164062 60.679688 1332.875 60.679688 1334.539062 60.679688 C 1336.210938 60.679688 1340.976562 60.679688 1342.351562 60.796875 L 1342.351562 59.070312 L 1341.15625 59.070312 C 1336.867188 59.070312 1336.6875 58.46875 1336.6875 56.265625 L 1336.6875 50.84375 Z M 1332.757812 49.117188 L 1318.277344 49.117188 L 1332.757812 26.648438 Z M 1332.757812 49.117188 "/>
<path style=" stroke:none;fill-rule:evenodd;fill:rgb(0%,0%,0%);fill-opacity:1;" d="M 1374.097656 53.40625 L 1374.097656 50.007812 L 1372.785156 50.007812 L 1372.785156 53.289062 C 1372.785156 57.578125 1371.058594 60.078125 1368.734375 60.078125 C 1364.6875 60.078125 1364.6875 54.539062 1364.6875 53.523438 L 1364.6875 36.835938 L 1373.082031 36.835938 L 1373.082031 35.109375 L 1364.6875 35.109375 L 1364.6875 24.140625 L 1363.375 24.140625 C 1363.3125 29.742188 1361.171875 35.46875 1355.742188 35.648438 L 1355.742188 36.835938 L 1360.8125 36.835938 L 1360.8125 53.40625 C 1360.8125 60.023438 1365.21875 61.390625 1368.382812 61.390625 C 1372.128906 61.390625 1374.097656 57.695312 1374.097656 53.40625 Z M 1374.097656 53.40625 "/>
<path style=" stroke:none;fill-rule:evenodd;fill:rgb(0%,0%,0%);fill-opacity:1;" d="M 1396.597656 57.125 C 1396.597656 52.867188 1396.160156 50.289062 1394.847656 47.742188 C 1393.105469 44.25 1389.886719 43.375 1387.699219 43.375 C 1382.691406 43.375 1380.863281 47.109375 1380.308594 48.21875 C 1378.878906 51.125 1378.800781 55.054688 1378.800781 57.125 C 1378.800781 59.742188 1378.917969 63.757812 1380.824219 66.9375 C 1382.652344 69.871094 1385.589844 70.628906 1387.699219 70.628906 C 1389.605469 70.628906 1393.019531 70.039062 1395.011719 66.101562 C 1396.480469 63.242188 1396.597656 59.703125 1396.597656 57.125 Z M 1393.058594 56.648438 C 1393.058594 58.992188 1393.058594 62.5625 1392.582031 64.789062 C 1391.753906 68.960938 1389.011719 69.515625 1387.699219 69.515625 C 1386.347656 69.515625 1383.605469 68.882812 1382.769531 64.710938 C 1382.332031 62.445312 1382.332031 58.710938 1382.332031 56.648438 C 1382.332031 53.90625 1382.332031 51.125 1382.769531 48.9375 C 1383.605469 44.882812 1386.707031 44.484375 1387.699219 44.484375 C 1389.050781 44.484375 1391.792969 45.164062 1392.582031 48.773438 C 1393.058594 50.960938 1393.058594 53.945312 1393.058594 56.648438 Z M 1393.058594 56.648438 "/>
<path style=" stroke:none;fill-rule:evenodd;fill:rgb(0%,0%,0%);fill-opacity:1;" d="M 1757.816406 60.796875 L 1757.816406 59.070312 L 1755.964844 59.070312 C 1750.726562 59.070312 1750.546875 58.351562 1750.546875 56.210938 L 1750.546875 22.59375 C 1750.546875 21.222656 1750.546875 21.164062 1749.359375 21.164062 C 1747.921875 22.773438 1744.945312 24.976562 1738.804688 24.976562 L 1738.804688 26.703125 C 1740.179688 26.703125 1743.15625 26.703125 1746.4375 25.15625 L 1746.4375 56.210938 C 1746.4375 58.351562 1746.257812 59.070312 1741.015625 59.070312 L 1739.164062 59.070312 L 1739.164062 60.796875 C 1740.773438 60.679688 1746.554688 60.679688 1748.523438 60.679688 C 1750.492188 60.679688 1756.207031 60.679688 1757.816406 60.796875 Z M 1757.816406 60.796875 "/>
<path style=" stroke:none;fill-rule:evenodd;fill:rgb(0%,0%,0%);fill-opacity:1;" d="M 1773.347656 57.9375 C 1773.347656 56.210938 1771.917969 55.015625 1770.488281 55.015625 C 1768.753906 55.015625 1767.566406 56.445312 1767.566406 57.875 C 1767.566406 59.601562 1768.996094 60.796875 1770.425781 60.796875 C 1772.152344 60.796875 1773.347656 59.367188 1773.347656 57.9375 Z M 1773.347656 57.9375 "/>
<path style=" stroke:none;fill-rule:evenodd;fill:rgb(0%,0%,0%);fill-opacity:1;" d="M 1805.578125 50.601562 C 1805.578125 45.125 1801.167969 40.828125 1795.449219 39.820312 C 1800.636719 38.328125 1803.972656 33.976562 1803.972656 29.328125 C 1803.972656 24.617188 1799.082031 21.164062 1793.300781 21.164062 C 1787.339844 21.164062 1782.933594 24.796875 1782.933594 29.148438 C 1782.933594 31.53125 1784.777344 32.007812 1785.675781 32.007812 C 1786.925781 32.007812 1788.355469 31.117188 1788.355469 29.328125 C 1788.355469 27.421875 1786.925781 26.585938 1785.613281 26.585938 C 1785.253906 26.585938 1785.136719 26.585938 1784.957031 26.648438 C 1787.222656 22.59375 1792.824219 22.59375 1793.121094 22.59375 C 1795.089844 22.59375 1798.964844 23.484375 1798.964844 29.328125 C 1798.964844 30.460938 1798.785156 33.796875 1797.058594 36.359375 C 1795.269531 38.984375 1793.246094 39.164062 1791.636719 39.21875 L 1789.847656 39.398438 C 1788.832031 39.460938 1788.597656 39.515625 1788.597656 40.054688 C 1788.597656 40.648438 1788.894531 40.648438 1789.964844 40.648438 L 1792.707031 40.648438 C 1797.769531 40.648438 1800.035156 44.820312 1800.035156 50.546875 C 1800.035156 58.351562 1795.988281 60.4375 1793.066406 60.4375 C 1790.207031 60.4375 1785.316406 59.070312 1783.589844 55.132812 C 1785.496094 55.429688 1787.222656 54.359375 1787.222656 52.210938 C 1787.222656 50.484375 1785.972656 49.296875 1784.300781 49.296875 C 1782.871094 49.296875 1781.324219 50.125 1781.324219 52.390625 C 1781.324219 57.695312 1786.628906 62.046875 1793.246094 62.046875 C 1800.332031 62.046875 1805.578125 56.625 1805.578125 50.601562 Z M 1805.578125 50.601562 "/>
<path style=" stroke:none;fill-rule:evenodd;fill:rgb(0%,0%,0%);fill-opacity:1;" d="M 1835.914062 50.84375 L 1835.914062 49.117188 L 1829.890625 49.117188 L 1829.890625 21.996094 C 1829.890625 20.871094 1829.890625 20.5625 1829.054688 20.5625 C 1828.578125 20.5625 1828.398438 20.5625 1827.921875 21.285156 L 1809.984375 49.117188 L 1809.984375 50.84375 L 1825.65625 50.84375 L 1825.65625 56.265625 C 1825.65625 58.46875 1825.539062 59.070312 1821.1875 59.070312 L 1820 59.070312 L 1820 60.796875 C 1821.367188 60.679688 1826.078125 60.679688 1827.742188 60.679688 C 1829.414062 60.679688 1834.179688 60.679688 1835.554688 60.796875 L 1835.554688 59.070312 L 1834.359375 59.070312 C 1830.070312 59.070312 1829.890625 58.46875 1829.890625 56.265625 L 1829.890625 50.84375 Z M 1825.960938 49.117188 L 1811.476562 49.117188 L 1825.960938 26.648438 Z M 1825.960938 49.117188 "/>
<path style=" stroke:none;fill-rule:evenodd;fill:rgb(0%,0%,0%);fill-opacity:1;" d="M 1864.074219 41.726562 C 1864.074219 36.773438 1863.777344 31.953125 1861.628906 27.421875 C 1859.183594 22.46875 1854.894531 21.164062 1851.976562 21.164062 C 1848.523438 21.164062 1844.289062 22.890625 1842.085938 27.835938 C 1840.414062 31.59375 1839.820312 35.289062 1839.820312 41.726562 C 1839.820312 47.507812 1840.234375 51.859375 1842.382812 56.085938 C 1844.703125 60.617188 1848.820312 62.046875 1851.914062 62.046875 C 1857.097656 62.046875 1860.082031 58.945312 1861.808594 55.492188 C 1863.957031 51.023438 1864.074219 45.179688 1864.074219 41.726562 Z M 1859.542969 41.007812 C 1859.542969 45 1859.542969 49.53125 1858.886719 53.164062 C 1857.753906 59.726562 1854.007812 60.859375 1851.914062 60.859375 C 1850.007812 60.859375 1846.132812 59.78125 1845.007812 53.289062 C 1844.351562 49.710938 1844.351562 45.179688 1844.351562 41.007812 C 1844.351562 36.125 1844.351562 31.710938 1845.304688 28.195312 C 1846.3125 24.203125 1849.351562 22.351562 1851.914062 22.351562 C 1854.175781 22.351562 1857.636719 23.726562 1858.769531 28.851562 C 1859.542969 32.25 1859.542969 36.953125 1859.542969 41.007812 Z M 1859.542969 41.007812 "/>
<path style=" stroke:none;fill-rule:evenodd;fill:rgb(0%,0%,0%);fill-opacity:1;" d="M 1896.300781 53.40625 L 1896.300781 50.007812 L 1894.988281 50.007812 L 1894.988281 53.289062 C 1894.988281 57.578125 1893.261719 60.078125 1890.933594 60.078125 C 1886.886719 60.078125 1886.886719 54.539062 1886.886719 53.523438 L 1886.886719 36.835938 L 1895.285156 36.835938 L 1895.285156 35.109375 L 1886.886719 35.109375 L 1886.886719 24.140625 L 1885.574219 24.140625 C 1885.511719 29.742188 1883.371094 35.46875 1877.941406 35.648438 L 1877.941406 36.835938 L 1883.011719 36.835938 L 1883.011719 53.40625 C 1883.011719 60.023438 1887.417969 61.390625 1890.582031 61.390625 C 1894.332031 61.390625 1896.300781 57.695312 1896.300781 53.40625 Z M 1896.300781 53.40625 "/>
<path style=" stroke:none;fill-rule:evenodd;fill:rgb(0%,0%,0%);fill-opacity:1;" d="M 1918.796875 57.125 C 1918.796875 52.867188 1918.359375 50.289062 1917.046875 47.742188 C 1915.304688 44.25 1912.085938 43.375 1909.898438 43.375 C 1904.890625 43.375 1903.066406 47.109375 1902.507812 48.21875 C 1901.082031 51.125 1901.003906 55.054688 1901.003906 57.125 C 1901.003906 59.742188 1901.121094 63.757812 1903.027344 66.9375 C 1904.851562 69.871094 1907.789062 70.628906 1909.898438 70.628906 C 1911.804688 70.628906 1915.21875 70.039062 1917.210938 66.101562 C 1918.679688 63.242188 1918.796875 59.703125 1918.796875 57.125 Z M 1915.257812 56.648438 C 1915.257812 58.992188 1915.257812 62.5625 1914.78125 64.789062 C 1913.953125 68.960938 1911.210938 69.515625 1909.898438 69.515625 C 1908.546875 69.515625 1905.804688 68.882812 1904.96875 64.710938 C 1904.53125 62.445312 1904.53125 58.710938 1904.53125 56.648438 C 1904.53125 53.90625 1904.53125 51.125 1904.96875 48.9375 C 1905.804688 44.882812 1908.90625 44.484375 1909.898438 44.484375 C 1911.25 44.484375 1913.992188 45.164062 1914.78125 48.773438 C 1915.257812 50.960938 1915.257812 53.945312 1915.257812 56.648438 Z M 1915.257812 56.648438 "/>
<g clip-path="url(#clip1)" clip-rule="nonzero">
<path style="fill:none;stroke-width:1;stroke-linecap:square;stroke-linejoin:miter;stroke:rgb(0%,0%,0%);stroke-opacity:1;stroke-miterlimit:3.25;" d="M 3.601562 255.402344 L 519.601562 255.402344 "/>
</g>
<g clip-path="url(#clip2)" clip-rule="nonzero">
<path style="fill:none;stroke-width:1;stroke-linecap:square;stroke-linejoin:miter;stroke:rgb(0%,0%,0%);stroke-opacity:1;stroke-miterlimit:3.25;" d="M 3.601562 198.675781 L 519.601562 312.125 "/>
</g>
<path style="fill-rule:nonzero;fill:rgb(50%,50%,50%);fill-opacity:1;stroke-width:1;stroke-linecap:square;stroke-linejoin:miter;stroke:rgb(50%,50%,50%);stroke-opacity:1;stroke-miterlimit:3.25;" d="M 308.632812 473.878906 L 334.421875 466.6875 L 274.492188 251.804688 L 248.707031 258.996094 Z M 308.632812 473.878906 "/>
<path style="fill:none;stroke-width:2;stroke-linecap:square;stroke-linejoin:miter;stroke:rgb(0%,0%,0%);stroke-opacity:1;stroke-miterlimit:3.25;" d="M 308.632812 473.878906 L 334.421875 466.6875 L 274.492188 251.804688 L 248.707031 258.996094 Z M 308.632812 473.878906 "/>
<path style="fill-rule:nonzero;fill:rgb(84.999084%,84.999084%,84.999084%);fill-opacity:1;stroke-width:2;stroke-linecap:square;stroke-linejoin:miter;stroke:rgb(84.999084%,84.999084%,84.999084%);stroke-opacity:1;stroke-miterlimit:3.25;" d="M 311.332031 461.609375 L 331.722656 478.953125 L 476.257812 309.027344 L 455.863281 291.683594 Z M 311.332031 461.609375 "/>
<path style="fill:none;stroke-width:2;stroke-linecap:square;stroke-linejoin:miter;stroke:rgb(0%,0%,0%);stroke-opacity:1;stroke-miterlimit:3.25;" d="M 311.332031 461.609375 L 331.722656 478.953125 L 476.257812 309.027344 L 455.863281 291.683594 Z M 311.332031 461.609375 "/>
<path style="fill-rule:evenodd;fill:rgb(99.998474%,99.998474%,99.998474%);fill-opacity:1;stroke-width:2;stroke-linecap:square;stroke-linejoin:miter;stroke:rgb(0%,0%,0%);stroke-opacity:1;stroke-miterlimit:3.25;" d="M 341.605469 470.28125 C 341.605469 464.957031 339.488281 459.851562 335.722656 456.085938 C 331.957031 452.320312 326.851562 450.207031 321.527344 450.207031 C 316.203125 450.207031 311.09375 452.320312 307.332031 456.085938 C 303.566406 459.851562 301.449219 464.957031 301.449219 470.28125 C 301.449219 475.609375 303.566406 480.714844 307.332031 484.480469 C 311.09375 488.246094 316.203125 490.359375 321.527344 490.359375 C 326.851562 490.359375 331.957031 488.246094 335.722656 484.480469 C 339.488281 480.714844 341.605469 475.609375 341.605469 470.28125 Z M 341.605469 470.28125 "/>
<path style="fill-rule:evenodd;fill:rgb(99.998474%,99.998474%,99.998474%);fill-opacity:1;stroke-width:2;stroke-linecap:square;stroke-linejoin:miter;stroke:rgb(0%,0%,0%);stroke-opacity:1;stroke-miterlimit:3.25;" d="M 341.605469 470.28125 C 341.605469 464.957031 339.488281 459.851562 335.722656 456.085938 C 331.957031 452.320312 326.851562 450.207031 321.527344 450.207031 C 316.203125 450.207031 311.09375 452.320312 307.332031 456.085938 C 303.566406 459.851562 301.449219 464.957031 301.449219 470.28125 C 301.449219 475.609375 303.566406 480.714844 307.332031 484.480469 C 311.09375 488.246094 316.203125 490.359375 321.527344 490.359375 C 326.851562 490.359375 331.957031 488.246094 335.722656 484.480469 C 339.488281 480.714844 341.605469 475.609375 341.605469 470.28125 Z M 341.605469 470.28125 "/>
<path style=" stroke:none;fill-rule:evenodd;fill:rgb(99.998474%,99.998474%,99.998474%);fill-opacity:1;" d="M 288.304688 561.175781 C 288.304688 546.152344 276.128906 533.972656 261.105469 533.972656 C 246.082031 533.972656 233.902344 546.152344 233.902344 561.175781 C 233.902344 576.199219 246.082031 588.375 261.105469 588.375 C 276.128906 588.375 288.304688 576.199219 288.304688 561.175781 Z M 288.304688 561.175781 "/>
<g clip-path="url(#clip3)" clip-rule="nonzero">
<path style="fill:none;stroke-width:1.43429;stroke-linecap:square;stroke-linejoin:miter;stroke:rgb(0%,0%,0%);stroke-opacity:1;stroke-miterlimit:10;" d="M 288.304688 561.175781 C 288.304688 546.152344 276.128906 533.972656 261.105469 533.972656 C 246.082031 533.972656 233.902344 546.152344 233.902344 561.175781 C 233.902344 576.199219 246.082031 588.375 261.105469 588.375 C 276.128906 588.375 288.304688 576.199219 288.304688 561.175781 Z M 288.304688 561.175781 "/>
</g>
<path style=" stroke:none;fill-rule:evenodd;fill:rgb(0%,0%,0%);fill-opacity:1;" d="M 269.699219 567.382812 C 269.699219 563.441406 266.519531 560.347656 262.402344 559.621094 C 266.136719 558.546875 268.539062 555.414062 268.539062 552.070312 C 268.539062 548.679688 265.019531 546.191406 260.855469 546.191406 C 256.566406 546.191406 253.394531 548.808594 253.394531 551.941406 C 253.394531 553.65625 254.722656 553.996094 255.367188 553.996094 C 256.269531 553.996094 257.296875 553.355469 257.296875 552.070312 C 257.296875 550.695312 256.269531 550.09375 255.324219 550.09375 C 255.066406 550.09375 254.980469 550.09375 254.851562 550.140625 C 256.480469 547.222656 260.515625 547.222656 260.726562 547.222656 C 262.144531 547.222656 264.933594 547.863281 264.933594 552.070312 C 264.933594 552.882812 264.804688 555.285156 263.5625 557.128906 C 262.273438 559.019531 260.816406 559.148438 259.660156 559.1875 L 258.371094 559.316406 C 257.640625 559.363281 257.472656 559.402344 257.472656 559.789062 C 257.472656 560.21875 257.683594 560.21875 258.457031 560.21875 L 260.429688 560.21875 C 264.074219 560.21875 265.703125 563.222656 265.703125 567.34375 C 265.703125 572.960938 262.792969 574.464844 260.6875 574.464844 C 258.628906 574.464844 255.109375 573.480469 253.867188 570.644531 C 255.238281 570.859375 256.480469 570.085938 256.480469 568.542969 C 256.480469 567.296875 255.582031 566.445312 254.378906 566.445312 C 253.347656 566.445312 252.234375 567.039062 252.234375 568.671875 C 252.234375 572.488281 256.054688 575.621094 260.816406 575.621094 C 265.917969 575.621094 269.699219 571.71875 269.699219 567.382812 Z M 269.699219 567.382812 "/>
<g clip-path="url(#clip4)" clip-rule="nonzero">
<path style="fill:none;stroke-width:1;stroke-linecap:square;stroke-linejoin:miter;stroke:rgb(0%,0%,0%);stroke-opacity:1;stroke-miterlimit:3.25;" d="M 525.800781 255.5 L 1041.800781 255.5 "/>
</g>
<g clip-path="url(#clip5)" clip-rule="nonzero">
<path style="fill:none;stroke-width:1;stroke-linecap:square;stroke-linejoin:miter;stroke:rgb(0%,0%,0%);stroke-opacity:1;stroke-miterlimit:3.25;" d="M 525.800781 198.777344 L 1041.800781 312.226562 "/>
</g>
<path style="fill-rule:nonzero;fill:rgb(50%,50%,50%);fill-opacity:1;stroke-width:1;stroke-linecap:square;stroke-linejoin:miter;stroke:rgb(50%,50%,50%);stroke-opacity:1;stroke-miterlimit:3.25;" d="M 746.167969 475.792969 L 772.777344 478.710938 L 797.105469 256.960938 L 770.496094 254.042969 Z M 746.167969 475.792969 "/>
<path style="fill:none;stroke-width:2;stroke-linecap:square;stroke-linejoin:miter;stroke:rgb(0%,0%,0%);stroke-opacity:1;stroke-miterlimit:3.25;" d="M 746.167969 475.792969 L 772.777344 478.710938 L 797.105469 256.960938 L 770.496094 254.042969 Z M 746.167969 475.792969 "/>
<path style="fill-rule:nonzero;fill:rgb(84.999084%,84.999084%,84.999084%);fill-opacity:1;stroke-width:2;stroke-linecap:square;stroke-linejoin:miter;stroke:rgb(84.999084%,84.999084%,84.999084%);stroke-opacity:1;stroke-miterlimit:3.25;" d="M 749.996094 467.796875 L 768.949219 486.707031 L 926.511719 328.785156 L 907.5625 309.878906 Z M 749.996094 467.796875 "/>
<path style="fill:none;stroke-width:2;stroke-linecap:square;stroke-linejoin:miter;stroke:rgb(0%,0%,0%);stroke-opacity:1;stroke-miterlimit:3.25;" d="M 749.996094 467.796875 L 768.949219 486.707031 L 926.511719 328.785156 L 907.5625 309.878906 Z M 749.996094 467.796875 "/>
<path style="fill-rule:evenodd;fill:rgb(99.998474%,99.998474%,99.998474%);fill-opacity:1;stroke-width:2;stroke-linecap:square;stroke-linejoin:miter;stroke:rgb(0%,0%,0%);stroke-opacity:1;stroke-miterlimit:3.25;" d="M 779.550781 477.25 C 779.550781 471.925781 777.433594 466.820312 773.667969 463.054688 C 769.902344 459.289062 764.796875 457.175781 759.472656 457.175781 C 754.148438 457.175781 749.039062 459.289062 745.273438 463.054688 C 741.511719 466.820312 739.394531 471.925781 739.394531 477.25 C 739.394531 482.578125 741.511719 487.683594 745.273438 491.449219 C 749.039062 495.214844 754.148438 497.328125 759.472656 497.328125 C 764.796875 497.328125 769.902344 495.214844 773.667969 491.449219 C 777.433594 487.683594 779.550781 482.578125 779.550781 477.25 Z M 779.550781 477.25 "/>
<path style="fill-rule:evenodd;fill:rgb(99.998474%,99.998474%,99.998474%);fill-opacity:1;stroke-width:2;stroke-linecap:square;stroke-linejoin:miter;stroke:rgb(0%,0%,0%);stroke-opacity:1;stroke-miterlimit:3.25;" d="M 779.550781 477.25 C 779.550781 471.925781 777.433594 466.820312 773.667969 463.054688 C 769.902344 459.289062 764.796875 457.175781 759.472656 457.175781 C 754.148438 457.175781 749.039062 459.289062 745.273438 463.054688 C 741.511719 466.820312 739.394531 471.925781 739.394531 477.25 C 739.394531 482.578125 741.511719 487.683594 745.273438 491.449219 C 749.039062 495.214844 754.148438 497.328125 759.472656 497.328125 C 764.796875 497.328125 769.902344 495.214844 773.667969 491.449219 C 777.433594 487.683594 779.550781 482.578125 779.550781 477.25 Z M 779.550781 477.25 "/>
<g clip-path="url(#clip6)" clip-rule="nonzero">
<path style="fill:none;stroke-width:1;stroke-linecap:square;stroke-linejoin:miter;stroke:rgb(0%,0%,0%);stroke-opacity:1;stroke-miterlimit:3.25;" d="M 1048 255.5 L 1564 255.5 "/>
</g>
<g clip-path="url(#clip7)" clip-rule="nonzero">
<path style="fill:none;stroke-width:1;stroke-linecap:square;stroke-linejoin:miter;stroke:rgb(0%,0%,0%);stroke-opacity:1;stroke-miterlimit:3.25;" d="M 1048 198.777344 L 1564 312.226562 "/>
</g>
<path style="fill-rule:nonzero;fill:rgb(50%,50%,50%);fill-opacity:1;stroke-width:1;stroke-linecap:square;stroke-linejoin:miter;stroke:rgb(50%,50%,50%);stroke-opacity:1;stroke-miterlimit:3.25;" d="M 1185.667969 443.820312 L 1209.046875 456.859375 L 1317.691406 262.019531 L 1294.308594 248.980469 Z M 1185.667969 443.820312 "/>
<path style="fill:none;stroke-width:2;stroke-linecap:square;stroke-linejoin:miter;stroke:rgb(0%,0%,0%);stroke-opacity:1;stroke-miterlimit:3.25;" d="M 1185.667969 443.820312 L 1209.046875 456.859375 L 1317.691406 262.019531 L 1294.308594 248.980469 Z M 1185.667969 443.820312 "/>
<path style="fill-rule:nonzero;fill:rgb(84.999084%,84.999084%,84.999084%);fill-opacity:1;stroke-width:2;stroke-linecap:square;stroke-linejoin:miter;stroke:rgb(84.999084%,84.999084%,84.999084%);stroke-opacity:1;stroke-miterlimit:3.25;" d="M 1193.792969 437.4375 L 1200.921875 463.242188 L 1415.945312 403.828125 L 1408.816406 378.023438 Z M 1193.792969 437.4375 "/>
<path style="fill:none;stroke-width:2;stroke-linecap:square;stroke-linejoin:miter;stroke:rgb(0%,0%,0%);stroke-opacity:1;stroke-miterlimit:3.25;" d="M 1193.792969 437.4375 L 1200.921875 463.242188 L 1415.945312 403.828125 L 1408.816406 378.023438 Z M 1193.792969 437.4375 "/>
<path style="fill-rule:evenodd;fill:rgb(99.998474%,99.998474%,99.998474%);fill-opacity:1;stroke-width:2;stroke-linecap:square;stroke-linejoin:miter;stroke:rgb(0%,0%,0%);stroke-opacity:1;stroke-miterlimit:3.25;" d="M 1217.433594 450.339844 C 1217.433594 445.015625 1215.320312 439.90625 1211.554688 436.140625 C 1207.789062 432.378906 1202.679688 430.261719 1197.355469 430.261719 C 1192.03125 430.261719 1186.925781 432.378906 1183.160156 436.140625 C 1179.394531 439.90625 1177.277344 445.015625 1177.277344 450.339844 C 1177.277344 455.664062 1179.394531 460.769531 1183.160156 464.535156 C 1186.925781 468.300781 1192.03125 470.417969 1197.355469 470.417969 C 1202.679688 470.417969 1207.789062 468.300781 1211.554688 464.535156 C 1215.320312 460.769531 1217.433594 455.664062 1217.433594 450.339844 Z M 1217.433594 450.339844 "/>
<path style="fill-rule:evenodd;fill:rgb(99.998474%,99.998474%,99.998474%);fill-opacity:1;stroke-width:2;stroke-linecap:square;stroke-linejoin:miter;stroke:rgb(0%,0%,0%);stroke-opacity:1;stroke-miterlimit:3.25;" d="M 1217.433594 450.339844 C 1217.433594 445.015625 1215.320312 439.90625 1211.554688 436.140625 C 1207.789062 432.378906 1202.679688 430.261719 1197.355469 430.261719 C 1192.03125 430.261719 1186.925781 432.378906 1183.160156 436.140625 C 1179.394531 439.90625 1177.277344 445.015625 1177.277344 450.339844 C 1177.277344 455.664062 1179.394531 460.769531 1183.160156 464.535156 C 1186.925781 468.300781 1192.03125 470.417969 1197.355469 470.417969 C 1202.679688 470.417969 1207.789062 468.300781 1211.554688 464.535156 C 1215.320312 460.769531 1217.433594 455.664062 1217.433594 450.339844 Z M 1217.433594 450.339844 "/>
<g clip-path="url(#clip8)" clip-rule="nonzero">
<path style="fill:none;stroke-width:1;stroke-linecap:square;stroke-linejoin:miter;stroke:rgb(0%,0%,0%);stroke-opacity:1;stroke-miterlimit:3.25;" d="M 1570.199219 255.5 L 2086.199219 255.5 "/>
</g>
<g clip-path="url(#clip9)" clip-rule="nonzero">
<path style="fill:none;stroke-width:1;stroke-linecap:square;stroke-linejoin:miter;stroke:rgb(0%,0%,0%);stroke-opacity:1;stroke-miterlimit:3.25;" d="M 1570.199219 198.777344 L 2086.199219 312.226562 "/>
</g>
<path style="fill-rule:nonzero;fill:rgb(50%,50%,50%);fill-opacity:1;stroke-width:1;stroke-linecap:square;stroke-linejoin:miter;stroke:rgb(50%,50%,50%);stroke-opacity:1;stroke-miterlimit:3.25;" d="M 1673.472656 416.757812 L 1693.863281 434.101562 L 1838.394531 264.171875 L 1818.003906 246.828125 Z M 1673.472656 416.757812 "/>
<path style="fill:none;stroke-width:2;stroke-linecap:square;stroke-linejoin:miter;stroke:rgb(0%,0%,0%);stroke-opacity:1;stroke-miterlimit:3.25;" d="M 1673.472656 416.757812 L 1693.863281 434.101562 L 1838.394531 264.171875 L 1818.003906 246.828125 Z M 1673.472656 416.757812 "/>
<path style="fill-rule:nonzero;fill:rgb(84.999084%,84.999084%,84.999084%);fill-opacity:1;stroke-width:2;stroke-linecap:square;stroke-linejoin:miter;stroke:rgb(84.999084%,84.999084%,84.999084%);stroke-opacity:1;stroke-miterlimit:3.25;" d="M 1670.773438 429.023438 L 1696.558594 421.832031 L 1636.632812 206.953125 L 1610.847656 214.144531 Z M 1670.773438 429.023438 "/>
<path style="fill:none;stroke-width:2;stroke-linecap:square;stroke-linejoin:miter;stroke:rgb(0%,0%,0%);stroke-opacity:1;stroke-miterlimit:3.25;" d="M 1670.773438 429.023438 L 1696.558594 421.832031 L 1636.632812 206.953125 L 1610.847656 214.144531 Z M 1670.773438 429.023438 "/>
<path style="fill-rule:evenodd;fill:rgb(99.998474%,99.998474%,99.998474%);fill-opacity:1;stroke-width:2;stroke-linecap:square;stroke-linejoin:miter;stroke:rgb(0%,0%,0%);stroke-opacity:1;stroke-miterlimit:3.25;" d="M 1703.746094 425.429688 C 1703.746094 420.105469 1701.628906 414.996094 1697.863281 411.230469 C 1694.097656 407.464844 1688.992188 405.351562 1683.667969 405.351562 C 1678.34375 405.351562 1673.234375 407.464844 1669.46875 411.230469 C 1665.703125 414.996094 1663.589844 420.105469 1663.589844 425.429688 C 1663.589844 430.753906 1665.703125 435.859375 1669.46875 439.625 C 1673.234375 443.390625 1678.34375 445.503906 1683.667969 445.503906 C 1688.992188 445.503906 1694.097656 443.390625 1697.863281 439.625 C 1701.628906 435.859375 1703.746094 430.753906 1703.746094 425.429688 Z M 1703.746094 425.429688 "/>
<path style="fill-rule:evenodd;fill:rgb(99.998474%,99.998474%,99.998474%);fill-opacity:1;stroke-width:2;stroke-linecap:square;stroke-linejoin:miter;stroke:rgb(0%,0%,0%);stroke-opacity:1;stroke-miterlimit:3.25;" d="M 1703.746094 425.429688 C 1703.746094 420.105469 1701.628906 414.996094 1697.863281 411.230469 C 1694.097656 407.464844 1688.992188 405.351562 1683.667969 405.351562 C 1678.34375 405.351562 1673.234375 407.464844 1669.46875 411.230469 C 1665.703125 414.996094 1663.589844 420.105469 1663.589844 425.429688 C 1663.589844 430.753906 1665.703125 435.859375 1669.46875 439.625 C 1673.234375 443.390625 1678.34375 445.503906 1683.667969 445.503906 C 1688.992188 445.503906 1694.097656 443.390625 1697.863281 439.625 C 1701.628906 435.859375 1703.746094 430.753906 1703.746094 425.429688 Z M 1703.746094 425.429688 "/>
<path style=" stroke:none;fill-rule:nonzero;fill:rgb(0%,0%,0%);fill-opacity:1;" d="M 0 1 L 2089.800781 1 L 2089.800781 3 L 0 3 Z M 0 1 "/>
<path style=" stroke:none;fill-rule:nonzero;fill:rgb(50%,50%,50%);fill-opacity:1;" d="M 1 90.199219 L 2088.800781 90.199219 L 2088.800781 91.199219 L 1 91.199219 Z M 1 90.199219 "/>
<path style=" stroke:none;fill-rule:nonzero;fill:rgb(0%,0%,0%);fill-opacity:1;" d="M 0 597.398438 L 2089.800781 597.398438 L 2089.800781 599.398438 L 0 599.398438 Z M 0 597.398438 "/>
<path style=" stroke:none;fill-rule:nonzero;fill:rgb(0%,0%,0%);fill-opacity:1;" d="M 1 3 L 1 597.398438 L 0 597.398438 L 0 3 Z M 1 3 "/>
<path style=" stroke:none;fill-rule:nonzero;fill:rgb(0%,0%,0%);fill-opacity:1;" d="M 523.199219 3 L 523.199219 597.398438 L 522.199219 597.398438 L 522.199219 3 Z M 523.199219 3 "/>
<path style=" stroke:none;fill-rule:nonzero;fill:rgb(0%,0%,0%);fill-opacity:1;" d="M 1045.398438 3 L 1045.398438 597.398438 L 1044.398438 597.398438 L 1044.398438 3 Z M 1045.398438 3 "/>
<path style=" stroke:none;fill-rule:nonzero;fill:rgb(0%,0%,0%);fill-opacity:1;" d="M 1567.601562 3 L 1567.601562 597.398438 L 1566.601562 597.398438 L 1566.601562 3 Z M 1567.601562 3 "/>
<path style=" stroke:none;fill-rule:nonzero;fill:rgb(0%,0%,0%);fill-opacity:1;" d="M 2089.800781 3 L 2089.800781 597.398438 L 2088.800781 597.398438 L 2088.800781 3 Z M 2089.800781 3 "/>
</g>
</svg>
