<?xml version="1.0" encoding="UTF-8" standalone="no"?>
<svg
   width="2107pt"
   height="608pt"
   viewBox="0 0 2107 608"
   version="1.1"
   id="svg730"
   sodipodi:docname="level-ground.svg"
   inkscape:version="1.2 (dc2aedaf03, 2022-05-15)"
   xmlns:inkscape="http://www.inkscape.org/namespaces/inkscape"
   xmlns:sodipodi="http://sodipodi.sourceforge.net/DTD/sodipodi-0.dtd"
   xmlns="http://www.w3.org/2000/svg"
   xmlns:svg="http://www.w3.org/2000/svg">
  <sodipodi:namedview
     id="namedview732"
     pagecolor="#ffffff"
     bordercolor="#000000"
     borderopacity="0.25"
     inkscape:showpageshadow="2"
     inkscape:pageopacity="0.0"
     inkscape:pagecheckerboard="0"
     inkscape:deskcolor="#d1d1d1"
     inkscape:document-units="pt"
     showgrid="false"
     inkscape:zoom="0.4663028"
     inkscape:cx="338.83562"
     inkscape:cy="535.06005"
     inkscape:window-width="2560"
     inkscape:window-height="1351"
     inkscape:window-x="-9"
     inkscape:window-y="-9"
     inkscape:window-maximized="1"
     inkscape:current-layer="surface16" />
  <defs
     id="defs563">
    <clipPath
       id="clip1">
      <path
         d="M 31.921875 517 L 496.078125 517 L 496.078125 520 L 31.921875 520 Z M 31.921875 517 "
         id="path548" />
    </clipPath>
    <clipPath
       id="clip2">
      <path
         d="M 231.839844 534.71875 L 295.921875 534.71875 L 295.921875 599.761719 L 231.839844 599.761719 Z M 231.839844 534.71875 "
         id="path551" />
    </clipPath>
    <clipPath
       id="clip3">
      <path
         d="M 558 518 L 1022.160156 518 L 1022.160156 521 L 558 521 Z M 558 518 "
         id="path554" />
    </clipPath>
    <clipPath
       id="clip4">
      <path
         d="M 1084.078125 518 L 1548.238281 518 L 1548.238281 521 L 1084.078125 521 Z M 1084.078125 518 "
         id="path557" />
    </clipPath>
    <clipPath
       id="clip5">
      <path
         d="M 1610.160156 518 L 2074.320313 518 L 2074.320313 521 L 1610.160156 521 Z M 1610.160156 518 "
         id="path560" />
    </clipPath>
    <clipPath
       id="clip3-8">
      <path
         d="M 196,466.80078 H 332 V 568 H 196 Z m 0,0"
         id="path8-1" />
    </clipPath>
  </defs>
  <g
     id="surface16">
    <path
       style=" stroke:none;fill-rule:nonzero;fill:rgb(0%,0%,0%);fill-opacity:1;"
       d="M 0 1 L 2106.398438 1 L 2106.398438 3 L 0 3 Z M 0 1 "
       id="path565" />
    <path
       style=" stroke:none;fill-rule:nonzero;fill:rgb(50%,50%,50%);fill-opacity:1;"
       d="M 1 96.699219 L 2105.398438 96.699219 L 2105.398438 97.699219 L 1 97.699219 Z M 1 96.699219 "
       id="path567" />
    <path
       style=" stroke:none;fill-rule:nonzero;fill:rgb(0%,0%,0%);fill-opacity:1;"
       d="M 0 604.398438 L 2106.398438 604.398438 L 2106.398438 606.398438 L 0 606.398438 Z M 0 604.398438 "
       id="path569" />
    <path
       style=" stroke:none;fill-rule:nonzero;fill:rgb(0%,0%,0%);fill-opacity:1;"
       d="M 1 3 L 1 604.398438 L 0 604.398438 L 0 3 Z M 1 3 "
       id="path571" />
    <path
       style=" stroke:none;fill-rule:nonzero;fill:rgb(0%,0%,0%);fill-opacity:1;"
       d="M 528.101563 3 L 528.101563 604.398438 L 527.101563 604.398438 L 527.101563 3 Z M 528.101563 3 "
       id="path573" />
    <path
       style=" stroke:none;fill-rule:nonzero;fill:rgb(0%,0%,0%);fill-opacity:1;"
       d="M 1054.199219 3 L 1054.199219 604.398438 L 1053.199219 604.398438 L 1053.199219 3 Z M 1054.199219 3 "
       id="path575" />
    <path
       style=" stroke:none;fill-rule:nonzero;fill:rgb(0%,0%,0%);fill-opacity:1;"
       d="M 1580.300781 3 L 1580.300781 604.398438 L 1579.300781 604.398438 L 1579.300781 3 Z M 1580.300781 3 "
       id="path577" />
    <path
       style=" stroke:none;fill-rule:nonzero;fill:rgb(0%,0%,0%);fill-opacity:1;"
       d="M 2106.398438 3 L 2106.398438 604.398438 L 2105.398438 604.398438 L 2105.398438 3 Z M 2106.398438 3 "
       id="path579" />
    <path
       style=" stroke:none;fill-rule:evenodd;fill:rgb(0%,0%,0%);fill-opacity:1;"
       d="M 186.886719 53.386719 C 186.886719 53.027344 186.652344 52.847656 186.292969 52.847656 C 186.292969 52.847656 185.933594 52.847656 185.816406 53.089844 C 185.816406 53.089844 185.699219 53.207031 185.277344 54.160156 C 184.027344 57.144531 181.285156 61.316406 177.832031 61.316406 C 176.042969 61.316406 175.917969 59.824219 175.917969 58.511719 C 175.917969 58.511719 175.917969 57.324219 176.097656 56.605469 L 180.746094 37.949219 L 186.230469 37.949219 C 187.363281 37.949219 187.964844 37.949219 187.964844 36.878906 C 187.964844 36.222656 187.605469 36.222656 186.410156 36.222656 L 181.167969 36.222656 L 183.371094 27.519531 C 183.613281 26.683594 183.613281 26.566406 183.613281 26.152344 C 183.613281 25.191406 182.832031 24.660156 182.058594 24.660156 C 181.582031 24.660156 180.214844 24.839844 179.738281 26.746094 L 177.410156 36.222656 L 171.808594 36.222656 C 170.621094 36.222656 170.082031 36.222656 170.082031 37.355469 C 170.082031 37.949219 170.496094 37.949219 171.628906 37.949219 L 176.933594 37.949219 L 173.003906 53.683594 C 172.527344 55.769531 172.347656 56.363281 172.347656 57.144531 C 172.347656 59.941406 174.316406 62.503906 177.652344 62.503906 C 183.667969 62.503906 186.886719 53.800781 186.886719 53.386719 Z M 186.886719 53.386719 "
       id="path581" />
    <path
       style=" stroke:none;fill-rule:evenodd;fill:rgb(0%,0%,0%);fill-opacity:1;"
       d="M 248.414063 41.527344 C 248.414063 40.394531 247.398438 40.394531 246.507813 40.394531 L 211.398438 40.394531 C 210.5625 40.394531 209.492188 40.394531 209.492188 41.464844 C 209.492188 42.597656 210.507813 42.597656 211.398438 42.597656 L 246.507813 42.597656 C 247.335938 42.597656 248.414063 42.597656 248.414063 41.527344 Z M 248.414063 52.613281 C 248.414063 51.480469 247.398438 51.480469 246.507813 51.480469 L 211.398438 51.480469 C 210.5625 51.480469 209.492188 51.480469 209.492188 52.550781 C 209.492188 53.683594 210.507813 53.683594 211.398438 53.683594 L 246.507813 53.683594 C 247.335938 53.683594 248.414063 53.683594 248.414063 52.613281 Z M 248.414063 52.613281 "
       id="path583" />
    <path
       style=" stroke:none;fill-rule:evenodd;fill:rgb(0%,0%,0%);fill-opacity:1;"
       d="M 295.480469 42.839844 C 295.480469 37.886719 295.183594 33.066406 293.035156 28.535156 C 290.589844 23.582031 286.300781 22.277344 283.378906 22.277344 C 279.925781 22.277344 275.691406 24.003906 273.488281 28.949219 C 271.8125 32.707031 271.222656 36.402344 271.222656 42.839844 C 271.222656 48.621094 271.636719 52.972656 273.785156 57.199219 C 276.105469 61.730469 280.222656 63.160156 283.316406 63.160156 C 288.503906 63.160156 291.488281 60.058594 293.214844 56.605469 C 295.363281 52.136719 295.480469 46.292969 295.480469 42.839844 Z M 290.949219 42.121094 C 290.949219 46.113281 290.949219 50.644531 290.292969 54.277344 C 289.160156 60.839844 285.410156 61.972656 283.316406 61.972656 C 281.410156 61.972656 277.535156 60.894531 276.410156 54.402344 C 275.753906 50.824219 275.753906 46.292969 275.753906 42.121094 C 275.753906 37.238281 275.753906 32.824219 276.707031 29.308594 C 277.714844 25.316406 280.753906 23.464844 283.316406 23.464844 C 285.582031 23.464844 289.042969 24.839844 290.175781 29.964844 C 290.949219 33.363281 290.949219 38.066406 290.949219 42.121094 Z M 290.949219 42.121094 "
       id="path585" />
    <path
       style=" stroke:none;fill-rule:evenodd;fill:rgb(0%,0%,0%);fill-opacity:1;"
       d="M 340.496094 33.285156 C 340.496094 31.378906 339.339844 28.597656 334.613281 27.722656 C 334.300781 27.644531 332.074219 27.246094 331.910156 27.246094 C 330.683594 26.964844 328.816406 26.128906 328.816406 24.542969 C 328.816406 23.347656 329.691406 21.683594 333.464844 21.683594 C 337.910156 21.683594 338.113281 24.941406 338.191406 26.050781 C 338.230469 26.371094 338.511719 26.488281 338.785156 26.488281 C 339.425781 26.488281 339.425781 26.214844 339.425781 25.457031 L 339.425781 21.722656 C 339.425781 21.082031 339.425781 20.691406 338.910156 20.691406 C 338.707031 20.691406 338.589844 20.691406 337.949219 21.324219 C 337.871094 21.363281 337.519531 21.722656 337.394531 21.722656 C 337.394531 21.722656 337.277344 21.722656 337.035156 21.566406 C 336.402344 21.128906 335.253906 20.691406 333.464844 20.691406 C 327.902344 20.691406 326.667969 23.707031 326.667969 25.613281 C 326.667969 27.605469 328.136719 28.753906 328.253906 28.871094 C 329.847656 30.066406 330.761719 30.222656 333.425781 30.699219 C 335.292969 31.058594 338.347656 31.613281 338.347656 34.316406 C 338.347656 35.863281 337.316406 37.691406 333.660156 37.691406 C 329.644531 37.691406 328.496094 34.597656 327.980469 32.488281 C 327.824219 31.972656 327.777344 31.777344 327.300781 31.777344 C 326.667969 31.777344 326.667969 32.089844 326.667969 32.847656 L 326.667969 37.777344 C 326.667969 38.410156 326.667969 38.808594 327.183594 38.808594 C 327.425781 38.808594 327.464844 38.769531 328.175781 38.011719 C 328.378906 37.816406 328.816406 37.300781 329.011719 37.097656 C 330.800781 38.730469 332.667969 38.808594 333.699219 38.808594 C 338.746094 38.808594 340.496094 35.910156 340.496094 33.285156 Z M 340.496094 33.285156 "
       id="path587" />
    <path
       style="fill:none;stroke-width:2.390122;stroke-linecap:square;stroke-linejoin:miter;stroke:rgb(0%,0%,0%);stroke-opacity:1;stroke-miterlimit:10;"
       d="M 313.832031 46.835938 L 353.378906 46.835938 "
       id="path589" />
    <path
       style=" stroke:none;fill-rule:evenodd;fill:rgb(0%,0%,0%);fill-opacity:1;"
       d="M 335.433594 66.394531 C 335.433594 65.285156 334.441406 65.285156 333.761719 65.285156 L 321.761719 65.285156 C 320.925781 65.285156 319.417969 65.285156 317.472656 67.191406 C 316.042969 68.621094 314.925781 70.449219 314.925781 70.730469 C 314.925781 71.082031 315.207031 71.207031 315.527344 71.207031 C 315.925781 71.207031 316.003906 71.082031 316.238281 70.769531 C 318.191406 67.910156 320.535156 67.910156 321.449219 67.910156 L 324.863281 67.910156 L 321.449219 78.914063 C 321.167969 79.828125 320.652344 81.460938 320.652344 81.65625 C 320.652344 82.570313 321.488281 82.890625 321.964844 82.890625 C 323.433594 82.890625 323.667969 81.5 323.792969 80.90625 L 326.253906 67.910156 L 333.363281 67.910156 C 334.003906 67.910156 334.441406 67.910156 334.839844 67.589844 C 335.316406 67.152344 335.433594 66.636719 335.433594 66.394531 Z M 335.433594 66.394531 "
       id="path591" />
    <path
       style=" stroke:none;fill-rule:evenodd;fill:rgb(0%,0%,0%);fill-opacity:1;"
       d="M 349.167969 78.40625 C 349.167969 76.234375 349.167969 68.089844 341.863281 68.089844 C 334.566406 68.089844 334.566406 76.234375 334.566406 78.40625 C 334.566406 80.554688 334.566406 88.539063 341.863281 88.539063 C 349.167969 88.539063 349.167969 80.554688 349.167969 78.40625 Z M 346.339844 78.023438 C 346.339844 79.929688 346.339844 82.9375 345.832031 84.609375 C 345 87.195313 342.847656 87.585938 341.863281 87.585938 C 340.613281 87.585938 338.589844 86.992188 337.871094 84.515625 C 337.394531 82.789063 337.394531 79.867188 337.394531 78.023438 C 337.394531 76.023438 337.394531 73.726563 337.816406 72.113281 C 338.558594 69.433594 340.824219 69.042969 341.863281 69.042969 C 343.238281 69.042969 345.207031 69.699219 345.863281 71.96875 C 346.3125 73.546875 346.339844 75.726563 346.339844 78.023438 Z M 346.339844 78.023438 "
       id="path593" />
    <path
       style=" stroke:none;fill-rule:evenodd;fill:rgb(0%,0%,0%);fill-opacity:1;"
       d="M 719.480469 42.839844 C 719.480469 37.886719 719.183594 33.066406 717.035156 28.535156 C 714.589844 23.582031 710.300781 22.277344 707.378906 22.277344 C 703.925781 22.277344 699.691406 24.003906 697.488281 28.949219 C 695.816406 32.707031 695.222656 36.402344 695.222656 42.839844 C 695.222656 48.621094 695.636719 52.972656 697.785156 57.199219 C 700.105469 61.730469 704.222656 63.160156 707.316406 63.160156 C 712.503906 63.160156 715.488281 60.058594 717.214844 56.605469 C 719.363281 52.136719 719.480469 46.292969 719.480469 42.839844 Z M 714.949219 42.121094 C 714.949219 46.113281 714.949219 50.644531 714.292969 54.277344 C 713.160156 60.839844 709.410156 61.972656 707.316406 61.972656 C 705.410156 61.972656 701.535156 60.894531 700.410156 54.402344 C 699.753906 50.824219 699.753906 46.292969 699.753906 42.121094 C 699.753906 37.238281 699.753906 32.824219 700.707031 29.308594 C 701.714844 25.316406 704.753906 23.464844 707.316406 23.464844 C 709.582031 23.464844 713.042969 24.839844 714.175781 29.964844 C 714.949219 33.363281 714.949219 38.066406 714.949219 42.121094 Z M 714.949219 42.121094 "
       id="path595" />
    <path
       style=" stroke:none;fill-rule:evenodd;fill:rgb(0%,0%,0%);fill-opacity:1;"
       d="M 732.746094 59.050781 C 732.746094 57.324219 731.316406 56.128906 729.886719 56.128906 C 728.152344 56.128906 726.964844 57.558594 726.964844 58.988281 C 726.964844 60.714844 728.394531 61.910156 729.824219 61.910156 C 731.550781 61.910156 732.746094 60.480469 732.746094 59.050781 Z M 732.746094 59.050781 "
       id="path597" />
    <path
       style=" stroke:none;fill-rule:evenodd;fill:rgb(0%,0%,0%);fill-opacity:1;"
       d="M 764.503906 51.894531 L 763.191406 51.894531 C 763.011719 52.910156 762.535156 56.191406 761.941406 57.144531 C 761.519531 57.675781 758.121094 57.675781 756.339844 57.675781 L 745.308594 57.675781 C 746.917969 56.308594 750.558594 52.496094 752.105469 51.066406 C 761.167969 42.714844 764.503906 39.621094 764.503906 33.714844 C 764.503906 26.863281 759.082031 22.277344 752.167969 22.277344 C 745.253906 22.277344 741.199219 28.175781 741.199219 33.300781 C 741.199219 36.339844 743.824219 36.339844 743.996094 36.339844 C 745.253906 36.339844 746.800781 35.449219 746.800781 33.542969 C 746.800781 31.871094 745.667969 30.738281 743.996094 30.738281 C 743.464844 30.738281 743.339844 30.738281 743.167969 30.800781 C 744.300781 26.746094 747.519531 24.003906 751.386719 24.003906 C 756.457031 24.003906 759.558594 28.238281 759.558594 33.714844 C 759.558594 38.785156 756.636719 43.191406 753.238281 47.011719 L 741.199219 60.480469 L 741.199219 61.910156 L 762.949219 61.910156 Z M 764.503906 51.894531 "
       id="path599" />
    <path
       style=" stroke:none;fill-rule:evenodd;fill:rgb(0%,0%,0%);fill-opacity:1;"
       d="M 792.210938 61.910156 L 792.210938 60.183594 L 790.359375 60.183594 C 785.117188 60.183594 784.9375 59.464844 784.9375 57.324219 L 784.9375 23.707031 C 784.9375 22.332031 784.9375 22.277344 783.75 22.277344 C 782.3125 23.886719 779.335938 26.089844 773.199219 26.089844 L 773.199219 27.816406 C 774.574219 27.816406 777.546875 27.816406 780.828125 26.269531 L 780.828125 57.324219 C 780.828125 59.464844 780.648438 60.183594 775.410156 60.183594 L 773.558594 60.183594 L 773.558594 61.910156 C 775.164063 61.792969 780.945313 61.792969 782.914063 61.792969 C 784.882813 61.792969 790.601563 61.792969 792.210938 61.910156 Z M 792.210938 61.910156 "
       id="path601" />
    <path
       style=" stroke:none;fill-rule:evenodd;fill:rgb(0%,0%,0%);fill-opacity:1;"
       d="M 823 51.894531 L 821.6875 51.894531 C 821.507813 52.910156 821.03125 56.191406 820.4375 57.144531 C 820.015625 57.675781 816.617188 57.675781 814.835938 57.675781 L 803.804688 57.675781 C 805.414063 56.308594 809.054688 52.496094 810.601563 51.066406 C 819.664063 42.714844 823 39.621094 823 33.714844 C 823 26.863281 817.578125 22.277344 810.664063 22.277344 C 803.75 22.277344 799.695313 28.175781 799.695313 33.300781 C 799.695313 36.339844 802.320313 36.339844 802.492188 36.339844 C 803.75 36.339844 805.296875 35.449219 805.296875 33.542969 C 805.296875 31.871094 804.164063 30.738281 802.492188 30.738281 C 801.960938 30.738281 801.835938 30.738281 801.664063 30.800781 C 802.796875 26.746094 806.015625 24.003906 809.882813 24.003906 C 814.953125 24.003906 818.054688 28.238281 818.054688 33.714844 C 818.054688 38.785156 815.132813 43.191406 811.734375 47.011719 L 799.695313 60.480469 L 799.695313 61.910156 L 821.445313 61.910156 Z M 823 51.894531 "
       id="path603" />
    <path
       style=" stroke:none;fill-rule:evenodd;fill:rgb(0%,0%,0%);fill-opacity:1;"
       d="M 868.492188 33.285156 C 868.492188 31.378906 867.335938 28.597656 862.609375 27.722656 C 862.296875 27.644531 860.070313 27.246094 859.90625 27.246094 C 858.679688 26.964844 856.8125 26.128906 856.8125 24.542969 C 856.8125 23.347656 857.6875 21.683594 861.460938 21.683594 C 865.90625 21.683594 866.109375 24.941406 866.1875 26.050781 C 866.226563 26.371094 866.507813 26.488281 866.78125 26.488281 C 867.421875 26.488281 867.421875 26.214844 867.421875 25.457031 L 867.421875 21.722656 C 867.421875 21.082031 867.421875 20.691406 866.90625 20.691406 C 866.703125 20.691406 866.585938 20.691406 865.945313 21.324219 C 865.867188 21.363281 865.515625 21.722656 865.390625 21.722656 C 865.390625 21.722656 865.273438 21.722656 865.03125 21.566406 C 864.398438 21.128906 863.25 20.691406 861.460938 20.691406 C 855.898438 20.691406 854.664063 23.707031 854.664063 25.613281 C 854.664063 27.605469 856.132813 28.753906 856.25 28.871094 C 857.84375 30.066406 858.757813 30.222656 861.421875 30.699219 C 863.289063 31.058594 866.34375 31.613281 866.34375 34.316406 C 866.34375 35.863281 865.3125 37.691406 861.65625 37.691406 C 857.640625 37.691406 856.492188 34.597656 855.976563 32.488281 C 855.820313 31.972656 855.773438 31.777344 855.296875 31.777344 C 854.664063 31.777344 854.664063 32.089844 854.664063 32.847656 L 854.664063 37.777344 C 854.664063 38.410156 854.664063 38.808594 855.179688 38.808594 C 855.421875 38.808594 855.460938 38.769531 856.171875 38.011719 C 856.375 37.816406 856.8125 37.300781 857.007813 37.097656 C 858.796875 38.730469 860.664063 38.808594 861.695313 38.808594 C 866.742188 38.808594 868.492188 35.910156 868.492188 33.285156 Z M 868.492188 33.285156 "
       id="path605" />
    <path
       style="fill:none;stroke-width:2.389949;stroke-linecap:square;stroke-linejoin:miter;stroke:rgb(0%,0%,0%);stroke-opacity:1;stroke-miterlimit:10;"
       d="M 842.015625 46.835938 L 881.558594 46.835938 "
       id="path607" />
    <path
       style=" stroke:none;fill-rule:evenodd;fill:rgb(0%,0%,0%);fill-opacity:1;"
       d="M 863.429688 66.394531 C 863.429688 65.285156 862.4375 65.285156 861.757813 65.285156 L 849.757813 65.285156 C 848.921875 65.285156 847.414063 65.285156 845.46875 67.191406 C 844.039063 68.621094 842.921875 70.449219 842.921875 70.730469 C 842.921875 71.082031 843.203125 71.207031 843.523438 71.207031 C 843.921875 71.207031 844 71.082031 844.234375 70.769531 C 846.1875 67.910156 848.53125 67.910156 849.445313 67.910156 L 852.859375 67.910156 L 849.445313 78.910156 C 849.164063 79.824219 848.648438 81.457031 848.648438 81.652344 C 848.648438 82.566406 849.484375 82.886719 849.960938 82.886719 C 851.429688 82.886719 851.664063 81.496094 851.789063 80.902344 L 854.25 67.910156 L 861.359375 67.910156 C 862 67.910156 862.4375 67.910156 862.835938 67.589844 C 863.3125 67.152344 863.429688 66.636719 863.429688 66.394531 Z M 863.429688 66.394531 "
       id="path609" />
    <path
       style=" stroke:none;fill-rule:evenodd;fill:rgb(0%,0%,0%);fill-opacity:1;"
       d="M 877.164063 78.402344 C 877.164063 76.230469 877.164063 68.089844 869.859375 68.089844 C 862.5625 68.089844 862.5625 76.230469 862.5625 78.402344 C 862.5625 80.550781 862.5625 88.535156 869.859375 88.535156 C 877.164063 88.535156 877.164063 80.550781 877.164063 78.402344 Z M 874.335938 78.019531 C 874.335938 79.925781 874.335938 82.933594 873.828125 84.605469 C 872.992188 87.191406 870.84375 87.582031 869.859375 87.582031 C 868.609375 87.582031 866.585938 86.988281 865.867188 84.511719 C 865.390625 82.785156 865.390625 79.863281 865.390625 78.019531 C 865.390625 76.019531 865.390625 73.722656 865.8125 72.113281 C 866.554688 69.433594 868.820313 69.042969 869.859375 69.042969 C 871.234375 69.042969 873.203125 69.699219 873.859375 71.964844 C 874.304688 73.542969 874.335938 75.722656 874.335938 78.019531 Z M 874.335938 78.019531 "
       id="path611" />
    <path
       style=" stroke:none;fill-rule:evenodd;fill:rgb(0%,0%,0%);fill-opacity:1;"
       d="M 1245.578125 42.839844 C 1245.578125 37.886719 1245.28125 33.066406 1243.132813 28.535156 C 1240.6875 23.582031 1236.398438 22.277344 1233.476563 22.277344 C 1230.023438 22.277344 1225.789063 24.003906 1223.589844 28.949219 C 1221.917969 32.707031 1221.324219 36.402344 1221.324219 42.839844 C 1221.324219 48.621094 1221.738281 52.972656 1223.882813 57.199219 C 1226.203125 61.730469 1230.320313 63.160156 1233.414063 63.160156 C 1238.601563 63.160156 1241.585938 60.058594 1243.3125 56.605469 C 1245.460938 52.136719 1245.578125 46.292969 1245.578125 42.839844 Z M 1241.046875 42.121094 C 1241.046875 46.113281 1241.046875 50.644531 1240.390625 54.277344 C 1239.257813 60.839844 1235.507813 61.972656 1233.414063 61.972656 C 1231.507813 61.972656 1227.632813 60.894531 1226.507813 54.402344 C 1225.851563 50.824219 1225.851563 46.292969 1225.851563 42.121094 C 1225.851563 37.238281 1225.851563 32.824219 1226.804688 29.308594 C 1227.8125 25.316406 1230.851563 23.464844 1233.414063 23.464844 C 1235.679688 23.464844 1239.140625 24.839844 1240.273438 29.964844 C 1241.046875 33.363281 1241.046875 38.066406 1241.046875 42.121094 Z M 1241.046875 42.121094 "
       id="path613" />
    <path
       style=" stroke:none;fill-rule:evenodd;fill:rgb(0%,0%,0%);fill-opacity:1;"
       d="M 1258.84375 59.050781 C 1258.84375 57.324219 1257.414063 56.128906 1255.984375 56.128906 C 1254.25 56.128906 1253.0625 57.558594 1253.0625 58.988281 C 1253.0625 60.714844 1254.492188 61.910156 1255.921875 61.910156 C 1257.648438 61.910156 1258.84375 60.480469 1258.84375 59.050781 Z M 1258.84375 59.050781 "
       id="path615" />
    <path
       style=" stroke:none;fill-rule:evenodd;fill:rgb(0%,0%,0%);fill-opacity:1;"
       d="M 1291.914063 51.957031 L 1291.914063 50.230469 L 1285.890625 50.230469 L 1285.890625 23.105469 C 1285.890625 21.980469 1285.890625 21.675781 1285.054688 21.675781 C 1284.578125 21.675781 1284.398438 21.675781 1283.921875 22.394531 L 1265.984375 50.230469 L 1265.984375 51.957031 L 1281.65625 51.957031 L 1281.65625 57.378906 C 1281.65625 59.582031 1281.539063 60.183594 1277.1875 60.183594 L 1276 60.183594 L 1276 61.910156 C 1277.367188 61.792969 1282.078125 61.792969 1283.742188 61.792969 C 1285.414063 61.792969 1290.179688 61.792969 1291.554688 61.910156 L 1291.554688 60.183594 L 1290.359375 60.183594 C 1286.070313 60.183594 1285.890625 59.582031 1285.890625 57.378906 L 1285.890625 51.957031 Z M 1281.960938 50.230469 L 1267.476563 50.230469 L 1281.960938 27.761719 Z M 1281.960938 50.230469 "
       id="path617" />
    <path
       style=" stroke:none;fill-rule:evenodd;fill:rgb(0%,0%,0%);fill-opacity:1;"
       d="M 1320.101563 51.894531 L 1318.789063 51.894531 C 1318.609375 52.910156 1318.132813 56.191406 1317.539063 57.144531 C 1317.117188 57.675781 1313.71875 57.675781 1311.9375 57.675781 L 1300.90625 57.675781 C 1302.515625 56.308594 1306.15625 52.496094 1307.703125 51.066406 C 1316.765625 42.714844 1320.101563 39.621094 1320.101563 33.714844 C 1320.101563 26.863281 1314.679688 22.277344 1307.765625 22.277344 C 1300.851563 22.277344 1296.796875 28.175781 1296.796875 33.300781 C 1296.796875 36.339844 1299.421875 36.339844 1299.59375 36.339844 C 1300.851563 36.339844 1302.398438 35.449219 1302.398438 33.542969 C 1302.398438 31.871094 1301.265625 30.738281 1299.59375 30.738281 C 1299.0625 30.738281 1298.9375 30.738281 1298.765625 30.800781 C 1299.898438 26.746094 1303.117188 24.003906 1306.984375 24.003906 C 1312.054688 24.003906 1315.15625 28.238281 1315.15625 33.714844 C 1315.15625 38.785156 1312.234375 43.191406 1308.835938 47.011719 L 1296.796875 60.480469 L 1296.796875 61.910156 L 1318.546875 61.910156 Z M 1320.101563 51.894531 "
       id="path619" />
    <path
       style=" stroke:none;fill-rule:evenodd;fill:rgb(0%,0%,0%);fill-opacity:1;"
       d="M 1349.578125 51.714844 C 1349.578125 46.238281 1345.164063 41.941406 1339.445313 40.933594 C 1344.632813 39.441406 1347.96875 35.089844 1347.96875 30.441406 C 1347.96875 25.730469 1343.078125 22.277344 1337.296875 22.277344 C 1331.335938 22.277344 1326.929688 25.910156 1326.929688 30.261719 C 1326.929688 32.644531 1328.773438 33.121094 1329.671875 33.121094 C 1330.921875 33.121094 1332.351563 32.230469 1332.351563 30.441406 C 1332.351563 28.535156 1330.921875 27.699219 1329.609375 27.699219 C 1329.25 27.699219 1329.132813 27.699219 1328.953125 27.761719 C 1331.21875 23.707031 1336.820313 23.707031 1337.117188 23.707031 C 1339.085938 23.707031 1342.960938 24.597656 1342.960938 30.441406 C 1342.960938 31.574219 1342.78125 34.910156 1341.054688 37.472656 C 1339.265625 40.097656 1337.242188 40.277344 1335.632813 40.332031 L 1333.84375 40.511719 C 1332.828125 40.574219 1332.59375 40.628906 1332.59375 41.167969 C 1332.59375 41.761719 1332.890625 41.761719 1333.960938 41.761719 L 1336.703125 41.761719 C 1341.765625 41.761719 1344.03125 45.933594 1344.03125 51.660156 C 1344.03125 59.464844 1339.984375 61.550781 1337.0625 61.550781 C 1334.203125 61.550781 1329.3125 60.183594 1327.585938 56.246094 C 1329.492188 56.542969 1331.21875 55.472656 1331.21875 53.324219 C 1331.21875 51.597656 1329.96875 50.410156 1328.296875 50.410156 C 1326.867188 50.410156 1325.320313 51.238281 1325.320313 53.503906 C 1325.320313 58.808594 1330.625 63.160156 1337.242188 63.160156 C 1344.328125 63.160156 1349.578125 57.738281 1349.578125 51.714844 Z M 1349.578125 51.714844 "
       id="path621" />
    <path
       style=" stroke:none;fill-rule:evenodd;fill:rgb(0%,0%,0%);fill-opacity:1;"
       d="M 1394.59375 33.285156 C 1394.59375 31.378906 1393.4375 28.597656 1388.710938 27.722656 C 1388.398438 27.644531 1386.171875 27.246094 1386.007813 27.246094 C 1384.78125 26.964844 1382.914063 26.128906 1382.914063 24.542969 C 1382.914063 23.347656 1383.789063 21.683594 1387.5625 21.683594 C 1392.007813 21.683594 1392.210938 24.941406 1392.289063 26.050781 C 1392.328125 26.371094 1392.609375 26.488281 1392.882813 26.488281 C 1393.523438 26.488281 1393.523438 26.214844 1393.523438 25.457031 L 1393.523438 21.722656 C 1393.523438 21.082031 1393.523438 20.691406 1393.007813 20.691406 C 1392.804688 20.691406 1392.6875 20.691406 1392.046875 21.324219 C 1391.96875 21.363281 1391.617188 21.722656 1391.492188 21.722656 C 1391.492188 21.722656 1391.375 21.722656 1391.132813 21.566406 C 1390.5 21.128906 1389.351563 20.691406 1387.5625 20.691406 C 1382 20.691406 1380.765625 23.707031 1380.765625 25.613281 C 1380.765625 27.605469 1382.234375 28.753906 1382.351563 28.871094 C 1383.945313 30.066406 1384.859375 30.222656 1387.523438 30.699219 C 1389.390625 31.058594 1392.445313 31.613281 1392.445313 34.316406 C 1392.445313 35.863281 1391.414063 37.691406 1387.757813 37.691406 C 1383.742188 37.691406 1382.59375 34.597656 1382.078125 32.488281 C 1381.921875 31.972656 1381.875 31.777344 1381.398438 31.777344 C 1380.765625 31.777344 1380.765625 32.089844 1380.765625 32.847656 L 1380.765625 37.777344 C 1380.765625 38.410156 1380.765625 38.808594 1381.28125 38.808594 C 1381.523438 38.808594 1381.5625 38.769531 1382.273438 38.011719 C 1382.476563 37.816406 1382.914063 37.300781 1383.109375 37.097656 C 1384.898438 38.730469 1386.765625 38.808594 1387.796875 38.808594 C 1392.84375 38.808594 1394.59375 35.910156 1394.59375 33.285156 Z M 1394.59375 33.285156 "
       id="path623" />
    <path
       style="fill:none;stroke-width:2.389949;stroke-linecap:square;stroke-linejoin:miter;stroke:rgb(0%,0%,0%);stroke-opacity:1;stroke-miterlimit:10;"
       d="M 1368.113281 46.835938 L 1407.65625 46.835938 "
       id="path625" />
    <path
       style=" stroke:none;fill-rule:evenodd;fill:rgb(0%,0%,0%);fill-opacity:1;"
       d="M 1389.53125 66.394531 C 1389.53125 65.285156 1388.539063 65.285156 1387.859375 65.285156 L 1375.859375 65.285156 C 1375.023438 65.285156 1373.515625 65.285156 1371.570313 67.191406 C 1370.140625 68.621094 1369.023438 70.449219 1369.023438 70.730469 C 1369.023438 71.082031 1369.304688 71.207031 1369.625 71.207031 C 1370.023438 71.207031 1370.101563 71.082031 1370.335938 70.769531 C 1372.289063 67.910156 1374.632813 67.910156 1375.546875 67.910156 L 1378.960938 67.910156 L 1375.546875 78.910156 C 1375.265625 79.824219 1374.75 81.457031 1374.75 81.652344 C 1374.75 82.566406 1375.585938 82.886719 1376.0625 82.886719 C 1377.53125 82.886719 1377.765625 81.496094 1377.890625 80.902344 L 1380.351563 67.910156 L 1387.460938 67.910156 C 1388.101563 67.910156 1388.539063 67.910156 1388.9375 67.589844 C 1389.414063 67.152344 1389.53125 66.636719 1389.53125 66.394531 Z M 1389.53125 66.394531 "
       id="path627" />
    <path
       style=" stroke:none;fill-rule:evenodd;fill:rgb(0%,0%,0%);fill-opacity:1;"
       d="M 1403.261719 78.402344 C 1403.261719 76.230469 1403.261719 68.089844 1395.960938 68.089844 C 1388.664063 68.089844 1388.664063 76.230469 1388.664063 78.402344 C 1388.664063 80.550781 1388.664063 88.535156 1395.960938 88.535156 C 1403.261719 88.535156 1403.261719 80.550781 1403.261719 78.402344 Z M 1400.4375 78.019531 C 1400.4375 79.925781 1400.4375 82.933594 1399.925781 84.605469 C 1399.09375 87.191406 1396.945313 87.582031 1395.960938 87.582031 C 1394.710938 87.582031 1392.6875 86.988281 1391.96875 84.511719 C 1391.492188 82.785156 1391.492188 79.863281 1391.492188 78.019531 C 1391.492188 76.019531 1391.492188 73.722656 1391.914063 72.113281 C 1392.65625 69.433594 1394.921875 69.042969 1395.960938 69.042969 C 1397.335938 69.042969 1399.304688 69.699219 1399.960938 71.964844 C 1400.40625 73.542969 1400.4375 75.722656 1400.4375 78.019531 Z M 1400.4375 78.019531 "
       id="path629" />
    <path
       style=" stroke:none;fill-rule:evenodd;fill:rgb(0%,0%,0%);fill-opacity:1;"
       d="M 1771.679688 42.839844 C 1771.679688 37.886719 1771.382813 33.066406 1769.234375 28.535156 C 1766.789063 23.582031 1762.5 22.277344 1759.578125 22.277344 C 1756.125 22.277344 1751.890625 24.003906 1749.6875 28.949219 C 1748.015625 32.707031 1747.421875 36.402344 1747.421875 42.839844 C 1747.421875 48.621094 1747.835938 52.972656 1749.984375 57.199219 C 1752.304688 61.730469 1756.421875 63.160156 1759.515625 63.160156 C 1764.703125 63.160156 1767.6875 60.058594 1769.414063 56.605469 C 1771.5625 52.136719 1771.679688 46.292969 1771.679688 42.839844 Z M 1767.148438 42.121094 C 1767.148438 46.113281 1767.148438 50.644531 1766.492188 54.277344 C 1765.359375 60.839844 1761.609375 61.972656 1759.515625 61.972656 C 1757.609375 61.972656 1753.734375 60.894531 1752.609375 54.402344 C 1751.953125 50.824219 1751.953125 46.292969 1751.953125 42.121094 C 1751.953125 37.238281 1751.953125 32.824219 1752.90625 29.308594 C 1753.914063 25.316406 1756.953125 23.464844 1759.515625 23.464844 C 1761.78125 23.464844 1765.242188 24.839844 1766.375 29.964844 C 1767.148438 33.363281 1767.148438 38.066406 1767.148438 42.121094 Z M 1767.148438 42.121094 "
       id="path631" />
    <path
       style=" stroke:none;fill-rule:evenodd;fill:rgb(0%,0%,0%);fill-opacity:1;"
       d="M 1784.945313 59.050781 C 1784.945313 57.324219 1783.515625 56.128906 1782.085938 56.128906 C 1780.351563 56.128906 1779.164063 57.558594 1779.164063 58.988281 C 1779.164063 60.714844 1780.59375 61.910156 1782.023438 61.910156 C 1783.75 61.910156 1784.945313 60.480469 1784.945313 59.050781 Z M 1784.945313 59.050781 "
       id="path633" />
    <path
       style=" stroke:none;fill-rule:evenodd;fill:rgb(0%,0%,0%);fill-opacity:1;"
       d="M 1817.179688 49.753906 C 1817.179688 41.824219 1811.632813 36.519531 1805.671875 36.519531 C 1800.367188 36.519531 1798.40625 41.105469 1797.804688 42.777344 L 1797.804688 41.167969 C 1797.804688 26.089844 1805.140625 23.707031 1808.359375 23.707031 C 1810.5 23.707031 1812.648438 24.363281 1813.78125 26.152344 C 1813.0625 26.152344 1810.804688 26.152344 1810.804688 28.589844 C 1810.804688 29.902344 1811.695313 31.035156 1813.242188 31.035156 C 1814.734375 31.035156 1815.75 30.144531 1815.75 28.410156 C 1815.75 25.316406 1813.484375 22.277344 1808.296875 22.277344 C 1800.789063 22.277344 1792.921875 29.964844 1792.921875 43.074219 C 1792.921875 59.464844 1800.070313 63.160156 1805.140625 63.160156 C 1811.632813 63.160156 1817.179688 57.496094 1817.179688 49.753906 Z M 1812.289063 49.691406 C 1812.289063 52.730469 1812.289063 55.410156 1811.15625 57.675781 C 1809.671875 60.542969 1807.523438 61.550781 1805.140625 61.550781 C 1801.382813 61.550781 1799.59375 58.214844 1799.0625 56.964844 C 1798.523438 55.410156 1797.929688 52.496094 1797.929688 48.324219 C 1797.929688 43.613281 1800.070313 37.714844 1805.4375 37.714844 C 1808.71875 37.714844 1810.445313 39.917969 1811.335938 41.941406 C 1812.289063 44.152344 1812.289063 47.128906 1812.289063 49.691406 Z M 1812.289063 49.691406 "
       id="path635" />
    <path
       style=" stroke:none;fill-rule:evenodd;fill:rgb(0%,0%,0%);fill-opacity:1;"
       d="M 1846.679688 51.714844 C 1846.679688 46.238281 1842.265625 41.941406 1836.546875 40.933594 C 1841.734375 39.441406 1845.070313 35.089844 1845.070313 30.441406 C 1845.070313 25.730469 1840.179688 22.277344 1834.398438 22.277344 C 1828.4375 22.277344 1824.03125 25.910156 1824.03125 30.261719 C 1824.03125 32.644531 1825.875 33.121094 1826.773438 33.121094 C 1828.023438 33.121094 1829.453125 32.230469 1829.453125 30.441406 C 1829.453125 28.535156 1828.023438 27.699219 1826.710938 27.699219 C 1826.351563 27.699219 1826.234375 27.699219 1826.054688 27.761719 C 1828.320313 23.707031 1833.921875 23.707031 1834.21875 23.707031 C 1836.1875 23.707031 1840.0625 24.597656 1840.0625 30.441406 C 1840.0625 31.574219 1839.882813 34.910156 1838.15625 37.472656 C 1836.367188 40.097656 1834.34375 40.277344 1832.734375 40.332031 L 1830.945313 40.511719 C 1829.929688 40.574219 1829.695313 40.628906 1829.695313 41.167969 C 1829.695313 41.761719 1829.992188 41.761719 1831.0625 41.761719 L 1833.804688 41.761719 C 1838.867188 41.761719 1841.132813 45.933594 1841.132813 51.660156 C 1841.132813 59.464844 1837.085938 61.550781 1834.164063 61.550781 C 1831.304688 61.550781 1826.414063 60.183594 1824.6875 56.246094 C 1826.59375 56.542969 1828.320313 55.472656 1828.320313 53.324219 C 1828.320313 51.597656 1827.070313 50.410156 1825.398438 50.410156 C 1823.96875 50.410156 1822.421875 51.238281 1822.421875 53.503906 C 1822.421875 58.808594 1827.726563 63.160156 1834.34375 63.160156 C 1841.429688 63.160156 1846.679688 57.738281 1846.679688 51.714844 Z M 1846.679688 51.714844 "
       id="path637" />
    <path
       style=" stroke:none;fill-rule:evenodd;fill:rgb(0%,0%,0%);fill-opacity:1;"
       d="M 1875.199219 49.933594 C 1875.199219 42.839844 1870.425781 36.933594 1864.171875 36.933594 C 1860.777344 36.933594 1858.152344 38.425781 1856.609375 40.097656 L 1856.609375 27.761719 C 1859.171875 28.589844 1861.257813 28.652344 1861.910156 28.652344 C 1868.644531 28.652344 1872.933594 23.707031 1872.933594 22.871094 C 1872.933594 22.628906 1872.816406 22.332031 1872.457031 22.332031 C 1872.457031 22.332031 1872.214844 22.332031 1871.683594 22.574219 C 1868.339844 24.003906 1865.484375 24.183594 1863.933594 24.183594 C 1860 24.183594 1857.203125 22.988281 1856.070313 22.511719 C 1855.648438 22.332031 1855.476563 22.332031 1855.476563 22.332031 C 1855 22.332031 1855 22.691406 1855 23.644531 L 1855 41.347656 C 1855 42.417969 1855 42.777344 1855.710938 42.777344 C 1856.007813 42.777344 1856.070313 42.714844 1856.664063 42.003906 C 1858.335938 39.558594 1861.132813 38.128906 1864.113281 38.128906 C 1867.269531 38.128906 1868.820313 41.050781 1869.300781 42.066406 C 1870.308594 44.386719 1870.371094 47.308594 1870.371094 49.574219 C 1870.371094 51.839844 1870.371094 55.238281 1868.699219 57.917969 C 1867.386719 60.058594 1865.070313 61.550781 1862.445313 61.550781 C 1858.511719 61.550781 1854.640625 58.871094 1853.5625 54.519531 C 1853.867188 54.636719 1854.214844 54.699219 1854.523438 54.699219 C 1855.527344 54.699219 1857.140625 54.105469 1857.140625 52.074219 C 1857.140625 50.410156 1856.007813 49.457031 1854.523438 49.457031 C 1853.445313 49.457031 1851.898438 49.988281 1851.898438 52.316406 C 1851.898438 57.378906 1855.953125 63.160156 1862.5625 63.160156 C 1869.300781 63.160156 1875.199219 57.496094 1875.199219 49.933594 Z M 1875.199219 49.933594 "
       id="path639" />
    <path
       style=" stroke:none;fill-rule:evenodd;fill:rgb(0%,0%,0%);fill-opacity:1;"
       d="M 1920.691406 33.285156 C 1920.691406 31.378906 1919.535156 28.597656 1914.808594 27.722656 C 1914.496094 27.644531 1912.269531 27.246094 1912.105469 27.246094 C 1910.878906 26.964844 1909.011719 26.128906 1909.011719 24.542969 C 1909.011719 23.347656 1909.886719 21.683594 1913.660156 21.683594 C 1918.105469 21.683594 1918.308594 24.941406 1918.386719 26.050781 C 1918.425781 26.371094 1918.707031 26.488281 1918.980469 26.488281 C 1919.621094 26.488281 1919.621094 26.214844 1919.621094 25.457031 L 1919.621094 21.722656 C 1919.621094 21.082031 1919.621094 20.691406 1919.105469 20.691406 C 1918.902344 20.691406 1918.785156 20.691406 1918.144531 21.324219 C 1918.066406 21.363281 1917.714844 21.722656 1917.589844 21.722656 C 1917.589844 21.722656 1917.472656 21.722656 1917.230469 21.566406 C 1916.597656 21.128906 1915.449219 20.691406 1913.660156 20.691406 C 1908.097656 20.691406 1906.863281 23.707031 1906.863281 25.613281 C 1906.863281 27.605469 1908.332031 28.753906 1908.449219 28.871094 C 1910.042969 30.066406 1910.957031 30.222656 1913.621094 30.699219 C 1915.488281 31.058594 1918.542969 31.613281 1918.542969 34.316406 C 1918.542969 35.863281 1917.511719 37.691406 1913.855469 37.691406 C 1909.839844 37.691406 1908.691406 34.597656 1908.175781 32.488281 C 1908.019531 31.972656 1907.972656 31.777344 1907.496094 31.777344 C 1906.863281 31.777344 1906.863281 32.089844 1906.863281 32.847656 L 1906.863281 37.777344 C 1906.863281 38.410156 1906.863281 38.808594 1907.378906 38.808594 C 1907.621094 38.808594 1907.660156 38.769531 1908.371094 38.011719 C 1908.574219 37.816406 1909.011719 37.300781 1909.207031 37.097656 C 1910.996094 38.730469 1912.863281 38.808594 1913.894531 38.808594 C 1918.941406 38.808594 1920.691406 35.910156 1920.691406 33.285156 Z M 1920.691406 33.285156 "
       id="path641" />
    <path
       style="fill:none;stroke-width:2.389949;stroke-linecap:square;stroke-linejoin:miter;stroke:rgb(0%,0%,0%);stroke-opacity:1;stroke-miterlimit:10;"
       d="M 1894.214844 46.835938 L 1933.757813 46.835938 "
       id="path643" />
    <path
       style=" stroke:none;fill-rule:evenodd;fill:rgb(0%,0%,0%);fill-opacity:1;"
       d="M 1915.628906 66.394531 C 1915.628906 65.285156 1914.636719 65.285156 1913.957031 65.285156 L 1901.957031 65.285156 C 1901.121094 65.285156 1899.613281 65.285156 1897.667969 67.191406 C 1896.238281 68.621094 1895.121094 70.449219 1895.121094 70.730469 C 1895.121094 71.082031 1895.402344 71.207031 1895.722656 71.207031 C 1896.121094 71.207031 1896.199219 71.082031 1896.433594 70.769531 C 1898.386719 67.910156 1900.730469 67.910156 1901.644531 67.910156 L 1905.058594 67.910156 L 1901.644531 78.910156 C 1901.363281 79.824219 1900.847656 81.457031 1900.847656 81.652344 C 1900.847656 82.566406 1901.683594 82.886719 1902.160156 82.886719 C 1903.628906 82.886719 1903.863281 81.496094 1903.988281 80.902344 L 1906.449219 67.910156 L 1913.558594 67.910156 C 1914.199219 67.910156 1914.636719 67.910156 1915.035156 67.589844 C 1915.511719 67.152344 1915.628906 66.636719 1915.628906 66.394531 Z M 1915.628906 66.394531 "
       id="path645" />
    <path
       style=" stroke:none;fill-rule:evenodd;fill:rgb(0%,0%,0%);fill-opacity:1;"
       d="M 1929.363281 78.402344 C 1929.363281 76.230469 1929.363281 68.089844 1922.058594 68.089844 C 1914.761719 68.089844 1914.761719 76.230469 1914.761719 78.402344 C 1914.761719 80.550781 1914.761719 88.535156 1922.058594 88.535156 C 1929.363281 88.535156 1929.363281 80.550781 1929.363281 78.402344 Z M 1926.535156 78.019531 C 1926.535156 79.925781 1926.535156 82.933594 1926.027344 84.605469 C 1925.191406 87.191406 1923.042969 87.582031 1922.058594 87.582031 C 1920.808594 87.582031 1918.785156 86.988281 1918.066406 84.511719 C 1917.589844 82.785156 1917.589844 79.863281 1917.589844 78.019531 C 1917.589844 76.019531 1917.589844 73.722656 1918.011719 72.113281 C 1918.753906 69.433594 1921.019531 69.042969 1922.058594 69.042969 C 1923.433594 69.042969 1925.402344 69.699219 1926.058594 71.964844 C 1926.503906 73.542969 1926.535156 75.722656 1926.535156 78.019531 Z M 1926.535156 78.019531 "
       id="path647" />
    <g
       clip-path="url(#clip1)"
       clip-rule="nonzero"
       id="g653">
      <path
         style="fill:none;stroke-width:1;stroke-linecap:square;stroke-linejoin:miter;stroke:rgb(0%,0%,0%);stroke-opacity:1;stroke-miterlimit:3.25;"
         d="M 32.617188 518.648438 L 495.480469 518.648438 "
         id="path649" />
      <path
         style="fill:none;stroke-width:1;stroke-linecap:square;stroke-linejoin:miter;stroke:rgb(0%,0%,0%);stroke-opacity:1;stroke-miterlimit:3.25;"
         d="M 32.617188 518.648438 L 495.480469 518.648438 "
         id="path651" />
    </g>
    <path
       style="fill-rule:nonzero;fill:rgb(50%,50%,50%);fill-opacity:1;stroke-width:1;stroke-linecap:square;stroke-linejoin:miter;stroke:rgb(50%,50%,50%);stroke-opacity:1;stroke-miterlimit:3.25;"
       d="M 208.6875 184.472656 L 169.128906 193.488281 L 244.269531 523.160156 L 283.832031 514.140625 Z M 208.6875 184.472656 "
       id="path655" />
    <path
       style="fill:none;stroke-width:2;stroke-linecap:square;stroke-linejoin:miter;stroke:rgb(0%,0%,0%);stroke-opacity:1;stroke-miterlimit:3.25;"
       d="M 208.6875 184.472656 L 169.128906 193.488281 L 244.269531 523.160156 L 283.832031 514.140625 Z M 208.6875 184.472656 "
       id="path657" />
    <path
       style="fill-rule:nonzero;fill:rgb(84.999084%,84.999084%,84.999084%);fill-opacity:1;stroke-width:2;stroke-linecap:square;stroke-linejoin:miter;stroke:rgb(84.999084%,84.999084%,84.999084%);stroke-opacity:1;stroke-miterlimit:3.25;"
       d="M 208.6875 193.488281 L 169.128906 184.472656 L 93.988281 514.140625 L 133.546875 523.160156 Z M 208.6875 193.488281 "
       id="path659" />
    <path
       style="fill:none;stroke-width:2;stroke-linecap:square;stroke-linejoin:miter;stroke:rgb(0%,0%,0%);stroke-opacity:1;stroke-miterlimit:3.25;"
       d="M 208.6875 193.488281 L 169.128906 184.472656 L 93.988281 514.140625 L 133.546875 523.160156 Z M 208.6875 193.488281 "
       id="path661" />
    <path
       style="fill-rule:evenodd;fill:rgb(99.998474%,99.998474%,99.998474%);fill-opacity:1;stroke-width:2;stroke-linecap:square;stroke-linejoin:miter;stroke:rgb(0%,0%,0%);stroke-opacity:1;stroke-miterlimit:3.25;"
       d="M 219.339844 188.980469 C 219.339844 180.910156 216.132813 173.171875 210.425781 167.464844 C 204.71875 161.757813 196.980469 158.550781 188.910156 158.550781 C 180.839844 158.550781 173.097656 161.757813 167.390625 167.464844 C 161.683594 173.171875 158.476563 180.910156 158.476563 188.980469 C 158.476563 197.050781 161.683594 204.792969 167.390625 210.5 C 173.097656 216.207031 180.839844 219.414063 188.910156 219.414063 C 196.980469 219.414063 204.71875 216.207031 210.425781 210.5 C 216.132813 204.792969 219.339844 197.050781 219.339844 188.980469 Z M 219.339844 188.980469 "
       id="path663" />
    <path
       style="fill-rule:evenodd;fill:rgb(99.998474%,99.998474%,99.998474%);fill-opacity:1;stroke-width:2;stroke-linecap:square;stroke-linejoin:miter;stroke:rgb(0%,0%,0%);stroke-opacity:1;stroke-miterlimit:3.25;"
       d="M 219.339844 188.980469 C 219.339844 180.910156 216.132813 173.171875 210.425781 167.464844 C 204.71875 161.757813 196.980469 158.550781 188.910156 158.550781 C 180.839844 158.550781 173.097656 161.757813 167.390625 167.464844 C 161.683594 173.171875 158.476563 180.910156 158.476563 188.980469 C 158.476563 197.050781 161.683594 204.792969 167.390625 210.5 C 173.097656 216.207031 180.839844 219.414063 188.910156 219.414063 C 196.980469 219.414063 204.71875 216.207031 210.425781 210.5 C 216.132813 204.792969 219.339844 197.050781 219.339844 188.980469 Z M 219.339844 188.980469 "
       id="path665" />
    <path
       style="fill:#fdfdfd;fill-opacity:1;fill-rule:evenodd;stroke:none;stroke-width:1.51834"
       d="m 415.82835,187.59073 c 0,-22.81069 -18.48697,-41.3036 -41.29766,-41.3036 -22.81068,0 -41.30359,18.49291 -41.30359,41.3036 0,22.81069 18.49291,41.29766 41.30359,41.29766 22.81069,0 41.29766,-18.48697 41.29766,-41.29766 z m 0,0"
       id="path667" />
    <g
       clip-path="url(#clip2)"
       clip-rule="nonzero"
       id="g671"
       transform="matrix(1.5183399,0,0,1.5183399,-25.634908,-673.57489)">
      <path
         style="fill:none;stroke:#000000;stroke-width:1.43429;stroke-linecap:square;stroke-linejoin:miter;stroke-miterlimit:10;stroke-opacity:1"
         d="m 290.75391,567.17578 c 0,-15.02344 -12.17579,-27.20312 -27.19922,-27.20312 -15.02344,0 -27.20313,12.17968 -27.20313,27.20312 0,15.02344 12.17969,27.19922 27.20313,27.19922 15.02343,0 27.19922,-12.17578 27.19922,-27.19922 z m 0,0"
         id="path669" />
    </g>
    <path
       style="fill:#000000;fill-opacity:1;fill-rule:evenodd;stroke:none;stroke-width:1.51834"
       d="m 387.57893,187.31197 c 0,-5.40908 -0.32621,-10.68176 -2.67488,-15.63416 -2.66897,-5.40908 -7.36039,-6.83846 -10.55128,-6.83846 -3.77806,0 -8.40426,1.88606 -10.81225,7.29515 -1.82675,4.10427 -2.47322,8.14328 -2.47322,15.17747 0,6.32247 0.45075,11.07913 2.79943,15.6994 2.53255,4.95239 7.03419,6.51225 10.41486,6.51225 5.67006,0 8.93211,-3.38661 10.81817,-7.16467 2.34869,-4.88122 2.47917,-11.26892 2.47917,-15.04698 z m -4.95239,-0.78289 c 0,4.36522 0,9.31762 -0.71766,13.28547 -1.23959,7.17652 -5.33792,8.41018 -7.62729,8.41018 -2.08178,0 -6.31652,-1.17433 -7.54425,-8.27377 -0.71765,-3.90853 -0.71765,-8.86093 -0.71765,-13.42188 0,-5.33791 0,-10.15984 1.03793,-14.00314 1.10316,-4.36523 4.42453,-6.3877 7.22397,-6.3877 2.47916,0 6.25723,1.50055 7.49681,7.10536 0.84814,3.71281 0.84814,8.855 0.84814,13.28548 z m 0,0"
       id="path673" />
    <g
       clip-path="url(#clip3)"
       clip-rule="nonzero"
       id="g679">
      <path
         style="fill:none;stroke-width:1;stroke-linecap:square;stroke-linejoin:miter;stroke:rgb(0%,0%,0%);stroke-opacity:1;stroke-miterlimit:3.25;"
         d="M 558.71875 519.515625 L 1021.582031 519.515625 "
         id="path675" />
      <path
         style="fill:none;stroke-width:1;stroke-linecap:square;stroke-linejoin:miter;stroke:rgb(0%,0%,0%);stroke-opacity:1;stroke-miterlimit:3.25;"
         d="M 558.71875 519.515625 L 1021.582031 519.515625 "
         id="path677" />
    </g>
    <path
       style="fill-rule:nonzero;fill:rgb(50%,50%,50%);fill-opacity:1;stroke-width:1;stroke-linecap:square;stroke-linejoin:miter;stroke:rgb(50%,50%,50%);stroke-opacity:1;stroke-miterlimit:3.25;"
       d="M 793.492188 180.800781 L 752.96875 182.832031 L 769.886719 520.53125 L 810.410156 518.5 Z M 793.492188 180.800781 "
       id="path681" />
    <path
       style="fill:none;stroke-width:2;stroke-linecap:square;stroke-linejoin:miter;stroke:rgb(0%,0%,0%);stroke-opacity:1;stroke-miterlimit:3.25;"
       d="M 793.492188 180.800781 L 752.96875 182.832031 L 769.886719 520.53125 L 810.410156 518.5 Z M 793.492188 180.800781 "
       id="path683" />
    <path
       style="fill-rule:nonzero;fill:rgb(84.999084%,84.999084%,84.999084%);fill-opacity:1;stroke-width:2;stroke-linecap:square;stroke-linejoin:miter;stroke:rgb(84.999084%,84.999084%,84.999084%);stroke-opacity:1;stroke-miterlimit:3.25;"
       d="M 792.25 188.878906 L 754.210938 174.753906 L 636.511719 491.730469 L 674.550781 505.855469 Z M 792.25 188.878906 "
       id="path685" />
    <path
       style="fill:none;stroke-width:2;stroke-linecap:square;stroke-linejoin:miter;stroke:rgb(0%,0%,0%);stroke-opacity:1;stroke-miterlimit:3.25;"
       d="M 792.25 188.878906 L 754.210938 174.753906 L 636.511719 491.730469 L 674.550781 505.855469 Z M 792.25 188.878906 "
       id="path687" />
    <path
       style="fill-rule:evenodd;fill:rgb(99.998474%,99.998474%,99.998474%);fill-opacity:1;stroke-width:2;stroke-linecap:square;stroke-linejoin:miter;stroke:rgb(0%,0%,0%);stroke-opacity:1;stroke-miterlimit:3.25;"
       d="M 803.664063 181.816406 C 803.664063 173.746094 800.457031 166.003906 794.75 160.296875 C 789.042969 154.589844 781.300781 151.382813 773.230469 151.382813 C 765.160156 151.382813 757.417969 154.589844 751.710938 160.296875 C 746.007813 166.003906 742.800781 173.746094 742.800781 181.816406 C 742.800781 189.886719 746.007813 197.625 751.710938 203.332031 C 757.417969 209.039063 765.160156 212.246094 773.230469 212.246094 C 781.300781 212.246094 789.042969 209.039063 794.75 203.332031 C 800.457031 197.625 803.664063 189.886719 803.664063 181.816406 Z M 803.664063 181.816406 "
       id="path689" />
    <path
       style="fill-rule:evenodd;fill:rgb(99.998474%,99.998474%,99.998474%);fill-opacity:1;stroke-width:2;stroke-linecap:square;stroke-linejoin:miter;stroke:rgb(0%,0%,0%);stroke-opacity:1;stroke-miterlimit:3.25;"
       d="M 803.664063 181.816406 C 803.664063 173.746094 800.457031 166.003906 794.75 160.296875 C 789.042969 154.589844 781.300781 151.382813 773.230469 151.382813 C 765.160156 151.382813 757.417969 154.589844 751.710938 160.296875 C 746.007813 166.003906 742.800781 173.746094 742.800781 181.816406 C 742.800781 189.886719 746.007813 197.625 751.710938 203.332031 C 757.417969 209.039063 765.160156 212.246094 773.230469 212.246094 C 781.300781 212.246094 789.042969 209.039063 794.75 203.332031 C 800.457031 197.625 803.664063 189.886719 803.664063 181.816406 Z M 803.664063 181.816406 "
       id="path691" />
    <g
       clip-path="url(#clip4)"
       clip-rule="nonzero"
       id="g697">
      <path
         style="fill:none;stroke-width:1;stroke-linecap:square;stroke-linejoin:miter;stroke:rgb(0%,0%,0%);stroke-opacity:1;stroke-miterlimit:3.25;"
         d="M 1084.816406 519.515625 L 1547.683594 519.515625 "
         id="path693" />
      <path
         style="fill:none;stroke-width:1;stroke-linecap:square;stroke-linejoin:miter;stroke:rgb(0%,0%,0%);stroke-opacity:1;stroke-miterlimit:3.25;"
         d="M 1084.816406 519.515625 L 1547.683594 519.515625 "
         id="path695" />
    </g>
    <path
       style="fill-rule:nonzero;fill:rgb(50%,50%,50%);fill-opacity:1;stroke-width:1;stroke-linecap:square;stroke-linejoin:miter;stroke:rgb(50%,50%,50%);stroke-opacity:1;stroke-miterlimit:3.25;"
       d="M 1373.574219 185.671875 L 1333.246094 181.210938 L 1296.085938 517.285156 L 1336.414063 521.746094 Z M 1373.574219 185.671875 "
       id="path699" />
    <path
       style="fill:none;stroke-width:2;stroke-linecap:square;stroke-linejoin:miter;stroke:rgb(0%,0%,0%);stroke-opacity:1;stroke-miterlimit:3.25;"
       d="M 1373.574219 185.671875 L 1333.246094 181.210938 L 1296.085938 517.285156 L 1336.414063 521.746094 Z M 1373.574219 185.671875 "
       id="path701" />
    <path
       style="fill-rule:nonzero;fill:rgb(84.999084%,84.999084%,84.999084%);fill-opacity:1;stroke-width:2;stroke-linecap:square;stroke-linejoin:miter;stroke:rgb(84.999084%,84.999084%,84.999084%);stroke-opacity:1;stroke-miterlimit:3.25;"
       d="M 1372.367188 190.667969 L 1334.453125 176.214844 L 1214.015625 492.160156 L 1251.929688 506.613281 Z M 1372.367188 190.667969 "
       id="path703" />
    <path
       style="fill:none;stroke-width:2;stroke-linecap:square;stroke-linejoin:miter;stroke:rgb(0%,0%,0%);stroke-opacity:1;stroke-miterlimit:3.25;"
       d="M 1372.367188 190.667969 L 1334.453125 176.214844 L 1214.015625 492.160156 L 1251.929688 506.613281 Z M 1372.367188 190.667969 "
       id="path705" />
    <path
       style="fill-rule:evenodd;fill:rgb(99.998474%,99.998474%,99.998474%);fill-opacity:1;stroke-width:2;stroke-linecap:square;stroke-linejoin:miter;stroke:rgb(0%,0%,0%);stroke-opacity:1;stroke-miterlimit:3.25;"
       d="M 1383.84375 183.441406 C 1383.84375 175.371094 1380.636719 167.628906 1374.929688 161.921875 C 1369.222656 156.214844 1361.480469 153.007813 1353.410156 153.007813 C 1345.339844 153.007813 1337.601563 156.214844 1331.894531 161.921875 C 1326.1875 167.628906 1322.980469 175.371094 1322.980469 183.441406 C 1322.980469 191.511719 1326.1875 199.25 1331.894531 204.957031 C 1337.601563 210.664063 1345.339844 213.871094 1353.410156 213.871094 C 1361.480469 213.871094 1369.222656 210.664063 1374.929688 204.957031 C 1380.636719 199.25 1383.84375 191.511719 1383.84375 183.441406 Z M 1383.84375 183.441406 "
       id="path707" />
    <path
       style="fill-rule:evenodd;fill:rgb(99.998474%,99.998474%,99.998474%);fill-opacity:1;stroke-width:2;stroke-linecap:square;stroke-linejoin:miter;stroke:rgb(0%,0%,0%);stroke-opacity:1;stroke-miterlimit:3.25;"
       d="M 1383.84375 183.441406 C 1383.84375 175.371094 1380.636719 167.628906 1374.929688 161.921875 C 1369.222656 156.214844 1361.480469 153.007813 1353.410156 153.007813 C 1345.339844 153.007813 1337.601563 156.214844 1331.894531 161.921875 C 1326.1875 167.628906 1322.980469 175.371094 1322.980469 183.441406 C 1322.980469 191.511719 1326.1875 199.25 1331.894531 204.957031 C 1337.601563 210.664063 1345.339844 213.871094 1353.410156 213.871094 C 1361.480469 213.871094 1369.222656 210.664063 1374.929688 204.957031 C 1380.636719 199.25 1383.84375 191.511719 1383.84375 183.441406 Z M 1383.84375 183.441406 "
       id="path709" />
    <g
       clip-path="url(#clip5)"
       clip-rule="nonzero"
       id="g715">
      <path
         style="fill:none;stroke-width:1;stroke-linecap:square;stroke-linejoin:miter;stroke:rgb(0%,0%,0%);stroke-opacity:1;stroke-miterlimit:3.25;"
         d="M 1610.917969 519.515625 L 2073.78125 519.515625 "
         id="path711" />
      <path
         style="fill:none;stroke-width:1;stroke-linecap:square;stroke-linejoin:miter;stroke:rgb(0%,0%,0%);stroke-opacity:1;stroke-miterlimit:3.25;"
         d="M 1610.917969 519.515625 L 2073.78125 519.515625 "
         id="path713" />
    </g>
    <path
       style="fill-rule:nonzero;fill:rgb(50%,50%,50%);fill-opacity:1;stroke-width:1;stroke-linecap:square;stroke-linejoin:miter;stroke:rgb(50%,50%,50%);stroke-opacity:1;stroke-miterlimit:3.25;"
       d="M 1937.269531 194.355469 L 1897.710938 185.339844 L 1822.570313 515.007813 L 1862.128906 524.023438 Z M 1937.269531 194.355469 "
       id="path717" />
    <path
       style="fill:none;stroke-width:2;stroke-linecap:square;stroke-linejoin:miter;stroke:rgb(0%,0%,0%);stroke-opacity:1;stroke-miterlimit:3.25;"
       d="M 1937.269531 194.355469 L 1897.710938 185.339844 L 1822.570313 515.007813 L 1862.128906 524.023438 Z M 1937.269531 194.355469 "
       id="path719" />
    <path
       style="fill-rule:nonzero;fill:rgb(84.999084%,84.999084%,84.999084%);fill-opacity:1;stroke-width:2;stroke-linecap:square;stroke-linejoin:miter;stroke:rgb(84.999084%,84.999084%,84.999084%);stroke-opacity:1;stroke-miterlimit:3.25;"
       d="M 1937.269531 185.339844 L 1897.710938 194.355469 L 1972.851563 524.023438 L 2012.414063 515.007813 Z M 1937.269531 185.339844 "
       id="path721" />
    <path
       style="fill:none;stroke-width:2;stroke-linecap:square;stroke-linejoin:miter;stroke:rgb(0%,0%,0%);stroke-opacity:1;stroke-miterlimit:3.25;"
       d="M 1937.269531 185.339844 L 1897.710938 194.355469 L 1972.851563 524.023438 L 2012.414063 515.007813 Z M 1937.269531 185.339844 "
       id="path723" />
    <path
       style="fill-rule:evenodd;fill:rgb(99.998474%,99.998474%,99.998474%);fill-opacity:1;stroke-width:2;stroke-linecap:square;stroke-linejoin:miter;stroke:rgb(0%,0%,0%);stroke-opacity:1;stroke-miterlimit:3.25;"
       d="M 1947.921875 189.847656 C 1947.921875 181.777344 1944.714844 174.035156 1939.007813 168.328125 C 1933.300781 162.621094 1925.5625 159.414063 1917.492188 159.414063 C 1909.421875 159.414063 1901.679688 162.621094 1895.972656 168.328125 C 1890.265625 174.035156 1887.058594 181.777344 1887.058594 189.847656 C 1887.058594 197.917969 1890.265625 205.660156 1895.972656 211.367188 C 1901.679688 217.070313 1909.421875 220.277344 1917.492188 220.277344 C 1925.5625 220.277344 1933.300781 217.070313 1939.007813 211.367188 C 1944.714844 205.660156 1947.921875 197.917969 1947.921875 189.847656 Z M 1947.921875 189.847656 "
       id="path725" />
    <path
       style="fill-rule:evenodd;fill:rgb(99.998474%,99.998474%,99.998474%);fill-opacity:1;stroke-width:2;stroke-linecap:square;stroke-linejoin:miter;stroke:rgb(0%,0%,0%);stroke-opacity:1;stroke-miterlimit:3.25;"
       d="M 1947.921875 189.847656 C 1947.921875 181.777344 1944.714844 174.035156 1939.007813 168.328125 C 1933.300781 162.621094 1925.5625 159.414063 1917.492188 159.414063 C 1909.421875 159.414063 1901.679688 162.621094 1895.972656 168.328125 C 1890.265625 174.035156 1887.058594 181.777344 1887.058594 189.847656 C 1887.058594 197.917969 1890.265625 205.660156 1895.972656 211.367188 C 1901.679688 217.070313 1909.421875 220.277344 1917.492188 220.277344 C 1925.5625 220.277344 1933.300781 217.070313 1939.007813 211.367188 C 1944.714844 205.660156 1947.921875 197.917969 1947.921875 189.847656 Z M 1947.921875 189.847656 "
       id="path727" />
  </g>
</svg>
